<svg width="133" height="41" viewBox="0 0 133 41" fill="none" xmlns="http://www.w3.org/2000/svg">
<path d="M131.503 35.6682C131.503 36.168 131.405 36.663 131.216 37.1247C131.027 37.5865 130.75 38.006 130.401 38.3592C130.051 38.7125 129.637 38.9926 129.18 39.1835C128.724 39.3744 128.235 39.4724 127.741 39.4719H4.63961C3.64186 39.4729 2.68456 39.0728 1.97822 38.3595C1.27188 37.6462 0.874347 36.6781 0.873047 35.6682V5.33502C0.874347 4.32462 1.27172 3.35604 1.97792 2.64195C2.68412 1.92785 3.64141 1.52663 4.63961 1.52637H127.74C128.234 1.52637 128.723 1.62489 129.18 1.8163C129.636 2.00772 130.051 2.28828 130.4 2.64196C130.75 2.99564 131.027 3.41551 131.216 3.87759C131.405 4.33967 131.502 4.83491 131.502 5.33502L131.503 35.6682Z" fill="#FFF1C3"/>
<path d="M127.741 40.3569H4.63976C3.41066 40.3566 2.23186 39.8628 1.36201 38.9838C0.492171 38.1048 0.00233865 36.9124 0 35.6683L0 5.33611C0.00181828 4.09136 0.491327 2.89816 1.36114 2.01826C2.23096 1.13837 3.41005 0.643629 4.63976 0.642578L127.74 0.642578C128.97 0.644153 130.149 1.13906 131.018 2.01884C131.888 2.89862 132.378 4.09152 132.38 5.33611V35.6683C132.382 38.2544 130.297 40.3569 127.741 40.3569Z" fill="#FFF1C3"/>
<path d="M131.503 35.6682C131.503 36.168 131.405 36.663 131.216 37.1247C131.027 37.5865 130.75 38.006 130.401 38.3592C130.051 38.7125 129.637 38.9926 129.18 39.1835C128.724 39.3744 128.235 39.4724 127.741 39.4719H4.63961C3.64186 39.4729 2.68456 39.0728 1.97822 38.3595C1.27188 37.6462 0.874347 36.6781 0.873047 35.6682V5.33502C0.874347 4.32462 1.27172 3.35604 1.97792 2.64195C2.68412 1.92785 3.64141 1.52663 4.63961 1.52637H127.74C128.234 1.52637 128.723 1.62489 129.18 1.8163C129.636 2.00772 130.051 2.28828 130.4 2.64196C130.75 2.99564 131.027 3.41551 131.216 3.87759C131.405 4.33967 131.502 4.83491 131.502 5.33502L131.503 35.6682Z" fill="#234B64"/>
<path d="M29.5597 20.2902C29.5313 17.0893 32.149 15.5321 32.2687 15.4596C30.7862 13.2718 28.4884 12.9728 27.6809 12.949C25.751 12.7434 23.879 14.1179 22.8959 14.1179C21.8932 14.1179 20.3793 12.9688 18.7477 13.0026C16.6481 13.0354 14.6839 14.2659 13.6066 16.1767C11.3833 20.0727 13.0414 25.7981 15.1715 28.9473C16.237 30.4906 17.482 32.2117 19.1117 32.1512C20.706 32.0856 21.3016 31.1233 23.2256 31.1233C25.1319 31.1233 25.6912 32.1512 27.3532 32.1124C29.0643 32.0856 30.1416 30.5631 31.1698 29.0069C32.4011 27.2401 32.8956 25.4982 32.9152 25.4088C32.876 25.3949 29.5931 24.1257 29.5597 20.2902ZM26.4201 10.8773C27.2776 9.79182 27.8644 8.31504 27.7015 6.81641C26.4604 6.87202 24.9082 7.6854 24.0144 8.74705C23.2236 9.68258 22.5172 11.216 22.6997 12.658C24.0939 12.7633 25.5253 11.9459 26.4201 10.8773Z" fill="#FFF1C3"/>
<path d="M52.6519 31.9298H50.4238L49.2032 28.0477H44.9608L43.7982 31.9298H41.6289L45.833 18.7132H48.4291L52.6519 31.9298ZM48.8353 26.4189L47.7315 22.9678C47.6148 22.6152 47.395 21.785 47.0732 20.478H47.034C46.9044 21.0401 46.6974 21.8704 46.4139 22.9678L45.3287 26.4189H48.8353ZM63.4424 27.0476C63.4424 28.6684 63.0077 29.9495 62.1375 30.89C61.3585 31.7272 60.3901 32.1453 59.2353 32.1453C57.9883 32.1453 57.0915 31.6954 56.547 30.7937V35.7941H54.4552V25.5321C54.4552 24.5141 54.4287 23.4703 54.3777 22.3997H56.2173L56.3341 23.9103H56.3733C57.0709 22.7721 58.1296 22.2031 59.5502 22.2031C60.6609 22.2031 61.588 22.647 62.3298 23.5359C63.0705 24.4267 63.4424 25.5966 63.4424 27.0476ZM61.3114 27.125C61.3114 26.1975 61.1053 25.4327 60.6913 24.8299C60.239 24.2032 59.6317 23.8894 58.8703 23.8894C58.3542 23.8894 57.8853 24.0642 57.4663 24.4088C57.0464 24.7564 56.7717 25.2103 56.6431 25.7724C56.5858 25.9826 56.5532 26.199 56.546 26.4169V28.0069C56.546 28.6991 56.756 29.2841 57.1759 29.7628C57.5958 30.2395 58.1413 30.4788 58.8124 30.4788C59.6003 30.4788 60.2135 30.17 60.652 29.5572C61.0916 28.9425 61.3114 28.1321 61.3114 27.125ZM74.2711 27.0476C74.2711 28.6684 73.8365 29.9495 72.9662 30.89C72.1862 31.7272 71.2188 32.1453 70.063 32.1453C68.816 32.1453 67.9193 31.6954 67.3747 30.7937V35.7941H65.283V25.5321C65.283 24.5141 65.2565 23.4703 65.2055 22.3997H67.0451L67.1618 23.9103H67.2011C67.8977 22.7721 68.9563 22.2031 70.378 22.2031C71.4876 22.2031 72.4148 22.647 73.1585 23.5359C73.8983 24.4267 74.2711 25.5966 74.2711 27.0476ZM72.1391 27.125C72.1391 26.1975 71.9321 25.4327 71.5181 24.8299C71.0658 24.2032 70.4604 23.8894 69.699 23.8894C69.183 23.8894 68.714 24.0642 68.2931 24.4088C67.8732 24.7564 67.5994 25.2103 67.4709 25.7724C67.4071 26.0346 67.3728 26.2481 67.3728 26.4169V28.0069C67.3728 28.6991 67.5837 29.2841 68.0017 29.7628C68.4216 30.2385 68.9671 30.4788 69.6402 30.4788C70.429 30.4788 71.0422 30.17 71.4798 29.5572C71.9193 28.9425 72.1391 28.1321 72.1391 27.125ZM86.3783 28.2224C86.3783 29.3477 85.9897 30.2623 85.2176 30.9685C84.3679 31.7391 83.1817 32.1254 81.661 32.1254C80.256 32.1254 79.1297 31.8513 78.28 31.3021L78.7637 29.5373C79.6811 30.0875 80.6887 30.3616 81.7856 30.3616C82.5744 30.3616 83.1876 30.1809 83.6252 29.8224C84.0638 29.4629 84.2855 28.9822 84.2855 28.3823C84.2855 27.8451 84.102 27.3952 83.742 27.0287C83.3799 26.6632 82.7814 26.3226 81.9406 26.0098C79.6546 25.1467 78.5106 23.8845 78.5106 22.2239C78.5106 21.1394 78.9148 20.2516 79.7213 19.5574C80.5278 18.8642 81.5972 18.5176 82.9276 18.5176C84.1158 18.5176 85.1057 18.7271 85.8916 19.1452L85.3667 20.8713C84.6269 20.4661 83.792 20.2635 82.858 20.2635C82.1202 20.2635 81.5413 20.4472 81.1273 20.8127C80.7789 21.1394 80.6023 21.5377 80.6023 22.0104C80.6023 22.5318 80.8035 22.9648 81.2038 23.3045C81.5511 23.6173 82.1849 23.9579 83.1013 24.3234C84.2257 24.7822 85.0518 25.3165 85.5806 25.9303C86.1133 26.5441 86.3783 27.3098 86.3783 28.2224ZM93.3119 23.9887H91.0063V28.6157C91.0063 29.7926 91.4124 30.3795 92.2268 30.3795C92.6006 30.3795 92.9106 30.3477 93.1559 30.2812L93.2138 31.8891C92.8017 32.045 92.2592 32.1235 91.5871 32.1235C90.761 32.1235 90.1154 31.8682 89.6493 31.3578C89.1853 30.8473 88.9518 29.9922 88.9518 28.7885V23.9848H87.5782V22.3958H88.9518V20.6508L91.0063 20.0232V22.3958H93.3119V23.9887ZM103.694 27.0863C103.694 28.5512 103.28 29.7539 102.454 30.6943C101.59 31.6626 100.44 32.1453 99.0064 32.1453C97.623 32.1453 96.5231 31.6815 95.7029 30.7549C94.8827 29.8264 94.4726 28.6564 94.4726 27.2452C94.4726 25.7684 94.8964 24.5588 95.7412 23.6183C96.5879 22.6768 97.728 22.2061 99.1614 22.2061C100.543 22.2061 101.652 22.6708 102.492 23.5984C103.295 24.4982 103.694 25.6602 103.694 27.0863ZM101.526 27.135C101.526 26.262 101.34 25.5132 100.966 24.8865C100.527 24.1298 99.8992 23.7514 99.0859 23.7514C98.248 23.7514 97.6053 24.1298 97.1677 24.8865C96.793 25.5132 96.6065 26.2749 96.6065 27.1747C96.6065 28.0486 96.793 28.7995 97.1677 29.4241C97.62 30.1809 98.2509 30.5593 99.0682 30.5593C99.8678 30.5593 100.495 30.173 100.948 29.4053C101.333 28.7637 101.526 28.0099 101.526 27.135ZM110.496 24.2618C110.279 24.2221 110.058 24.2025 109.837 24.2032C109.101 24.2032 108.532 24.4833 108.132 25.0474C107.785 25.544 107.61 26.1716 107.61 26.9294V31.9298H105.518V25.401C105.52 24.4005 105.5 23.4002 105.457 22.4007H107.279L107.356 24.2241H107.414C107.635 23.5974 107.983 23.0919 108.46 22.7136C108.896 22.3829 109.426 22.2039 109.971 22.2031C110.165 22.2031 110.339 22.217 110.494 22.2418L110.496 24.2618ZM119.851 26.7139C119.857 27.0358 119.831 27.3574 119.775 27.6742H113.5C113.523 28.6157 113.827 29.3367 114.41 29.8333C114.939 30.2762 115.623 30.4987 116.463 30.4987C117.392 30.4987 118.239 30.3497 119.002 30.0488L119.33 31.5177C118.439 31.9109 117.387 32.1066 116.173 32.1066C114.713 32.1066 113.567 31.6716 112.733 30.8036C111.901 29.9346 111.484 28.7667 111.484 27.3038C111.484 25.8677 111.872 24.671 112.648 23.7166C113.46 22.6977 114.558 22.1882 115.94 22.1882C117.297 22.1882 118.324 22.6977 119.021 23.7166C119.574 24.524 119.851 25.5251 119.851 26.7139ZM117.857 26.1647C117.872 25.536 117.734 24.9948 117.451 24.5369C117.089 23.947 116.531 23.6531 115.785 23.6531C115.101 23.6531 114.544 23.9401 114.12 24.5161C113.771 24.9739 113.564 25.5241 113.501 26.1627L117.857 26.1647Z" fill="#FFF1C3"/>
<path d="M44.3576 14.0407C43.7758 14.0407 43.2725 14.0119 42.8535 13.9633V7.57346C43.4395 7.48184 44.0316 7.43668 44.6245 7.4384C47.0233 7.4384 48.1281 8.63313 48.1281 10.5807C48.1281 12.8271 46.8232 14.0407 44.3576 14.0407ZM44.7088 8.25773C44.3851 8.25773 44.1094 8.27759 43.8808 8.32526V13.1827C44.0044 13.2025 44.2418 13.2115 44.5754 13.2115C46.1472 13.2115 47.042 12.3057 47.042 10.6095C47.042 9.09693 46.2325 8.25773 44.7088 8.25773ZM51.5709 14.0894C50.2189 14.0894 49.3427 13.0675 49.3427 11.6801C49.3427 10.2341 50.2375 9.20319 51.6474 9.20319C52.9798 9.20319 53.8755 10.1765 53.8755 11.6036C53.8755 13.0675 52.9523 14.0894 51.5709 14.0894ZM51.6101 9.96393C50.8674 9.96393 50.3915 10.6671 50.3915 11.6503C50.3915 12.6146 50.8772 13.3177 51.6003 13.3177C52.3234 13.3177 52.809 12.5659 52.809 11.6304C52.809 10.677 52.3332 9.96393 51.6101 9.96393ZM61.5852 9.29952L60.1381 13.9831H59.1952L58.5957 11.9492C58.4467 11.4517 58.3226 10.9469 58.2239 10.4367H58.2043C58.1287 10.9471 57.9855 11.4586 57.8334 11.9492L57.1957 13.9831H56.243L54.8812 9.29952H55.9379L56.4618 11.5261C56.5854 12.0565 56.6894 12.557 56.7758 13.0297H56.7954C56.8709 12.6354 56.9945 12.1429 57.1761 11.5361L57.8334 9.30052H58.6713L59.3002 11.4884C59.4523 12.0187 59.5759 12.5391 59.672 13.0307H59.6995C59.7662 12.549 59.8712 12.0376 60.0135 11.4884L60.5757 9.30052L61.5852 9.29952ZM66.9128 13.9831H65.8846V11.2937C65.8846 10.4655 65.5706 10.0503 64.9515 10.0503C64.3422 10.0503 63.9233 10.5807 63.9233 11.1974V13.9831H62.8951V10.6383C62.8951 10.2241 62.8852 9.7802 62.8568 9.29853H63.7614L63.8095 10.0215H63.8379C64.1146 9.52099 64.6758 9.20319 65.3047 9.20319C66.276 9.20319 66.9138 9.95499 66.9138 11.1785L66.9128 13.9831ZM69.7482 13.9831H68.719V7.15039H69.7482V13.9831ZM73.4972 14.0894C72.1461 14.0894 71.269 13.0675 71.269 11.6801C71.269 10.2341 72.1638 9.20319 73.5727 9.20319C74.9061 9.20319 75.8008 10.1765 75.8008 11.6036C75.8018 13.0675 74.8776 14.0894 73.4972 14.0894ZM73.5354 9.96393C72.7927 9.96393 72.3169 10.6671 72.3169 11.6503C72.3169 12.6146 72.8035 13.3177 73.5246 13.3177C74.2487 13.3177 74.7334 12.5659 74.7334 11.6304C74.7344 10.677 74.2595 9.96393 73.5354 9.96393ZM79.8549 13.9831L79.7803 13.4439H79.7528C79.4389 13.8779 78.9807 14.0894 78.3999 14.0894C77.5708 14.0894 76.9821 13.5015 76.9821 12.7109C76.9821 11.5549 77.9721 10.9571 79.6861 10.9571V10.8707C79.6861 10.2539 79.3633 9.94506 78.7256 9.94506C78.2694 9.94506 77.8691 10.0613 77.5168 10.2927L77.3079 9.60839C77.7356 9.33826 78.2694 9.20319 78.8963 9.20319C80.1051 9.20319 80.7153 9.84873 80.7153 11.1408V12.8659C80.7153 13.3386 80.7359 13.7051 80.782 13.9841L79.8549 13.9831ZM79.7136 11.6503C78.5716 11.6503 77.9986 11.9303 77.9986 12.5947C77.9986 13.0863 78.2939 13.3267 78.704 13.3267C79.227 13.3267 79.7136 12.9225 79.7136 12.3733V11.6503ZM85.7083 13.9831L85.6602 13.2313H85.6318C85.3364 13.7994 84.84 14.0894 84.1463 14.0894C83.0308 14.0894 82.2047 13.0963 82.2047 11.6989C82.2047 10.2341 83.0612 9.2022 84.2307 9.2022C84.8498 9.2022 85.2884 9.41373 85.5356 9.83879H85.5562V7.15039H86.5854V12.7209C86.5854 13.1737 86.5962 13.5978 86.6237 13.9831H85.7083ZM85.5562 11.2272C85.5562 10.5717 85.1275 10.0126 84.4731 10.0126C83.7107 10.0126 83.2447 10.6969 83.2447 11.6602C83.2447 12.6047 83.7284 13.2512 84.4524 13.2512C85.099 13.2512 85.5562 12.6821 85.5562 12.0078V11.2272ZM93.1109 14.0894C91.7599 14.0894 90.8838 13.0675 90.8838 11.6801C90.8838 10.2341 91.7785 9.20319 93.1875 9.20319C94.5208 9.20319 95.4156 10.1765 95.4156 11.6036C95.4166 13.0675 94.4933 14.0894 93.1109 14.0894ZM93.1492 9.96393C92.4075 9.96393 91.9316 10.6671 91.9316 11.6503C91.9316 12.6146 92.4173 13.3177 93.1394 13.3177C93.8634 13.3177 94.3481 12.5659 94.3481 11.6304C94.3501 10.677 93.8742 9.96393 93.1492 9.96393ZM100.945 13.9831H99.916V11.2937C99.916 10.4655 99.6021 10.0503 98.983 10.0503C98.3737 10.0503 97.9557 10.5807 97.9557 11.1974V13.9831H96.9265V10.6383C96.9265 10.2241 96.9167 9.7802 96.8883 9.29853H97.7929L97.841 10.0215H97.8694C98.1451 9.52099 98.7073 9.2022 99.3352 9.2022C100.307 9.2022 100.945 9.954 100.945 11.1775V13.9831ZM107.863 10.0801H106.732V12.3544C106.732 12.9334 106.93 13.2224 107.33 13.2224C107.512 13.2224 107.664 13.2025 107.787 13.1737L107.815 13.9643C107.616 14.0417 107.349 14.0805 107.017 14.0805C106.207 14.0805 105.722 13.6276 105.722 12.4418V10.0801H105.047V9.29952H105.722V8.44146L106.732 8.1326V9.29853H107.863V10.0801ZM113.307 13.9831H112.279V11.3136C112.279 10.4754 111.966 10.0513 111.346 10.0513C110.813 10.0513 110.317 10.4178 110.317 11.1597V13.9831H109.29V7.15039H110.317V9.96393H110.338C110.661 9.45346 111.13 9.2022 111.729 9.2022C112.708 9.2022 113.307 9.97287 113.307 11.1974V13.9831ZM118.883 11.8916H115.798C115.817 12.7785 116.397 13.279 117.256 13.279C117.712 13.279 118.132 13.2015 118.503 13.0575L118.662 13.7805C118.225 13.9732 117.71 14.0695 117.11 14.0695C115.663 14.0695 114.807 13.1439 114.807 11.7089C114.807 10.2728 115.684 9.19326 116.995 9.19326C118.177 9.19326 118.919 10.0801 118.919 11.4199C118.925 11.578 118.913 11.7363 118.883 11.8916ZM117.94 11.1497C117.94 10.4267 117.58 9.91626 116.923 9.91626C116.332 9.91626 115.865 10.4367 115.799 11.1497H117.94Z" fill="#FFF1C3"/>
</svg>
