<svg width="1193" height="322" viewBox="0 0 1193 322" fill="none" xmlns="http://www.w3.org/2000/svg">
<g clip-path="url(#clip0_362_560)">
<path d="M909.459 296.001C909.459 304.158 909.459 311.816 909.459 319.867C901.664 319.867 894.1 319.867 886.183 319.867C886.183 214.027 886.183 108.152 886.183 2.08404C887.378 1.97262 888.511 1.77383 889.643 1.77471C954.13 1.82449 1018.62 1.62087 1083.1 2.09707C1106.74 2.27163 1129.4 7.85165 1149.71 20.4986C1181.02 39.9984 1194.2 69.1157 1192.24 105.187C1189.88 148.677 1163.97 179.779 1119.53 193.936C1103.7 198.982 1087.42 201.391 1070.85 201.531C1046.86 201.733 1022.86 201.596 998.868 201.582C997.737 201.582 996.606 201.374 995.265 201.242C995.265 194.083 995.265 187.142 995.265 179.662C997.33 179.662 999.294 179.675 1001.26 179.66C1028.41 179.463 1055.59 179.793 1082.72 178.882C1101.95 178.236 1120.22 172.798 1136.32 161.853C1162.26 144.221 1171.92 119.181 1167.93 88.6508C1164.25 60.4878 1147.77 42.3014 1121.92 32.0088C1106.87 26.0157 1091.08 23.7637 1074.97 23.748C1021.31 23.6958 967.658 23.7143 914.002 23.7194C912.702 23.7196 911.402 23.8798 909.46 24.0077C909.46 114.67 909.46 205.085 909.459 296.001Z" fill="#EC0F65"/>
<path d="M662.644 85.4137C650.487 65.9118 638.53 46.7138 626.165 26.8598C624.906 28.6346 623.932 29.8633 623.111 31.1865C564.098 126.241 505.073 221.288 446.19 316.423C443.871 320.169 441.514 321.768 437.101 321.462C431.189 321.051 425.228 321.36 418.403 321.36C423.828 312.484 428.74 304.429 433.67 296.385C493.27 199.151 552.886 101.928 612.409 4.64751C614.277 1.59404 616.219 0.115373 619.9 0.385392C625.843 0.821305 632.831 -1.05782 637.49 1.49117C641.961 3.93752 644.095 10.7322 647.148 15.6824C679.749 68.5385 712.33 121.407 744.909 174.277C745.852 175.807 746.721 177.384 748.094 179.75C739.175 179.75 730.954 179.908 722.752 179.584C721.481 179.534 720.017 177.45 719.117 176.01C700.318 145.938 681.588 115.824 662.644 85.4137Z" fill="#EC0F65"/>
<path d="M88.9997 24.9116C67.2014 24.9116 45.903 24.9116 24.0836 24.9116C24.0836 123.889 24.0836 222.458 24.0836 321.314C15.9823 321.314 8.40402 321.314 0.517578 321.314C0.517578 215.301 0.517578 109.549 0.517578 3.38281C89.8676 3.38281 179.226 3.38281 268.856 3.38281C268.856 10.3575 268.856 17.2819 268.856 24.9116C209.026 24.9116 149.263 24.9116 88.9997 24.9116Z" fill="#EB1066"/>
<path d="M363.026 173C363.026 222.635 363.026 271.77 363.026 321.252C355.155 321.252 347.583 321.252 339.621 321.252C339.621 215.327 339.621 109.486 339.621 3.30566C347.222 3.30566 354.788 3.30566 363.026 3.30566C363.026 59.6853 363.026 116.093 363.026 173Z" fill="#EC1066"/>
<path d="M157.999 177.268C134.719 177.267 111.938 177.267 88.8887 177.267C88.8887 169.877 88.8887 162.959 88.8887 155.66C127.174 155.66 165.354 155.66 203.807 155.66C203.807 162.753 203.807 169.683 203.807 177.268C188.68 177.268 173.59 177.268 157.999 177.268Z" fill="#EB1266"/>
<path d="M802.795 268.158C813.667 285.828 824.351 303.188 835.523 321.343C826.874 321.343 819.109 321.421 811.348 321.25C810.298 321.227 808.897 320.193 808.294 319.229C791.814 292.871 775.415 266.462 759.021 240.05C758.881 239.825 759.004 239.436 759.004 238.588C766.902 238.588 774.827 238.433 782.734 238.739C784.077 238.792 785.704 240.601 786.586 241.989C792.024 250.547 797.287 259.216 802.795 268.158Z" fill="#EB0F65"/>
</g>
<defs>
<clipPath id="clip0_362_560">
<rect width="1193" height="322" fill="white"/>
</clipPath>
</defs>
</svg>
