<svg width="258" height="70" viewBox="0 0 258 70" fill="none" xmlns="http://www.w3.org/2000/svg">
<g clip-path="url(#clip0_362_576)">
<path d="M196.681 64.3474C196.681 66.1208 196.681 67.7855 196.681 69.5358C194.996 69.5358 193.36 69.5358 191.647 69.5358C191.647 46.527 191.647 23.5108 191.647 0.4525C191.906 0.428278 192.151 0.385063 192.396 0.385255C206.342 0.396076 220.288 0.351812 234.234 0.455333C239.346 0.493281 244.246 1.70633 248.638 4.45568C255.41 8.69475 258.26 15.0246 257.836 22.8662C257.325 32.3206 251.722 39.0819 242.112 42.1595C238.687 43.2564 235.167 43.7801 231.585 43.8105C226.396 43.8545 221.206 43.8247 216.017 43.8217C215.772 43.8215 215.528 43.7763 215.238 43.7476C215.238 42.1915 215.238 40.6826 215.238 39.0565C215.684 39.0565 216.109 39.0592 216.534 39.0561C222.407 39.0132 228.283 39.085 234.151 38.8868C238.31 38.7464 242.261 37.5643 245.743 35.1848C251.352 31.3517 253.441 25.9084 252.578 19.2714C251.782 13.149 248.218 9.19539 242.628 6.95788C239.373 5.65504 235.96 5.16546 232.475 5.16205C220.871 5.15071 209.268 5.15474 197.664 5.15585C197.383 5.15588 197.101 5.19072 196.681 5.21852C196.681 24.9276 196.681 44.5832 196.681 64.3474Z" fill="white"/>
<path d="M143.304 18.5678C140.675 14.3283 138.089 10.1548 135.415 5.83871C135.143 6.22453 134.932 6.49164 134.755 6.77929C121.993 27.4434 109.228 48.1057 96.4935 68.7872C95.992 69.6017 95.4824 69.9492 94.5279 69.8826C93.2495 69.7933 91.9603 69.8605 90.4844 69.8605C91.6576 67.9309 92.7197 66.1797 93.786 64.4311C106.675 43.2934 119.568 22.1578 132.44 1.00995C132.844 0.346148 133.264 0.0246989 134.06 0.0833987C135.345 0.178162 136.857 -0.230342 137.864 0.323784C138.831 0.8556 139.293 2.3327 139.953 3.40883C147.003 14.8993 154.049 26.3925 161.095 37.8858C161.299 38.2186 161.487 38.5614 161.784 39.0757C159.855 39.0757 158.077 39.1101 156.303 39.0396C156.028 39.0287 155.712 38.5757 155.517 38.2626C151.452 31.7253 147.401 25.1787 143.304 18.5678Z" fill="white"/>
<path d="M19.2471 5.41553C14.533 5.41552 9.92693 5.41552 5.20824 5.41552C5.20824 26.9323 5.20824 48.3604 5.20824 69.8509C3.45625 69.8509 1.81735 69.8509 0.111816 69.8509C0.111816 46.8045 0.111816 23.815 0.111816 0.735352C19.4348 0.735352 38.7596 0.735352 58.143 0.735352C58.143 2.25158 58.143 3.75689 58.143 5.41553C45.2041 5.41553 32.2797 5.41553 19.2471 5.41553Z" fill="white"/>
<path d="M78.5088 37.6088C78.5088 48.399 78.5088 59.0805 78.5088 69.8374C76.8066 69.8374 75.169 69.8374 73.4473 69.8374C73.4473 46.8104 73.4473 23.8015 73.4473 0.71875C75.091 0.71875 76.7274 0.71875 78.5088 0.71875C78.5088 12.9752 78.5088 25.2377 78.5088 37.6088Z" fill="white"/>
<path d="M34.1691 38.5361C29.1344 38.5361 24.2079 38.5361 19.2231 38.5361C19.2231 36.9296 19.2231 35.4256 19.2231 33.8389C27.5027 33.8389 35.7597 33.8389 44.0755 33.8389C44.0755 35.3807 44.0755 36.8873 44.0755 38.5362C40.8041 38.5362 37.5407 38.5362 34.1691 38.5361Z" fill="white"/>
<path d="M173.614 58.2953C175.965 62.1365 178.276 65.9104 180.692 69.8571C178.821 69.8571 177.142 69.8741 175.464 69.837C175.236 69.832 174.934 69.607 174.803 69.3975C171.239 63.6676 167.693 57.9266 164.147 52.1848C164.117 52.1358 164.144 52.0513 164.144 51.867C165.852 51.867 167.565 51.8331 169.275 51.8998C169.566 51.9112 169.918 52.3045 170.109 52.6062C171.285 54.4666 172.423 56.3513 173.614 58.2953Z" fill="white"/>
</g>
<defs>
<clipPath id="clip0_362_576">
<rect width="258" height="70" fill="white"/>
</clipPath>
</defs>
</svg>
