<svg width="133" height="41" viewBox="0 0 133 41" fill="none" xmlns="http://www.w3.org/2000/svg">
<path d="M127.858 40.3569H5.28289C2.58627 40.3569 0.379883 38.1229 0.379883 35.3926V5.60689C0.379883 2.8765 2.58622 0.642578 5.28289 0.642578H127.858C130.554 0.642578 132.761 2.8765 132.761 5.60689V35.3926C132.761 38.1229 130.555 40.3569 127.858 40.3569Z" fill="#234B64"/>
<path d="M127.858 0.642578H5.28289C2.58627 0.642578 0.379883 2.8765 0.379883 5.60689V35.3926C0.379883 38.1229 2.58622 40.3569 5.28289 40.3569H127.858C130.554 40.3569 132.761 38.1229 132.761 35.3926V5.60689C132.761 2.8765 130.555 0.642578 127.858 0.642578ZM127.858 1.43684C130.129 1.43684 131.976 3.30781 131.976 5.60689V35.3926C131.976 37.6921 130.129 39.563 127.858 39.563H5.28289C3.01223 39.563 1.16437 37.692 1.16437 35.3926V5.60689C1.16437 3.30781 3.01219 1.43688 5.28289 1.43688H127.858" fill="#FFF1C3"/>
<path d="M46.8785 10.8127C46.8785 11.6445 46.6351 12.3069 46.1479 12.8011C45.5944 13.3886 44.8731 13.6826 43.9863 13.6826C43.1371 13.6826 42.4151 13.3848 41.8214 12.7882C41.2265 12.1922 40.9297 11.453 40.9297 10.571C40.9297 9.68867 41.2265 8.94992 41.8214 8.35333C42.4151 7.75728 43.1371 7.45898 43.9863 7.45898C44.4077 7.45898 44.8111 7.54243 45.1941 7.70882C45.5772 7.87561 45.8844 8.09702 46.1142 8.3743L45.5971 8.89825C45.2076 8.42704 44.6713 8.19162 43.9863 8.19162C43.367 8.19162 42.8315 8.41196 42.3795 8.85291C41.9275 9.29431 41.7015 9.86671 41.7015 10.571C41.7015 11.2754 41.9275 11.8477 42.3795 12.2892C42.8315 12.7301 43.367 12.9504 43.9863 12.9504C44.6433 12.9504 45.1911 12.7289 45.6296 12.2853C45.9143 11.9963 46.0789 11.5945 46.123 11.0787H43.9863V10.3631H46.8374C46.8649 10.5187 46.8784 10.668 46.8784 10.8127" fill="#FFF1C3"/>
<path d="M46.8788 10.8124H46.7807C46.7799 11.6252 46.5454 12.2566 46.0789 12.7305L46.0778 12.7313L46.0774 12.7321C45.5415 13.2995 44.8527 13.5818 43.9866 13.583C43.1601 13.5818 42.4683 13.2964 41.8906 12.7177C41.3142 12.1379 41.0292 11.4301 41.0281 10.5707C41.0292 9.71088 41.3142 9.00345 41.8906 8.42404C42.4683 7.84499 43.1601 7.55915 43.9866 7.55794C44.3954 7.55794 44.7846 7.63871 45.1557 7.79961C45.5273 7.96176 45.8208 8.17425 46.0394 8.43805L46.1145 8.37398L46.0452 8.30379L45.5281 8.82809L45.5974 8.89792L45.6729 8.83438C45.2652 8.33984 44.6931 8.09054 43.9867 8.09201C43.3444 8.09121 42.7793 8.3236 42.312 8.78128C41.8401 9.24044 41.603 9.84506 41.6038 10.5707C41.603 11.2964 41.8401 11.9009 42.312 12.3601C42.7793 12.8178 43.3444 13.0502 43.9866 13.0494C44.6654 13.0506 45.2439 12.8174 45.6993 12.3551C46.0034 12.0464 46.1758 11.6187 46.221 11.0869L46.2302 10.9791H44.0847V10.4621H46.8377V10.3628L46.7412 10.3802C46.768 10.5308 46.7807 10.6739 46.7807 10.8124H46.9768C46.9768 10.6614 46.963 10.5063 46.9342 10.345L46.9197 10.2635H43.8886V11.1776H46.1233V11.0783L46.0257 11.0698C45.9824 11.5694 45.8253 11.9456 45.5606 12.2148C45.1393 12.6398 44.6222 12.8496 43.9867 12.8508C43.3903 12.85 42.8843 12.6421 42.448 12.2174C42.016 11.7943 41.801 11.2541 41.7999 10.5707C41.801 9.88731 42.016 9.34708 42.448 8.92394C42.8843 8.49927 43.3903 8.29138 43.9867 8.29058C44.6498 8.29219 45.1505 8.514 45.5224 8.96195L45.5914 9.04495L46.1839 8.44421L46.2475 8.37987L46.1896 8.31035C45.9487 8.01955 45.6277 7.78872 45.2331 7.61738C44.8379 7.4455 44.4207 7.35938 43.9867 7.35938C43.1149 7.35862 42.3626 7.66887 41.7524 8.28286C41.1399 8.89565 40.8312 9.6659 40.832 10.5707C40.8312 11.4751 41.1399 12.2458 41.7528 12.8589C42.3626 13.4725 43.1149 13.7824 43.9867 13.7816C44.8945 13.7824 45.6476 13.4771 46.2191 12.8694L46.1482 12.8007L46.2176 12.871C46.7255 12.3571 46.9775 11.6628 46.9768 10.8124H46.8788ZM51.3987 8.32396H48.7192V10.2128H51.1356V10.9286H48.7192V12.8174H51.3987V13.5493H47.9639V7.59212H51.3987V8.32396Z" fill="#FFF1C3"/>
<path d="M51.398 8.32428V8.225H48.6206V10.3124H51.0369V10.8294L48.6205 10.8296V12.917H51.3V13.4503H48.0614V7.69173H51.3V8.32428H51.398H51.4961V7.49316H47.8652V13.6489H51.4961V12.7185H48.8167V11.0282H51.233V10.1138H48.8167V8.42356H51.4961V8.32428H51.398ZM54.5861 13.5496H53.8296V8.32424H52.1863V7.5924H56.2294V8.32424H54.5861V13.5495" fill="#FFF1C3"/>
<path d="M54.5867 13.5496V13.4503H53.9283V8.225H52.285V7.69177H56.1319V8.225H54.4887V13.5496H54.5867H54.6848V8.42356H56.3281V7.49316H52.0889V8.42352H53.7321V13.6488H54.6848V13.5495H54.5867M59.1553 13.5496V7.5924H59.9111V13.5495H59.1553" fill="#FFF1C3"/>
<path d="M59.1547 13.5496H59.2528V7.69173H59.8123V13.4503H59.1547V13.5496V13.6489H60.0085V7.49316H59.0566V13.6489H59.1547V13.5496M63.264 13.5496H62.5075V8.32424H60.8642V7.5924H64.9073V8.32424H63.264V13.5495" fill="#FFF1C3"/>
<path d="M63.2644 13.5496V13.4503H62.6059V8.225H60.9627V7.69177H64.8096V8.225H63.1663V13.5496H63.2644H63.3624V8.42356H65.0057V7.49316H60.7666V8.42352H62.4098V13.6488H63.3624V13.5495H63.2644M68.8056 12.281C69.241 12.7274 69.7739 12.9504 70.404 12.9504C71.0342 12.9504 71.5673 12.7274 72.0021 12.281C72.438 11.8346 72.6564 11.264 72.6564 10.571C72.6564 9.87804 72.438 9.30742 72.0021 8.86103C71.5673 8.41464 71.0342 8.19162 70.404 8.19162C69.7739 8.19162 69.241 8.41464 68.8056 8.86103C68.3708 9.30742 68.1525 9.878 68.1525 10.571C68.1525 11.264 68.3708 11.8346 68.8056 12.281ZM72.5613 12.7797C71.9829 13.382 71.2636 13.6826 70.404 13.6826C69.5437 13.6826 68.8246 13.382 68.2475 12.7797C67.6687 12.1781 67.3806 11.4418 67.3806 10.571C67.3806 9.70027 67.6687 8.96375 68.2475 8.3623C68.8247 7.75991 69.5437 7.45898 70.404 7.45898C71.259 7.45898 71.9764 7.76152 72.5575 8.36618C73.1378 8.9708 73.4282 9.70572 73.4282 10.571C73.4282 11.4418 73.1385 12.1781 72.5613 12.7797Z" fill="#FFF1C3"/>
<path d="M68.8052 12.2807L68.7355 12.3505C69.1871 12.8147 69.7506 13.0506 70.4037 13.0494C71.0564 13.0506 71.6206 12.8147 72.0715 12.3505C72.5261 11.8858 72.7547 11.2847 72.754 10.5707C72.7547 9.85675 72.5261 9.25556 72.0715 8.79088C71.6206 8.32664 71.0564 8.09086 70.4037 8.09202C69.7506 8.09086 69.1871 8.32664 68.7355 8.79088C68.282 9.25556 68.0529 9.85675 68.054 10.5707C68.0529 11.2846 68.282 11.8858 68.7355 12.3505L68.8052 12.2807L68.875 12.2109C68.459 11.7823 68.251 11.2432 68.2502 10.5707C68.251 9.89825 68.459 9.35913 68.8749 8.9305C69.2947 8.502 69.7961 8.29179 70.4037 8.29063C71.0108 8.29179 71.5133 8.502 71.932 8.9305C72.3488 9.35913 72.5568 9.89825 72.5575 10.5707C72.5568 11.2431 72.3488 11.7823 71.932 12.2109C71.5133 12.6394 71.0108 12.8496 70.4037 12.8508C69.7961 12.8496 69.2947 12.6394 68.875 12.2109L68.8052 12.2807ZM72.561 12.7794L72.4909 12.7104C71.9286 13.2937 71.241 13.5819 70.4037 13.583C69.5659 13.5818 68.8783 13.2937 68.3171 12.7104C67.756 12.1251 67.4791 11.4193 67.4783 10.5707C67.4791 9.72208 67.756 9.01626 68.3171 8.431C68.8783 7.84767 69.5659 7.55915 70.4037 7.55799C71.2356 7.55915 71.9216 7.84887 72.487 8.43524C73.0501 9.02322 73.3286 9.72793 73.3298 10.5707C73.3286 11.4193 73.0509 12.1251 72.4909 12.7104L72.561 12.7794L72.6315 12.8484C73.2259 12.2302 73.5266 11.4635 73.5259 10.5707C73.5266 9.68299 73.2248 8.91778 72.6276 8.29687C72.0301 7.67351 71.2816 7.35831 70.4037 7.35938C69.5211 7.35831 68.7704 7.67204 68.1766 8.29299V8.29254C67.581 8.91113 67.2814 9.67791 67.2822 10.5707C67.2814 11.4635 67.581 12.2302 68.1766 12.8488L68.1793 12.8516L68.1766 12.8484C68.7704 13.4693 69.5211 13.7824 70.4037 13.7816C71.2858 13.7824 72.0366 13.4693 72.6315 12.8484L72.561 12.7794ZM74.4888 13.5493V7.59208H75.4089L78.2684 12.2263H78.3009L78.2684 11.0783V7.59208H79.0249V13.5492H78.2358L75.2442 8.69039H75.2116L75.2442 9.83881V13.5492H74.4889" fill="#FFF1C3"/>
<path d="M74.4886 13.5496H74.5867V7.69173H75.3543L78.2138 12.326H78.4015L78.3662 11.0772V7.69177H78.9267V13.4503H78.29L75.2985 8.59147H75.1108L75.146 9.84078V13.4503H74.4887V13.5496V13.6489H75.3421V9.83762L75.3095 8.68808L75.2115 8.69076V8.79004H75.244V8.69076L75.1609 8.74354L78.1812 13.6489H79.1228V7.49316H78.1702V11.0798L78.2027 12.2294L78.3008 12.2267V12.1274H78.2682V12.2267L78.3514 12.174L75.4631 7.49316H74.3906V13.6489H74.4887V13.5496M105.241 30.4282H107.071V18.0163H105.241L105.241 30.4282ZM121.722 22.4873L119.624 27.8685H119.562L117.385 22.4873H115.414L118.678 30.0085L116.817 34.1921H118.726L123.757 22.4873L121.722 22.4873ZM111.345 29.0184C110.745 29.0184 109.91 28.7151 109.91 27.9643C109.91 27.0063 110.951 26.639 111.849 26.639C112.654 26.639 113.032 26.8147 113.521 27.0545C113.379 28.204 112.401 29.0184 111.345 29.0184ZM111.566 22.2158C110.241 22.2158 108.869 22.8068 108.301 24.1162L109.925 24.8026C110.272 24.1162 110.919 23.8924 111.597 23.8924C112.543 23.8924 113.505 24.4675 113.521 25.4895V25.6171C113.19 25.4255 112.481 25.1381 111.613 25.1381C109.862 25.1381 108.08 26.1119 108.08 27.9324C108.08 29.5932 109.515 30.6632 111.123 30.6632C112.354 30.6632 113.032 30.1043 113.458 29.4497H113.521V30.4076H115.287V25.6488C115.287 23.4456 113.663 22.2158 111.566 22.2158ZM100.257 23.9982H97.655V19.7437H100.257C101.625 19.7437 102.402 20.8905 102.402 21.8709C102.402 22.8328 101.625 23.9982 100.257 23.9982ZM100.21 18.0163H95.8261V30.4282H97.6549V25.7257H100.21C102.238 25.7257 104.232 24.2391 104.232 21.8709C104.232 19.5029 102.238 18.0163 100.21 18.0163ZM76.3024 29.0207C75.0383 29.0207 73.9799 27.9491 73.9799 26.4773C73.9799 24.99 75.0383 23.9021 76.3024 23.9021C77.5504 23.9021 78.5298 24.99 78.5298 26.4773C78.5298 27.9491 77.5504 29.0207 76.3024 29.0207ZM78.4034 23.1823H78.3402C77.9296 22.6866 77.1393 22.2387 76.1442 22.2387C74.0589 22.2387 72.1475 24.0941 72.1475 26.4773C72.1475 28.8447 74.0588 30.6842 76.1442 30.6842C77.1393 30.6842 77.9296 30.2362 78.3402 29.7246H78.4034V30.3324C78.4034 31.9481 77.5504 32.8118 76.176 32.8118C75.0544 32.8118 74.3592 31.9958 74.0745 31.3081L72.4793 31.9799C72.9374 33.0995 74.1539 34.4753 76.176 34.4753C78.3245 34.4753 80.1413 33.1954 80.1413 30.0764V22.4947H78.4034V23.1823ZM81.4049 30.4282H83.2375V18.0158H81.4049V30.4282ZM85.939 26.3334C85.8916 24.7018 87.187 23.8702 88.119 23.8702C88.8462 23.8702 89.462 24.2379 89.667 24.7662L85.939 26.3334ZM91.6262 24.9259C91.2791 23.9819 90.22 22.2387 88.0558 22.2387C85.9073 22.2387 84.1223 23.9502 84.1223 26.4614C84.1223 28.8288 85.8916 30.6842 88.2611 30.6842C90.173 30.6842 91.2791 29.5004 91.737 28.8128L90.3151 27.8529C89.8415 28.5568 89.1934 29.0207 88.2611 29.0207C87.3291 29.0207 86.6658 28.5887 86.239 27.7412L91.8155 25.4057L91.6262 24.9259ZM47.197 23.5344V25.3258H51.4307C51.3044 26.3334 50.9726 27.0691 50.467 27.581C49.8511 28.2051 48.8874 28.8927 47.197 28.8927C44.5903 28.8927 42.5525 26.7654 42.5525 24.1262C42.5525 21.487 44.5903 19.3594 47.197 19.3594C48.6031 19.3594 49.6297 19.9194 50.3881 20.6392L51.6361 19.3757C50.5777 18.3517 49.1716 17.568 47.197 17.568C43.6266 17.568 40.625 20.5112 40.625 24.1262C40.625 27.7412 43.6266 30.6842 47.197 30.6842C49.1245 30.6842 50.5777 30.0446 51.715 28.8447C52.8841 27.661 53.2476 25.9976 53.2476 24.6541C53.2476 24.2379 53.2161 23.8544 53.1526 23.5344H47.197ZM58.061 29.0207C56.7969 29.0207 55.7067 27.965 55.7067 26.4614C55.7067 24.9418 56.7969 23.9021 58.061 23.9021C59.3246 23.9021 60.4147 24.9418 60.4147 26.4614C60.4147 27.965 59.3246 29.0207 58.061 29.0207ZM58.061 22.2387C55.7542 22.2387 53.8742 24.0141 53.8742 26.4614C53.8742 28.8927 55.7542 30.6842 58.061 30.6842C60.3672 30.6842 62.2472 28.8927 62.2472 26.4614C62.2472 24.0141 60.3672 22.2387 58.061 22.2387ZM67.1935 29.0207C65.9299 29.0207 64.8396 27.965 64.8396 26.4614C64.8396 24.9418 65.9299 23.9021 67.1935 23.9021C68.4572 23.9021 69.5473 24.9418 69.5473 26.4614C69.5473 27.965 68.4571 29.0207 67.1935 29.0207ZM67.1935 22.2387C64.8868 22.2387 63.0072 24.0141 63.0072 26.4614C63.0072 28.8927 64.8868 30.6842 67.1935 30.6842C69.4999 30.6842 71.3799 28.8927 71.3799 26.4614C71.3799 24.0141 69.4998 22.2387 67.1935 22.2387Z" fill="#FFF1C3"/>
<path d="M10.6847 8.19925C10.3556 8.49987 10.1592 9.00128 10.1592 9.66685V9.51639V31.4795V31.3348C10.1592 31.9495 10.3277 32.4242 10.613 32.7299L10.6858 32.8005V32.8008C10.9168 33.0118 11.2129 33.1238 11.5523 33.1235C11.884 33.1235 12.2571 33.0164 12.6509 32.7904L26.8845 24.602L31.7736 21.789C32.3946 21.4319 32.7432 20.9711 32.8014 20.5018V20.4999C32.7432 20.0295 32.3946 19.569 31.7737 19.2119L26.8841 16.3992L12.6509 8.21086C12.2563 7.9844 11.8829 7.87695 11.5504 7.87695C11.2114 7.87695 10.9156 7.98864 10.6848 8.19925H10.6847Z" fill="#00C1FF"/>
<path d="M10.6859 32.8008L10.613 32.7302C10.3277 32.4245 10.1592 31.9498 10.1592 31.3351V31.4798V9.52216V9.66718C10.1592 9.00161 10.3556 8.5002 10.6847 8.19958L22.8341 20.5006L10.6859 32.8008Z" fill="url(#paint0_linear_247_3136)"/>
<path d="M26.8843 24.6025L22.834 20.5009L26.884 16.3998L31.7735 19.2124C32.3944 19.5696 32.743 20.03 32.8013 20.5005V20.5023C32.743 20.9717 32.3944 21.4325 31.7735 21.7896L26.8844 24.6025" fill="url(#paint1_linear_247_3136)"/>
<path d="M11.552 33.124C11.2126 33.1243 10.9165 33.0122 10.6855 32.8013V32.801L22.8338 20.5008L26.8842 24.6025L12.6505 32.7909C12.2567 33.017 11.8836 33.124 11.552 33.124Z" fill="url(#paint2_linear_247_3136)"/>
<path d="M22.8341 20.501L10.6846 8.19998C10.9155 7.98936 11.2113 7.87768 11.5502 7.87768C11.8828 7.87768 12.2562 7.98508 12.6508 8.21158L26.884 16.4L22.834 20.501" fill="url(#paint3_linear_247_3136)"/>
<path d="M11.5529 33.2695C11.2136 33.2695 10.917 33.1574 10.6861 32.9465L10.6857 32.9468C10.6847 32.9459 10.6837 32.945 10.6826 32.9442L10.6195 32.8817C10.6175 32.8797 10.6156 32.8774 10.6133 32.8752L10.6861 32.8014C10.9171 33.0124 11.2132 33.1245 11.5526 33.1241C11.8842 33.1241 12.2573 33.0171 12.6511 32.791L26.8847 24.6026L26.9759 24.695L26.8836 24.7481L12.6511 32.936C12.2922 33.142 11.9509 33.2494 11.6425 33.2673C11.6127 33.2687 11.5828 33.2695 11.5529 33.2695Z" fill="url(#paint4_linear_247_3136)"/>
<path d="M10.613 32.875C10.3277 32.5693 10.1592 32.095 10.1592 31.48V31.3353C10.1592 31.95 10.3277 32.4246 10.613 32.7303L10.6858 32.8009L10.613 32.875Z" fill="url(#paint5_linear_247_3136)"/>
<path d="M26.976 24.6943L26.8848 24.6019L31.7739 21.789C32.3949 21.4319 32.7434 20.9711 32.8017 20.5018C32.8017 20.674 32.7637 20.8462 32.6884 21.0138C32.5362 21.3516 32.2314 21.6707 31.774 21.9341L26.976 24.6943" fill="url(#paint6_linear_247_3136)"/>
<path d="M32.8011 20.5C32.7429 20.0296 32.3943 19.5692 31.7734 19.212L26.8838 16.3994L26.975 16.307H26.9754L31.7734 19.0673C32.4579 19.4613 32.8007 19.9806 32.8011 20.5Z" fill="url(#paint7_linear_247_3136)"/>
<path d="M10.1592 9.66699V9.51528C10.1592 9.46057 10.1606 9.40707 10.1634 9.35513V9.35277C10.1634 9.35205 10.1634 9.3513 10.1637 9.35049V9.34465C10.1932 8.81521 10.3556 8.40224 10.613 8.12648L10.6847 8.19935C10.3556 8.50001 10.1592 9.00142 10.1592 9.66699Z" fill="url(#paint8_linear_247_3136)"/>
<path d="M26.8843 16.3994L12.6511 8.21094C12.2565 7.98449 11.8832 7.87709 11.5506 7.87709C11.2116 7.87709 10.9159 7.98877 10.685 8.19939L10.6133 8.12647C10.6357 8.10248 10.6589 8.07933 10.683 8.05709C10.6838 8.05628 10.685 8.05548 10.6857 8.05472C10.9148 7.84572 11.2074 7.73403 11.5434 7.73202H11.5506C11.8832 7.73202 12.2565 7.83947 12.6511 8.06601L26.9759 16.3067L26.9755 16.307L26.8843 16.3994Z" fill="url(#paint9_linear_247_3136)"/>
<defs>
<linearGradient id="paint0_linear_247_3136" x1="17.9234" y1="9.29009" x2="7.33999" y2="19.7766" gradientUnits="userSpaceOnUse">
<stop stop-color="#00A0FF"/>
<stop offset="0.00657" stop-color="#00A1FF"/>
<stop offset="0.2601" stop-color="#00BEFF"/>
<stop offset="0.5122" stop-color="#00D2FF"/>
<stop offset="0.7604" stop-color="#00DFFF"/>
<stop offset="1" stop-color="#00E3FF"/>
</linearGradient>
<linearGradient id="paint1_linear_247_3136" x1="33.5578" y1="20.43" x2="9.83023" y2="20.43" gradientUnits="userSpaceOnUse">
<stop stop-color="#FFE000"/>
<stop offset="0.4087" stop-color="#FFBD00"/>
<stop offset="0.7754" stop-color="#FFA500"/>
<stop offset="1" stop-color="#FF9C00"/>
</linearGradient>
<linearGradient id="paint2_linear_247_3136" x1="24.7338" y1="24.4005" x2="6.80079" y2="42.0395" gradientUnits="userSpaceOnUse">
<stop stop-color="#FF3A44"/>
<stop offset="1" stop-color="#C31162"/>
</linearGradient>
<linearGradient id="paint3_linear_247_3136" x1="7.55331" y1="6.37629" x2="15.5458" y2="14.2498" gradientUnits="userSpaceOnUse">
<stop stop-color="#32A071"/>
<stop offset="0.0685" stop-color="#2DA771"/>
<stop offset="0.4762" stop-color="#15CF74"/>
<stop offset="0.8009" stop-color="#06E775"/>
<stop offset="1" stop-color="#00F076"/>
</linearGradient>
<linearGradient id="paint4_linear_247_3136" x1="24.7255" y1="27.2458" x2="10.3628" y2="41.4772" gradientUnits="userSpaceOnUse">
<stop stop-color="#CC2E36"/>
<stop offset="1" stop-color="#9C0E4E"/>
</linearGradient>
<linearGradient id="paint5_linear_247_3136" x1="11.7777" y1="9.29021" x2="2.45382" y2="18.5288" gradientUnits="userSpaceOnUse">
<stop stop-color="#008DE0"/>
<stop offset="0.00657" stop-color="#008DE0"/>
<stop offset="0.2601" stop-color="#00A7E0"/>
<stop offset="0.5122" stop-color="#00B8E0"/>
<stop offset="0.7604" stop-color="#00C4E0"/>
<stop offset="1" stop-color="#00C7E0"/>
</linearGradient>
<linearGradient id="paint6_linear_247_3136" x1="33.5583" y1="20.5008" x2="9.83063" y2="20.5008" gradientUnits="userSpaceOnUse">
<stop stop-color="#E0C500"/>
<stop offset="0.4087" stop-color="#E0A600"/>
<stop offset="0.7754" stop-color="#E09100"/>
<stop offset="1" stop-color="#E08900"/>
</linearGradient>
<linearGradient id="paint7_linear_247_3136" x1="33.5577" y1="20.501" x2="9.83013" y2="20.501" gradientUnits="userSpaceOnUse">
<stop stop-color="#FFE840"/>
<stop offset="0.4087" stop-color="#FFCE40"/>
<stop offset="0.7754" stop-color="#FFBC40"/>
<stop offset="1" stop-color="#FFB540"/>
</linearGradient>
<linearGradient id="paint8_linear_247_3136" x1="11.7677" y1="9.30677" x2="2.79144" y2="17.8155" gradientUnits="userSpaceOnUse">
<stop stop-color="#40B8FF"/>
<stop offset="0.00657" stop-color="#40B9FF"/>
<stop offset="0.2601" stop-color="#40CEFF"/>
<stop offset="0.5122" stop-color="#40DDFF"/>
<stop offset="0.7604" stop-color="#40E7FF"/>
<stop offset="1" stop-color="#40EAFF"/>
</linearGradient>
<linearGradient id="paint9_linear_247_3136" x1="7.53596" y1="8.97713" x2="13.9496" y2="15.3321" gradientUnits="userSpaceOnUse">
<stop stop-color="#65B895"/>
<stop offset="0.0685" stop-color="#62BD95"/>
<stop offset="0.4762" stop-color="#50DB97"/>
<stop offset="0.8009" stop-color="#44ED98"/>
<stop offset="1" stop-color="#40F498"/>
</linearGradient>
</defs>
</svg>
