<svg width="332" height="332" viewBox="0 0 332 332" fill="none" xmlns="http://www.w3.org/2000/svg">
<g clip-path="url(#clip0_18_4717)">
<rect width="332" height="332" fill="#FFF1C3"/>
<path d="M84.5955 201.157C82.9931 184.208 87.2687 166.016 98.8797 153.328C98.7509 141.972 98.5898 130.632 101.915 119.679C99.1374 117.387 96.5688 114.933 94.7168 111.818C91.0773 105.7 89.4106 97.3946 99.6607 100.47C97.8732 96.6117 95.055 92.2049 94.6444 87.8868C93.9438 80.5098 98.2919 77.3539 104.677 81.5025C103.453 76.3531 101.73 70.106 102.922 64.8275C103.453 62.4627 104.572 60.9937 107.165 61.3811C109.758 61.7685 117.866 71.5427 120.515 73.956C122.142 75.4411 131.394 83.1571 132.779 83.375C140.162 80.3645 147.626 77.2248 155.678 76.458C154.632 73.7381 155.976 68.0237 159.648 68.7824C160.96 69.0568 161.347 70.558 162.635 70.6468C163.183 63.9397 170.502 63.7137 171.138 70.6468C176.308 66.2884 180.639 69.9446 178.087 76.0626C186.751 77.2813 195.318 79.63 203.072 83.7382C204.143 83.8028 214.82 74.9568 216.342 73.5524C219.329 70.8002 225.924 62.4223 229.088 61.5264C229.483 61.4134 229.821 61.3246 230.24 61.3488C231.858 61.4295 232.1 62.5514 232.945 63.2859C233.275 63.7379 233.404 64.1253 233.332 64.4482C233.541 64.4966 233.734 64.5692 233.871 64.6984C235.852 66.6354 233.412 77.4104 232.567 80.2757L231.786 80.7116C231.721 81.0425 231.85 81.1716 232.172 81.099C232.373 79.2749 236.995 78.7583 238.549 79.3072C246.078 81.9545 240.949 94.8038 238.123 99.5416C245.675 97.8143 246.126 103.553 243.888 109.267C242.084 113.86 238.831 116.87 235.369 120.075C238.042 132.682 239.161 145.717 238.743 159.179C247.447 166.355 254.017 175.467 256.859 186.589L256.513 188.365C258.462 196.517 258.784 205.427 256.787 213.611C256.199 216 254.299 221.456 252.262 222.829C252.286 223.192 252.278 223.595 252.02 223.821C249.653 225.96 245.756 222.74 244.258 221.158C242.905 229.116 233.589 242.974 228.283 228.947C226.02 233.329 223.122 237.147 219.603 240.391C209.417 245.985 210.327 232.506 212.252 226.436C215.996 214.564 219.007 204.128 218.717 191.537C218.291 189.244 218.395 187.154 219.031 185.265C218.258 184.773 217.976 183.667 218.186 181.94L215.996 171.787C216.149 170.277 217.654 169.632 218.87 170.544C220.344 171.657 221.954 188.09 222.002 189.131C222.647 202.57 219.981 214.523 215.464 226.743C209.989 249.746 223.919 233.232 227.824 223.03C230.103 220.891 231.222 222.231 231.182 227.042C235.047 240.835 242.092 220.375 242.591 215.476C244.556 213.74 246.102 215.008 247.221 219.285C251.336 225.855 254.629 213.539 255.144 210.544C258.422 191.383 251.561 172.4 235.844 160.551C235.643 151.165 235.2 141.794 234.523 132.44C232.567 102.375 206.261 82.0756 177.902 78.3871C176.372 81.3411 172.982 81.6397 174.375 77.6606C177.878 72.2772 176.211 67.8703 171.525 74.7308C170.494 75.3684 169.439 75.0133 169.101 73.843C168.127 65.1584 165.494 66.8534 164.342 73.7542C163.899 75.0294 162.7 75.2554 161.717 74.3918C156.934 66.5789 157.651 76.1998 159.157 79.743C158.738 82.5114 155.711 81.2685 155.501 78.8471C148.327 80.1062 140.863 82.237 134.163 85.6027C124.461 90.4938 118.1 97.2494 110.885 105.103L111.272 105.49C119.259 94.2469 136.048 92.8586 147.642 99.1784C155.904 103.682 160.043 110.018 162.901 118.791C163.368 120.236 164.028 123.247 163.424 124.465C163.424 125.587 162.007 126.322 161.105 125.628L160.365 124.627C158.641 92.6488 112.471 89.2024 105.772 120.833C99.5077 150.382 140.243 167.557 156.451 140.971C156.83 139.679 157.482 138.824 158.408 138.412C159.584 138.501 160.582 141.592 159.567 142.286C144.236 167.42 105.829 159.454 102.342 130.01C101.368 138.065 100.965 146.153 101.15 154.288C97.0841 159.486 92.5669 166.161 93.9116 172.989C93.9358 174.902 93.1709 176.613 91.6007 178.13C88.7342 183.885 90.715 203.014 92.2449 209.56C92.8327 212.086 94.5155 217.259 97.6155 216.694C99.54 208.946 102.286 213.595 103.131 218.47C105.635 224.975 106.432 224.499 111.739 219.81L112.753 219.753C119.211 222.635 119.461 216.283 119.517 211.545C118.156 195.774 118.068 179.955 119.243 164.087C119.114 161.73 122.021 161.141 122.577 163.263C121.216 179.737 121.304 196.492 122.867 213.531C122.625 214.322 122.238 214.838 121.707 215.08C122.891 215.411 122.641 218.22 121.321 218.18C122.327 218.672 122.069 219.737 120.934 219.729C122.045 221.408 118.317 223.272 116.618 223.555L117.069 224.378C115.29 225.936 111.94 226.743 109.726 225.928C108.679 225.807 107.262 225.678 105.474 225.54C104.548 226.509 102.092 224.798 102.769 223.603C101.65 224.136 101.271 222.917 101.996 222.054C100.716 222.28 99.8781 219.778 100.836 218.954C99.6366 219.164 99.7413 218.059 100.45 217.405C100.079 217.332 99.8862 217.534 99.6768 217.792L100.104 218.623C99.8298 219.213 97.0116 222.53 96.1984 222.433C94.741 222.82 93.807 222.837 92.4542 222.118C87.1963 219.358 85.1269 206.549 84.6116 201.133L84.5955 201.157Z" fill="#CC6015"/>
<path d="M219.039 185.281C220.673 201.811 218.419 208.082 213.91 223.321C212.791 227.106 208.716 241.319 216.108 241.021C221.012 240.827 226.149 230.835 228.508 227.106C233.122 243.345 242.897 227.937 243.767 219.358L247.994 223.442C249.121 223.878 251.311 223.482 252.269 222.844C255.337 226.105 260.007 229.899 256.521 234.653C245.892 244.411 234.998 253.943 223.959 263.192C222.284 263.87 220.714 263.757 219.047 263.111C218.193 263.943 217.308 263.555 217.501 262.337C216.664 262.619 215.923 262.232 215.295 261.182C214.159 260.061 211.784 257.567 212.09 256.138C210.761 256.324 209.787 255.089 210.158 253.813C205.479 250.23 201.518 245.758 198.571 240.649C192.033 234.935 186.219 228.244 181.573 220.899C179.721 221.174 179.761 215.395 181.187 214.701C181.283 213.361 182.064 212.223 183.538 211.27C185.18 209.414 186.976 208.236 188.916 207.727L189.714 207.428C191.872 209.592 192.604 209.801 195.028 207.889C199.191 204.604 203.78 200.342 207.605 196.541C208.402 195.75 207.331 193.869 206.591 193.247L206.695 192.247C206.534 190.883 208.797 188.348 210.174 188.76C210.898 186.016 217.115 182.311 219.055 185.273L219.039 185.281Z" fill="#01696E"/>
<path d="M199.336 278.996L199.771 279.755C198.419 282.281 200.351 285.453 203.298 284.315C210.496 279.771 215.078 281.135 221.359 286.519C225.473 289.19 228.114 284.751 225.32 281.377L225.602 280.554C225.602 280.054 226.093 280.191 226.375 280.554C227.245 280.506 228.267 280.643 229.08 280.942C232.269 281.385 245.233 282.822 246.883 284.985C248.534 287.148 243.357 288.198 241.915 288.577C231.536 291.281 216.592 291.967 205.714 292.556C182.17 293.831 158.239 293.541 134.832 292.556C134.888 291.644 135.476 290.764 136.587 289.917C140.026 284.695 142.183 282.031 148.963 282.612C152.627 283.879 157.523 284.646 156.323 278.9L156.846 278.23L157.128 277.463C171.042 277.713 184.964 277.971 198.886 278.222L199.344 279.004L199.336 278.996Z" fill="#244B64"/>
<path d="M122.842 213.547C123.035 213.256 123.333 212.974 123.647 213.063C127.995 214.322 129.356 217.348 130.29 221.521C130.491 221.255 130.974 221.303 131.731 221.682C132.722 220.318 136.297 219.931 138.173 219.762C144.638 219.18 147.642 220.883 149.091 227.195C151.048 235.751 152.594 244.371 153.898 253.047C153.93 253.281 153.85 253.539 153.761 253.806C153.673 254.072 153.52 254.338 153.367 254.597C155.09 256.857 155.935 262.603 153.367 264.274C153.496 264.524 153.632 264.823 153.528 265.073C152.191 268.229 146.812 268.955 143.809 269.343C142.247 269.544 140.637 269.649 139.066 269.69C138.624 270.666 138.35 270.666 137.907 269.69C137.907 270.836 136.586 271.03 135.975 270.077C122.278 271.861 108.654 276.009 94.9255 277.349C91.9705 276.574 89.7562 274.71 88.951 271.716C85.9878 260.723 85.3115 247.841 82.6865 236.638C82.7912 234.524 84.5787 231.691 86.3904 230.641C88.2504 229.56 95.5133 228.979 96.0206 228.285C96.399 227.768 95.3603 224.362 96.1816 222.449C96.705 221.231 98.7583 219.745 99.6601 217.8C99.9097 217.163 100.167 217.034 100.433 217.413C100.546 217.687 100.634 218.43 100.82 218.963V219.899C98.6294 220.714 96.3024 228.583 99.958 227.042C99.5152 225.298 99.6843 221.166 101.979 222.062C102.221 222.514 102.47 223.264 102.752 223.612L103.098 226.315C104.652 225.984 106.214 226.089 107.776 226.315C108.058 225.565 109.121 225.419 109.709 225.928C112.165 225.492 114.613 224.83 117.052 224.378C118.405 223.369 120.209 222.837 122.463 222.796C122.343 221.658 121.827 220.633 120.917 219.729C120.958 219.657 121.223 218.502 121.304 218.18C123.478 215.904 125.418 219.979 125.652 222.183C128.76 222.231 125.748 217.437 124.025 216.654C122.85 216.347 122.069 215.823 121.69 215.08C121.795 213.813 121.191 213.313 122.85 213.531L122.842 213.547Z" fill="#B71918"/>
<path d="M125.547 279.383L125.829 280.206C122.053 284.048 126.377 288.221 130.29 284.565L131.345 284.807C131.586 284.92 131.578 285.049 131.345 285.194L131.892 285.912C130.95 288.043 130.209 290.126 132.52 291.619L132.504 292.555C120.008 291.974 101.641 291.829 89.9254 288.188C85.4485 286.8 83.9187 285.347 89.3215 283.539C91.0608 282.958 93.1462 282.571 94.9579 282.224C104.838 280.335 115.523 279.883 125.547 279.391V279.383Z" fill="#244B64"/>
<path d="M137.908 269.698C138.206 269.723 138.657 269.795 138.689 270.005C138.826 270.925 139.003 276.769 138.6 277.124C132.771 277.245 128.423 279.287 125.54 283.25C126.192 283.629 126.836 283.896 127.481 284.049C129.268 283.056 131.039 281.999 132.787 280.877C137.095 278.851 137.594 283.976 134.043 284.412L133.463 286.85C131.909 288.779 132.489 289.901 135.202 290.223C137.143 281.967 145.517 278.916 153.271 281.523C153.996 281.724 155.22 281.224 154.922 280.336C153.996 277.6 146.725 277.794 144.277 277.939C142.32 277.681 143.27 272.2 143.649 270.53L144.478 270.078C144.752 268.964 145.517 269.085 146.024 270.078C147.272 270.481 146.846 275.05 145.638 275.502C146.137 274.242 150.63 274.299 151.242 275.502C151.282 275.195 151.443 274.743 151.644 274.767C152.965 274.937 157.587 276.648 156.838 278.213C158.303 280.78 156.629 284.372 153.553 284.356C151.298 284.348 149.358 282.862 145.871 283.29C139.124 284.113 139.462 289.473 134.816 292.54C134.043 292.507 133.27 292.572 132.497 292.54C129.083 290.256 130.105 288.343 131.337 285.179C131.603 284.775 131.603 284.646 131.337 284.791C129.163 286.131 127.247 288.052 124.751 285.776C122.488 283.71 123.712 281.168 125.54 279.368C128.221 276.736 132.634 275.251 136.354 275.106L135.975 270.078C136.611 269.997 137.417 269.706 137.908 269.69V269.698Z" fill="#BA5E17"/>
<path d="M216.333 266.212C216.647 267.1 217.058 271.167 217.461 271.466C217.911 271.797 221.575 271.175 222.718 271.232C224.804 271.337 229.869 272.733 231.229 274.315C233.081 276.47 231.898 280.175 229.08 280.538C228.274 280.877 227.067 280.675 226.374 280.151C226.052 280.498 225.376 280.215 225.215 279.763C224.925 279.505 224.796 279.505 224.828 279.763C225.376 279.933 225.633 280.191 225.601 280.538C228.323 283.226 227.743 288.415 223.226 288.068C220.238 287.842 216.092 282.201 211.462 282.128C207.5 282.063 203.676 286.39 200.793 285.082C198.458 284.025 197.902 281.014 199.336 278.988C199.094 278.73 198.885 278.286 199.094 278.084C201.324 275.962 204.682 274.904 207.565 274.025C206.872 272.79 206.84 271.862 207.452 271.24C206.284 269.884 209.272 268.964 208.998 270.853C210.52 271.498 212.718 275.768 210.31 276.688L204.956 278.464C198.144 281.135 200.89 285.098 206.969 280.498C213.467 278.133 217.565 281.216 222.437 285.034L222.525 285.946L223.258 285.381C225.996 285.308 224.74 283.21 223.202 282.039L222.131 280.134L221.269 280.401C215.584 274.065 225.327 276.543 228.411 278.222C229.023 277.681 229.635 277.156 230.239 276.648C228.91 275.106 226.889 274.396 224.965 273.928L224.643 273.161C224.82 274.138 219.288 273.912 219.095 273.678C218.974 273.532 218.902 273.355 218.845 273.161C219.168 274.234 216.076 274.751 215.488 274.412C215.166 274.226 213.636 267.834 214.787 267.35C214.095 266.454 215.528 265.445 216.333 266.187V266.212Z" fill="#BA5E17"/>
<path d="M181.565 259.633C183.361 259.827 185.132 259.867 186.896 259.754C194.706 269.173 207.066 272.781 216.1 262.692L217.493 262.345C217.799 262.587 218.637 262.966 219.039 263.12C218.242 263.959 217.147 265.541 216.334 266.219C216.1 266.413 215.102 267.155 214.788 267.381C214.86 268.608 213.556 269.698 212.469 268.931L212.292 269.851C211.196 270.311 210.101 270.642 208.99 270.86C208 269.996 207.533 271.223 207.444 271.248C206.349 272.151 203.499 271.982 201.872 271.845C194.207 271.207 189.666 266.913 184.456 261.958C176.637 261.958 168.795 261.715 161.017 261.312C157.184 265.541 152.449 269.278 146.813 270.739L146.024 270.093C145.541 270.158 144.985 270.061 144.478 270.093C143.6 271.32 141.177 271.264 140.226 270.093C139.671 271.102 138.994 270.852 139.067 269.706C142.69 268.1 148.56 268.77 151.628 266.227C152.328 265.646 152.602 264.621 153.359 264.282C154.945 262.837 156.717 261.126 158.673 259.165L159.922 258.866C160.469 258.56 161.049 258.301 161.685 258.277C164.229 258.164 179.657 258.511 180.744 259.076C181.034 259.23 181.3 259.431 181.557 259.641L181.565 259.633Z" fill="#CC6115"/>
<path d="M229.08 280.546V280.933C228.001 280.78 227.542 280.836 226.375 280.546C226.036 280.433 226.045 280.303 226.375 280.158C227.373 280.4 227.913 280.699 229.08 280.546Z" fill="#D6BA8A"/>
<path d="M233.718 64.0776L233.331 64.465C233.283 64.239 232.76 63.7951 232.945 63.3027C233.267 63.5772 233.484 63.8758 233.718 64.0776Z" fill="#7A706F"/>
<path d="M110.869 105.119C119.203 93.3751 128.559 86.1756 142.247 81.3894C143.93 80.8003 155.412 77.5476 156.048 78.0157C156.153 78.0883 156.346 79.751 157.015 80.3725C157.385 80.7115 158.311 80.3967 158.367 80.316C158.641 79.9609 157.272 76.2481 157.208 75.1182C157.095 73.1569 157.232 69.6056 159.921 70.8485C161.137 71.4054 161.765 74.529 163.207 74.1335C164.084 73.8913 164.052 67.386 166.709 67.1438C169.697 66.8694 169.463 73.6573 170.011 74.0931C171.484 75.2634 172.442 71.2359 174.109 70.7274C177.306 69.7589 177.273 72.0673 176.758 74.5451C176.517 75.6993 173.57 79.5976 175.196 79.9447C176.227 80.1626 176.855 77.6767 177.853 77.6444C203.998 81.228 226.793 96.8215 233.605 123.238C236.705 135.273 235.892 147.896 236.48 160.245C246.239 167.622 253.035 177.84 255.547 189.93C257.173 197.768 257.23 209.681 254.097 217.146C253.244 219.172 251.255 222.974 248.501 221.787C246.134 220.762 245.313 215.903 244.878 215.548C244.725 215.427 243.557 215.427 243.42 215.54C243.227 215.694 242.486 219.519 242.229 220.351C241.254 223.474 238.46 232.28 234.668 232.53C230.489 232.804 230.006 225.807 230.247 222.861L228.766 222.933C226.616 227.235 223.967 232.433 220.786 236.041C219.273 237.76 215.649 241.295 213.942 237.857C211.494 232.917 216.865 220.722 218.371 215.419C221.793 203.417 222.123 190.947 220.086 178.639C219.917 177.638 218.58 171.197 218.258 170.979C217.936 170.761 216.865 171.044 216.752 171.585C216.64 172.125 218.749 180.358 218.983 182.061C219.136 183.135 218.942 184.369 219.039 185.306C218.33 185.338 217.59 184.894 216.913 184.918C214.747 184.999 211.792 187.372 210.15 188.792L209.377 188.001C209.393 178.332 203.62 166.782 192.307 169.551L191.219 169.034C190.551 168.534 190.43 167.525 190.865 165.999C186.686 167.25 182.467 168.493 178.079 168.647L177.024 168.501C172.764 163.223 164.64 164.03 160.163 168.614L159.148 168.647L158.512 169.276L146.45 165.975L147.135 169.615L146.402 170.196L145.452 170.358C135.202 163.965 129.292 174.046 127.714 183.482C125.62 195.976 128.076 209.818 131.723 221.707C131.353 221.755 130.644 222.57 129.759 221.925C129.123 218.962 128.293 216.557 125.668 214.798C124.758 214.184 123.615 213.999 122.834 213.571C122.601 213.442 122.109 213.135 122.061 212.909C121.514 199.535 120.306 186.113 120.885 172.707C120.942 171.351 122.142 163.288 121.675 162.844C121.578 162.747 120.507 162.908 120.137 162.844C118.848 173.869 119.009 184.894 119.348 195.968C119.533 202.11 120.612 208.389 120.153 214.556C120.008 216.436 119.501 219.681 117.785 220.706C115.104 222.312 113.453 220.181 111.916 220.601C110.176 221.077 108.864 225.484 105.16 223.741C102.728 222.602 101.311 213.958 100.764 213.627C98.7103 212.368 98.7425 216.945 98.0581 217.389C95.868 218.809 93.3719 215.121 92.6311 213.442C89.5955 206.581 88.1703 184.595 90.8677 177.848C91.2864 176.799 92.6713 176.121 92.9934 174.563C93.3799 172.707 92.7035 171.221 92.7921 169.712C93.0659 164.982 97.116 157.533 100.417 154.119C100.208 144.054 100.619 134.013 102.358 124.118C103.026 124.029 102.72 124.998 102.744 125.466C102.994 132.302 104.129 137.702 107.994 143.441C120.257 161.673 147.972 160.874 158.762 141.738L159.535 142.311C159.889 142.222 160.187 142.311 160.413 142.585L162.184 148.09C167.257 161.262 173.497 150.115 175.236 141.907L176.146 141.544L177.475 142.23C189.432 160.858 218.041 160.204 228.234 140.115C237.132 122.585 228.049 103.157 209.361 98.1855C191.034 93.3105 175.921 105.433 172.901 123.594L171.887 124.498L171.194 125.127C168.851 124.691 166.419 124.691 164.076 125.127L163.384 124.498C162.587 122.657 162.563 120.623 162.031 118.694C155.751 96.0305 127.689 88.4356 111.231 105.522C110.692 106.039 110.49 105.821 110.845 105.135L110.869 105.119Z" fill="#EE7E0B"/>
<path d="M161.089 125.644L161.017 126.653C157.426 129.324 158.199 133.844 159.028 137.678L158.392 138.421C155.654 146.766 146.064 153.191 137.626 154.587C113.704 158.534 95.8282 132.077 108.784 111.35C117.52 97.3786 136.136 93.5852 149.64 103.254C156.532 108.186 161.556 117.032 161.098 125.652L161.089 125.644Z" fill="#F49935"/>
<path d="M102.752 117.904C99 115.797 91.8821 106.233 94.0722 102.036C94.8371 100.575 97.454 101.584 98.7101 102.012C99.5395 102.294 102.833 104.482 103.139 102.988C100.836 99.3563 92.3571 84.1583 98.2029 81.4061C101.858 79.6869 107.02 86.055 108.155 84.9896C106.488 80.4052 104.612 75.8127 104.298 70.857C104.137 68.3066 104.773 67.0071 107.672 68.2501C112.656 70.3889 114.951 86.8218 114.717 91.7694C114.379 98.9205 112.954 98.525 109.613 103.691C106.778 108.073 104.105 112.835 102.744 117.912L102.752 117.904Z" fill="#EE7E0B"/>
<path d="M231.729 68.3954C232.704 69.937 230.425 79.0332 229.652 81.1075C229.362 81.8823 227.832 84.3521 227.921 84.7879C228.291 86.6362 231.6 83.3916 232.293 82.98C234.113 81.8985 236.367 80.7039 238.38 82.0599C242.615 84.9251 237.655 95.0302 235.852 98.5492C235.425 99.3806 231.818 104.126 234.233 103.909C235.651 103.779 242.052 98.8156 242.624 103.368C243.244 108.259 237.575 115.079 233.911 117.896C232.269 114.926 231.174 111.713 229.531 108.735C226.334 102.94 222.188 100.349 221.721 93.3272C221.326 87.3868 223.154 72.2453 228.492 68.7182C229.209 68.242 231.206 67.5721 231.721 68.3873L231.729 68.3954Z" fill="#EE7E0B"/>
<path d="M171.903 124.482C172.58 123.328 174.182 124.466 174.222 125.644C175.768 124.926 177.314 127.323 177.966 128.638C178.675 130.059 178.804 131.625 178.772 133.191C178.739 134.869 178.417 138.582 176.928 139.204C177.491 140.745 177.234 141.52 176.155 141.528C175.084 145.273 173.393 151.496 170.164 153.917C163.843 158.655 160.711 146.419 159.544 142.303C159.205 141.1 158.618 139.567 158.384 138.429C157.402 133.586 156.379 128.832 161.09 125.652C161.693 125.249 162.74 124.675 163.408 124.49C165.671 123.868 169.625 123.86 171.911 124.49L171.903 124.482Z" fill="#BA5E17"/>
<path d="M121.682 215.097C125.66 215.597 128.011 218.939 127.866 222.845C127.15 222.458 125.257 223.337 125.161 223.232C124.686 222.732 124.726 217.607 121.296 218.196C121.602 216.985 121.586 216.275 121.682 215.097Z" fill="#D11718"/>
<path d="M101.98 222.07C99.7978 223.619 100.667 225.71 100.82 227.881C99.7253 227.558 98.2276 228.696 97.8089 227.615C96.5609 224.41 97.9941 220.786 100.82 218.979C101.215 220.1 101.392 220.964 101.98 222.078V222.07Z" fill="#D01718"/>
<path d="M120.91 219.745C123.027 219.89 123.293 221.819 123.229 223.619C121.2 223.886 119.05 224.023 117.045 224.394C116.006 224.418 115.74 224.677 115.885 223.417C115.982 222.586 117.528 222.748 118.72 222.005C119.315 221.634 120.612 220.334 120.91 219.745Z" fill="#ED7D0B"/>
<path d="M105.458 225.556C106.811 225.572 107.584 225.831 107.777 226.331C106.972 226.468 102.616 227.332 102.382 227.098C102.407 225.863 101.448 224.539 102.761 223.619C103.26 224.224 104.701 225.217 105.466 225.556H105.458Z" fill="#FAE5B6"/>
<path d="M105.458 225.556C106.827 226.097 110.032 224.321 109.709 225.944C109.057 226.057 108.421 226.226 107.777 226.331C107.101 225.822 106.376 225.968 105.458 225.556Z" fill="#F0D2A3"/>
<path d="M111.255 105.507C110.675 106.104 110.208 107.105 109.331 107.444C109.234 106.394 110.426 105.749 110.869 105.119L111.255 105.507Z" fill="#E0710F"/>
<path d="M100.433 217.421L99.6602 217.808C99.7487 217.614 99.7809 215.895 100.433 217.421Z" fill="#955235"/>
<path d="M232.172 81.1157L231.979 81.5031C231.383 81.5919 231.319 81.5273 231.407 80.93L231.794 80.7363C231.818 81.035 231.858 81.156 232.18 81.1237L232.172 81.1157Z" fill="#5E554D"/>
<path d="M146.411 170.18L147.425 170.245C150.107 176.662 155.067 181.658 161.114 185.104L162.869 180.1L163.795 179.866C165.639 179.252 165.196 181.754 164.962 183.006C163.698 189.721 160.421 196.815 157.225 202.877C157.257 203.304 157.257 203.765 157.225 204.265C158.344 205.685 156.741 206.485 155.276 206.372C149.35 205.92 152.554 196.396 154.02 193.191C151.419 196.549 149.084 209.729 157.885 205.532L158.762 205.807C161.629 206.985 164.713 209.971 166.106 212.78C166.839 213.991 165.615 216.67 164.954 217.994C163.408 221.077 161.089 225.234 157.45 221.771C155.896 220.294 157.925 222.651 158.481 222.893C161.138 224.072 163.094 221.57 164.415 219.56C164.987 219.043 165.55 219.237 166.082 219.786C167.724 225.541 171.807 225.274 173.071 219.794C173.53 219.076 174.061 219.229 174.786 219.56C176.211 222.07 178.78 224.306 180.656 220.956L181.558 220.908C187.154 227.542 192.871 234.096 198.555 240.658C198.62 240.989 198.668 241.32 198.66 241.643C198.62 244.249 188.885 260.142 186.896 260.263C185.165 259.811 183.385 259.601 181.558 259.633C174.577 259.165 166.919 259.706 159.922 258.858C157.845 260.206 154.261 256.598 153.352 254.597C151.999 246.17 150.268 234.782 148.15 226.703C147.409 223.87 146.676 222.135 143.834 220.956C140.291 219.495 135.605 221.158 131.716 221.683C130.79 221.876 130.878 221.255 130.653 220.633C126.313 208.478 121.643 175.919 135.323 168.566C138.624 166.791 143.77 167.444 146.395 170.18H146.411Z" fill="#F49936"/>
<path d="M210.15 188.768C208.983 189.785 207.896 191.246 206.672 192.255L205.673 192.36C204.49 191.109 203.137 191.303 201.615 192.925C199.2 192.392 197.219 192.982 195.689 194.701L190.608 199.326C190.962 201.537 190.375 203.377 188.829 204.854C189.046 205.984 189.07 206.945 188.893 207.744C186.284 210.012 183.442 212.11 181.163 214.717L180.334 214.515C179.013 211.303 177.322 209.39 179.867 213.975C182.548 225.541 175.639 224.524 173.401 215.436L172.644 220.319C171.267 225.823 167.829 224.871 166.356 219.98C165.921 218.535 165.421 214.096 167.249 213.942C167.684 213.418 167.966 213.45 168.393 213.854L177.113 204.168L178.063 204.265C178.514 202.958 179.456 203.402 180.905 205.597C179.021 203.369 178.546 200.665 178.152 197.897L177.282 196.525L176.259 195.298C175.277 190.601 173.747 185.96 171.783 181.642C171.581 180.552 172.201 178.534 173.425 179.099L174.512 179.592C175.253 181.424 175.849 183.28 176.308 185.177C182.516 181.876 187.83 176.089 190.286 169.446L191.196 169.026C204.023 165.33 210.295 177.776 210.126 188.777L210.15 188.768Z" fill="#F49935"/>
<path d="M210.15 253.822L210.44 254.613C209.079 255.646 204.602 260.279 208.588 258.374C209.828 256.478 210.988 255.735 212.075 256.147C213.451 257.68 216.173 261.304 217.486 262.345C208.838 271.869 199.28 271.708 189.666 263.709C188.764 262.959 186.928 260.562 186.188 260.223C185.825 260.053 182.242 259.682 181.558 259.634C183.055 259.408 186.043 260.118 187.186 259.27C192.017 253.725 195.447 247.277 198.555 240.658C202.38 245.065 206.277 249.456 210.142 253.822H210.15Z" fill="#EE7E0B"/>
<path d="M181.565 220.908C180.285 223.458 178.465 224.314 176.018 222.401C175.092 221.675 174.745 220.375 173.844 219.754C173.441 221.772 172.177 224.814 169.785 224.806C166.194 224.798 165.598 219.754 165.147 219.762C160.622 227.752 153.996 223.507 155.856 215.089C156.025 214.338 157.788 209.148 158.062 208.979C158.48 208.721 159.608 208.583 159.559 209.495C159.39 212.466 154.406 219.722 159.068 221.998C161.717 223.289 163.312 219.552 164.246 217.688L166.106 212.78C167.185 212.304 167.732 212.893 167.265 213.943C166.178 215.904 166.895 223.337 169.785 223.224C172.676 223.111 171.919 214.951 172.918 214.701C173.159 214.637 174.061 214.653 174.182 214.758C174.697 215.177 175.301 221.513 178.312 221.691C180.905 221.844 179.802 216.13 179.263 214.508C179.005 213.725 176.96 210.407 177.314 210.076C178.667 208.809 181.123 213.692 181.179 214.717C181.3 217.236 179.496 217.292 181.565 220.916V220.908Z" fill="#CC6115"/>
<path d="M188.9 207.744C186.372 204.184 189.77 203.232 189.971 202.086C190.116 201.27 189.263 200.399 189.963 198.93C190.148 198.534 195.438 193.869 196.244 193.223C199.287 190.794 199.48 192.699 201.373 192.207C202.065 192.021 202.581 190.786 203.804 190.713C205.028 190.641 205.898 191.488 206.671 192.263C207.935 193.522 209.352 195.217 208.169 197.057C204.61 200.294 201.107 203.716 197.411 206.791C195.632 208.268 193.675 210.811 191.324 209.786C191.074 209.673 189.053 207.953 188.908 207.752L188.9 207.744Z" fill="#8296C9"/>
<path d="M212.082 256.147C210.689 256.566 210.085 258.447 208.748 259.19C208.281 259.448 205.777 260.215 205.52 260.013L206.896 256.946L210.157 253.822C210.818 254.573 211.43 255.404 212.09 256.147H212.082Z" fill="#CC6115"/>
<path d="M226.374 280.158V280.546C226.141 280.489 225.762 280.618 225.601 280.546C225.392 280.449 224.7 280.029 224.828 279.771C224.909 279.505 225.038 279.521 225.215 279.771C225.738 279.795 226.02 280.07 226.374 280.158Z" fill="#F3DFAD"/>
<path d="M97.3413 275.509C94.9418 275.17 93.7099 273.104 93.0979 270.885C91.8901 266.494 90.9641 260.255 90.5938 255.695L91.1574 254.597C94.821 254.71 98.3478 253.37 101.971 253.047L102.825 253.314C103.227 259.642 111.497 258.156 109.774 252.063L110.466 251.498C110.49 251.183 110.522 250.731 110.756 250.65C111.956 250.247 118.333 248.907 119.42 248.915L120.12 249.561L120.982 249.867C120.982 256.139 129.815 255.057 127.576 248.85L128.237 248.011C133.35 246.857 138.978 247.398 142.529 242.975C142.601 248.875 145.476 255.654 145.645 261.361C145.766 265.372 143.366 266.809 139.904 267.64C126.111 270.973 111.231 272.354 97.3333 275.501L97.3413 275.509Z" fill="#E62E25"/>
<path d="M140.999 236.009C140.951 241.029 131.788 242.127 127.834 242.417L127.093 241.82L126.167 241.852C123.736 240.23 121.417 241.546 119.363 242.982L119.066 243.822C118.027 244.104 110.055 245.775 109.613 245.573C109.298 245.428 109.065 245.234 108.928 244.911L108.453 245.113C105.659 243.491 103.429 244.782 101.206 246.461L100.916 247.308C98.8229 247.995 90.6662 249.907 89.2249 248.503C88.6774 247.97 86.8335 237.502 86.8818 236.211C86.9704 234.177 87.7433 232.328 89.6195 231.36C103.96 227.679 120.064 226.501 134.614 223.208C140.057 223.507 140.476 231.796 141.007 236.001L140.999 236.009Z" fill="#E62E25"/>
<path d="M146.024 266.598C147.119 264.266 147.344 262.861 147.127 260.263C146.265 249.714 142.255 237.922 141.056 227.243C140.709 225.218 139.3 223.991 137.907 222.651C141.144 221.166 144.848 222.078 146.217 225.557L152.546 259.891C152.779 264.411 149.969 265.856 146.024 266.606V266.598Z" fill="#D11718"/>
<path d="M89.6194 231.359C88.7578 232.949 87.6627 234.257 87.6547 236.202C87.6547 237.259 89.4503 247.542 89.7965 248.026C90.6178 249.189 99.4428 246.775 101.206 246.461C102.027 247.252 103.026 250.746 101.979 251.497C97.4298 251.101 89.8609 255.678 86.9622 250.093C86.0845 248.414 84.3131 237.332 84.6191 235.443C85.0056 233.07 87.5983 231.876 89.6194 231.359Z" fill="#E83D3E"/>
<path d="M91.1657 254.597C92.3011 259.706 92.4541 266.744 94.1369 271.563C94.7891 273.443 96.005 274.226 97.3497 275.51C93.8068 275.897 91.7133 274.533 90.6665 271.175C88.9998 265.824 88.9836 259.109 87.3008 253.637L91.1657 254.597Z" fill="#E83D3E"/>
<path d="M127.867 246.469C126.683 246.461 126.216 242.498 127.094 241.82C132.046 240.327 138.431 241.497 141 236.009C141.314 238.519 142.039 240.214 140.396 242.563C138.109 245.839 131.394 245.073 127.867 246.461V246.469Z" fill="#E83D3E"/>
<path d="M108.936 244.92C110.249 244.734 111.207 248.915 110.096 249.569C111.231 249.448 111.505 251.038 110.482 251.506C111.014 254.888 110.965 257.68 106.762 258.052C103.026 258.382 102.664 256.066 101.987 253.056C101.891 252.62 102.068 251.974 101.987 251.506C101.697 249.851 100.924 248.302 101.214 246.469C101.681 243.564 107.567 242.571 108.944 244.92H108.936Z" fill="#8396C9"/>
<path d="M127.094 241.82C127.48 242.563 127.673 245.412 127.867 246.469C127.963 246.986 128.189 247.511 128.253 248.019C128.616 250.828 129.614 253.967 125.717 254.573C121.071 255.299 120.966 253.249 120.137 249.569C119.018 249.625 118.752 248.552 119.75 248.019C118.39 247.745 118.011 243.531 119.364 242.983C119.919 240.004 125.886 239.488 127.094 241.82Z" fill="#8396C9"/>
<path d="M139.067 269.698C139.268 269.698 139.791 270.085 140.226 270.085C140.524 270.182 140.959 270.327 140.975 270.57C141.031 271.619 140.717 277.987 140.234 278.326C135.001 278.439 130.508 280.045 126.739 283.136L125.547 283.249C124.927 281.409 128.591 279.149 130.169 278.391C132.988 277.035 135.258 277.22 138.125 276.687L137.907 269.69C138.294 269.674 138.68 269.69 139.067 269.69V269.698Z" fill="#FED85E"/>
<path d="M159.93 258.858C158.319 260.924 156.298 262.66 154.245 264.258C153.681 264.693 153.407 264.258 153.367 264.282C154.808 261.223 153.874 257.768 153.367 254.604C155.284 255.896 157.619 258.584 159.938 258.866L159.93 258.858Z" fill="#ED7D0B"/>
<path d="M131.345 285.187V284.8C131.345 284.8 131.265 284.557 131.538 284.412L131.732 284.606C131.997 285.042 131.385 285.074 131.345 285.179V285.187Z" fill="#60544F"/>
<path d="M144.478 270.086L143.729 277.035C145.275 277.511 146.805 276.938 148.536 277.067C150.509 277.213 156.443 277.995 155.63 281.038C154.905 283.75 149.929 281.288 147.771 281.288C144.671 281.288 141.112 282.62 138.93 284.848C137.762 286.042 136.079 289.618 135.218 290.223C132.907 289.65 133.35 286.349 134.058 284.412C134.711 283.314 135.959 282.879 135.604 281.313C132.029 279.989 127.23 288.205 125.563 283.25C129.3 279.182 134.469 277.923 139.856 277.834L140.242 270.086C141.643 270.07 143.093 270.174 144.494 270.086H144.478Z" fill="#F8C714"/>
<path d="M135.202 290.223C133.881 291.159 131.949 290.417 131.804 288.811C131.731 287.979 133.511 285.3 134.042 284.42C134.509 285.187 133.994 286.131 134.131 287.213C134.268 288.294 134.888 289.206 135.202 290.223Z" fill="#FDD65D"/>
<path d="M212.468 268.923L213.306 268.979L215.254 274.516C220.198 273.669 226.253 272.644 230.231 276.671C230.303 277.664 229.522 278.907 228.476 279.004C227.123 279.133 223.234 276.34 220.826 277.115C218.894 277.737 221.511 279.553 222.115 280.158C223.347 281.57 224.844 285.38 222.501 285.969C220.52 285.041 218.137 282.499 215.955 281.498C213.338 280.295 210.471 280.214 207.742 281.046C205.995 281.578 201.92 284.984 200.68 282.878C197.862 278.1 210.214 276.679 210.737 275.533C210.753 273.951 209.183 272.297 208.99 270.868C208.845 269.778 211.679 269.407 212.468 268.931V268.923Z" fill="#F8C714"/>
<path d="M214.787 267.373L215.963 273.943C216.857 274.395 218.427 273.184 218.846 273.184H224.643C225.972 273.184 230.127 275 230.247 276.671C225.456 273.927 219.973 273.709 214.796 275.509L212.477 268.923C212.968 268.624 214.312 267.72 214.796 267.373H214.787Z" fill="#FED85E"/>
<path d="M222.51 285.962C223.452 283.847 222.461 282.2 222.123 280.15C223.121 281.143 225.634 282.765 225.642 284.218C225.642 285.849 223.951 286.632 222.51 285.962Z" fill="#FDD65C"/>
<path d="M225.215 279.771C225.087 279.771 224.958 279.771 224.829 279.771L224.442 279.577C224.483 279.173 225.24 279.27 225.215 279.771Z" fill="#E1BE83"/>
<path d="M176.155 141.52C176.372 140.769 176.751 139.946 176.928 139.195L178.168 139.833C193.845 166.887 235.651 151.802 229.233 120.688C222.768 89.3559 176.896 93.0202 175.027 124.562L174.222 125.636C173.86 125.402 172.233 124.562 171.903 124.474C173.135 119.356 174.077 114.861 176.912 110.325C195.842 80.0821 243.292 103.23 230.24 137.452C221.238 161.068 188.724 162.973 176.147 141.512L176.155 141.52Z" fill="#CC6115"/>
<path d="M159.157 168.631L160.171 168.122C166.532 171.036 170.913 171.012 177.258 168.066L178.087 168.631C182.515 167.436 186.96 166.266 191.413 165.136C191.977 165.168 191.365 168.437 191.228 169.01C189.843 174.813 182.87 182.707 177.58 185.338C177 185.628 176.066 186.46 175.575 185.669C175.164 183.49 174.447 181.044 173.457 179.083C172.571 179.365 172.056 178.72 171.911 177.146L171.363 177.242C170.51 175.249 169.536 174.054 168.433 173.659C168.747 174.619 168.28 175.322 167.273 174.821C166.822 176.581 166.049 177.614 164.954 177.92C165.123 179.486 164.737 180.132 163.795 179.858C163.207 181.173 162.144 185.112 161.669 185.677C161.194 186.242 160.574 185.62 160.067 185.346C156.29 183.312 151.556 178.905 149.196 175.338C148.278 173.949 147.264 171.06 146.418 170.18C146.531 169.107 144.856 165.58 146.274 165.176C146.918 164.99 157.426 168.17 159.165 168.639L159.157 168.631Z" fill="#8296C9"/>
<path d="M178.086 168.631C175.735 169.26 170.719 171.367 168.617 171.343C166.685 171.326 161.435 169.236 159.156 168.631C163.738 162.997 173.787 162.109 178.086 168.631Z" fill="#F49936"/>
<path d="M142.465 85.4898C146.064 85.1508 152.876 85.853 150.751 91.0831C150.034 92.8507 146.443 94.5295 144.679 95.0702C128.865 99.8968 127.182 86.9345 142.465 85.4898Z" fill="#CC6115"/>
<path d="M204.61 94.1424C203.66 95.1109 200.906 95.7647 199.546 95.8373C195.922 96.031 187.146 93.8195 186.292 89.7355C184.988 83.4965 195.6 84.9009 199.159 86.1277C201.993 87.1043 207.968 90.7363 204.61 94.1424Z" fill="#CC6115"/>
<path d="M101.206 167.469C101.552 170.907 100.111 173.506 97.148 175.201C95.5296 172.626 98.3155 168.034 101.206 167.469Z" fill="#CD6115"/>
<path d="M180.398 80.7275C181.276 83.7462 180.382 87.5638 177.314 88.8552C176.493 85.9092 177.201 81.9382 180.398 80.7275Z" fill="#CD6115"/>
<path d="M168.038 103.189C169.471 104.505 169.6 112.205 167.466 111.705C165.775 111.309 165.461 103.916 168.038 103.189Z" fill="#CC6115"/>
<path d="M99.6604 158.566C100.111 161.771 98.8713 165.314 95.417 165.919C95.1432 162.868 96.512 159.446 99.6604 158.566Z" fill="#CC6115"/>
<path d="M172.684 100.866C171.323 97.847 171.806 94.3119 174.608 92.3506C175.969 95.3692 175.486 98.9044 172.684 100.866Z" fill="#CC6115"/>
<path d="M167.273 88.8549C167.144 88.7581 166.258 86.2156 166.202 85.8605C165.888 83.9477 166.242 81.4133 168.038 80.3398C168.803 82.3011 169.415 83.3342 169.205 85.57C169.149 86.1511 168.295 89.6136 167.281 88.8549H167.273Z" fill="#CC6115"/>
<path d="M160.702 92.3418C163.311 94.1013 164.301 98.1853 162.433 100.849C159.792 98.605 159.599 95.4492 160.702 92.3418Z" fill="#CD6115"/>
<path d="M156.339 81.2362C158.255 82.9231 158.915 86.4986 157.989 88.8554C156.806 88.0564 155.284 86.5229 154.994 85.0862C154.793 84.1176 154.406 79.5413 156.339 81.2362Z" fill="#CC6115"/>
<path d="M226.382 196.508C227.437 195.709 228.323 199.438 228.339 200.189C228.371 201.851 227.598 203.36 226.567 204.636C225.287 203.247 224.925 200.923 225.303 199.115C225.352 198.889 226.27 196.597 226.382 196.516V196.508Z" fill="#CC6115"/>
<path d="M231.777 204.256C233.081 205.185 231.6 212.408 229.659 211.997C227.719 211.585 230.038 203.022 231.777 204.256Z" fill="#CC6115"/>
<path d="M224.056 209.681C225.038 212.699 224.483 215.452 221.938 217.413C220.271 215.129 221.238 210.577 224.056 209.681Z" fill="#CC6115"/>
<path d="M130.097 107.944C158.416 104.522 157.788 147.525 131.192 144.966C109.121 142.844 109.403 110.446 130.097 107.944Z" fill="#CC6116"/>
<path d="M176.927 139.203C178.119 134.102 179.447 129.074 174.222 125.652C174.431 106.749 192.926 93.6817 211.003 99.4283C234.193 106.797 237.631 138.364 216.833 150.745C202.476 159.292 184.641 153.658 176.927 139.203Z" fill="#F49935"/>
<path d="M171.516 148.88C170.429 149.913 168.786 148.493 167.812 147.637C165.332 145.482 164.245 142.334 163.4 139.267C162.925 137.548 161.725 129.63 161.966 127.952C162.039 127.459 162.248 127.153 162.635 126.806C167.144 124.513 175.461 125.49 176.154 131.648C176.629 135.886 173.537 145.062 171.516 148.88Z" fill="#F8C714"/>
<path d="M171.516 148.881C170.655 150.519 169.407 153.473 167.096 153.159C164.366 152.779 161.878 144.369 161.194 141.996C159.809 137.186 156.991 129.68 162.627 126.814L163.464 135.467C164.197 140.665 165.977 147.154 171.516 148.889V148.881Z" fill="#FFD95E"/>
<path d="M173.449 179.083C171.838 181.222 172.563 181.23 173.255 182.957C175.099 187.566 176.404 191.593 177.314 196.508C178.352 197.429 179.335 202.772 178.964 203.861C178.578 203.845 178.264 203.95 178.087 204.249L168.811 214.539C168.287 214.878 167.724 214.289 167.273 213.934C167.007 213.724 166.572 213.167 166.113 212.772C163.601 210.609 161.105 208.155 158.77 205.798C157.739 205.831 157.192 205.282 157.224 204.249C156.652 203.684 156.25 203.853 156.507 202.594C159.599 197.114 162.192 190.713 163.682 184.579C164.028 183.135 165.155 180.907 163.794 179.85C164.157 179.051 164.543 178.591 164.954 177.913L165.815 178.195C166.226 179.478 166.846 180.681 167.659 181.787C168.295 181.004 168.65 181.27 168.819 182.174C170.292 181.189 170.912 179.381 171.186 177.711L171.911 177.138C172.289 177.711 173.014 178.203 173.457 179.075L173.449 179.083Z" fill="#B71918"/>
<path d="M169.584 227.881C169.858 228.107 170.067 232.732 172.313 234.249C175.8 236.606 175.059 229.14 175.429 227.736C175.558 227.26 175.703 227.243 176.146 227.3C177.644 227.478 177.128 231.36 176.814 232.611C175.373 238.39 170.687 236.533 169.004 232.135C168.328 231.933 168.167 233.579 167.659 234.273C162.023 241.917 156.145 230.658 160.517 225.557C162.128 225.799 161.105 227.34 161.073 228.446C161.016 230.391 160.702 232.595 162.039 234.096C164.108 236.412 165.864 234.491 166.886 232.344C167.297 231.473 168.207 226.727 169.584 227.889V227.881Z" fill="#CC6115"/>
<path d="M158.77 205.807C155.075 209.1 150.702 206.316 150.662 201.739C150.654 200.472 152.667 192.764 153.424 192.32C153.794 192.102 154.447 192.304 154.906 192.256C155.63 192.95 150.211 201.82 153.722 204.863C154.769 205.775 156.919 206.17 157.225 204.258C157.74 204.774 158.255 205.283 158.77 205.807Z" fill="#CD6216"/>
<path d="M177.313 196.509C179.399 197.001 178.723 198.874 179.27 200.553C179.922 202.562 182.088 208.18 185.035 205.597C187.604 203.345 185.277 194.12 186.002 193.014C186.267 192.61 186.549 192.497 186.992 192.82C187.588 193.248 188.111 197.663 188.135 198.648C188.304 205.355 184.85 212.248 179.085 204.604C178.666 204.055 179.173 203.49 178.095 204.257C178.626 202.998 177.619 198.131 177.322 196.509H177.313Z" fill="#CD6216"/>
<path d="M212.855 261.182C211.599 264.193 208.974 266.606 205.512 266.211C206.744 262.958 209.232 260.763 212.855 261.182Z" fill="#CC6115"/>
<path d="M203.87 192.303C205.158 192.109 207.904 195.394 206.631 196.662L193.909 207.921C191.977 209.939 188.684 206.024 189.883 204.297C192.307 202.723 201.985 192.586 203.87 192.311V192.303Z" fill="#E7ECF8"/>
<path d="M199.142 193.038C199.352 193.038 199.98 193.7 199.336 193.999L192 200.585C191.646 201.109 190.833 200.375 190.841 200.189C190.865 199.64 198.595 193.022 199.142 193.038Z" fill="#E0E6F5"/>
<path d="M119.75 248.01C119.79 248.268 120.032 249.1 120.137 249.56L110.482 251.497C110.402 251.013 110.208 250.117 110.096 249.56C110.128 249.253 110.176 248.801 110.418 248.72C111.65 248.333 117.866 247.316 119.082 247.332L119.758 248.01H119.75Z" fill="#B91A19"/>
<path d="M119.75 248.011L110.096 249.561C109.943 248.81 109.13 245.251 108.937 244.912L119.364 242.975C119.146 244.153 119.549 246.703 119.75 248.011Z" fill="#E83D3E"/>
<path d="M105.458 256.146C104.725 254.637 103.139 248.35 103.775 246.994C104.403 246.243 105.216 245.678 106.231 245.299C106.489 245.339 106.754 245.283 107.004 245.476C107.471 245.848 109.098 253.903 108.953 254.774C108.727 256.146 106.416 256.485 105.458 256.138V256.146Z" fill="#E7ECF8"/>
<path d="M106.23 245.306C105.836 246.259 104.427 246.792 104.29 247.841C104.008 250.02 106.029 253.781 105.457 256.146C104.982 255.977 104.725 256.227 104.379 255.5C103.992 254.685 102.551 246.525 102.8 246.13C102.905 245.96 103.952 245.807 104.298 245.694L105.457 245.306C105.683 245.282 106.021 245.274 106.23 245.306Z" fill="#F2F4FA"/>
<path d="M105.458 245.307C105.394 245.307 104.548 245.613 104.299 245.694L105.458 245.307Z" fill="#E7ECF8"/>
<path d="M123.229 252.659L123.511 251.99C122.537 249.859 119.871 242.215 124.775 242.199C125.307 242.474 125.604 242.659 125.838 243.257C126.224 244.249 127.247 250.343 127.094 251.279C126.852 252.708 124.348 253.402 123.229 252.651V252.659Z" fill="#E7ECF8"/>
<path d="M124.775 242.208C120.966 243.491 123.221 248.438 123.752 251.562C123.873 252.288 124.485 252.821 123.229 252.66C122.705 252.305 122.697 252.329 122.464 251.699C122.045 250.577 120.918 244.702 120.998 243.636C121.111 242.167 123.744 241.675 124.775 242.208Z" fill="#F2F4FA"/>
<path d="M161.089 182.183C156.056 179.471 151.161 175.387 148.649 169.931L148.343 170.181C147.964 169.212 147.65 168.567 147.368 167.477C147.231 166.936 146.958 167.074 147.755 167.09L166.508 172.304C167.152 172.812 166.709 172.715 166.5 173.079C164.535 176.42 162.659 178.171 161.097 182.183H161.089Z" fill="#E7ECF8"/>
<path d="M176.154 181.407C174.849 178.114 172.756 175.079 170.356 172.505L189.488 167.081C190.937 166.887 189.415 169.034 189.287 169.397C186.364 173.973 182.217 177.912 177.724 181.205L176.154 181.407Z" fill="#E7ECF8"/>
<path d="M189.287 169.406C186.976 176.032 182.829 180.157 177.121 184.111C176.195 183.506 176.452 182.15 176.154 181.408C180.849 177.994 184.609 174.612 188.208 170.06C188.361 169.866 189.046 168.574 189.287 169.398V169.406Z" fill="#F4F6FB"/>
<path d="M148.343 170.18C148.254 168.913 148.576 169.381 149.059 170.043C151.612 173.562 153.915 176.419 157.425 179.082C158.561 179.938 161.298 180.6 161.089 182.182C160.904 182.666 161.057 183.723 160.509 184.119C155.114 180.374 150.774 176.451 148.335 170.18H148.343Z" fill="#F4F6FB"/>
<path d="M168.811 182.182C168.094 182.247 168.046 181.964 167.651 181.795C165.92 179.89 165.686 176.888 167.265 174.821C167.683 174.41 167.699 174.087 168.424 173.659C171.661 174.886 171.758 180.374 168.811 182.182Z" fill="#E52E26"/>
<path d="M171.903 177.146C172.258 178.873 170.567 182.021 168.811 182.182C170.567 180.108 170.776 175.362 168.425 173.659C168.771 173.449 168.513 173.005 169.399 173.635C170.816 174.644 171.106 175.951 171.903 177.146Z" fill="#D11B1A"/>
<path d="M167.652 181.795C165.88 181.052 165.349 179.761 164.946 177.921C165.921 176.298 165.824 176.226 167.265 174.821L166.879 177.339L167.652 181.795Z" fill="#E63D3E"/>
<path d="M149.429 88.5412C151.161 91.5194 142.706 94.0295 140.765 94.2394C139.558 94.3685 133.945 94.1829 133.639 92.8592C132.883 89.6307 139.115 87.5645 141.587 87.3143C143.109 87.161 148.624 87.1529 149.437 88.5412H149.429Z" fill="#F49935"/>
<path d="M191.131 86.636C193.796 86.2889 203.12 88.2099 203.595 91.398C204.215 95.5466 194.617 93.6821 192.242 92.6732C188.626 91.1397 184.802 87.4673 191.131 86.636Z" fill="#F49935"/>
<path d="M130.87 109.493C150.855 107.169 157.136 135.757 138.785 142.214C114.839 150.64 106.988 112.27 130.87 109.493Z" fill="#FFFFFE"/>
<path d="M199.239 107.936C225.456 104.385 228.395 143.296 203.772 145.007C179.149 146.718 177.128 110.938 199.239 107.936Z" fill="#CC6116"/>
<path d="M169.584 211.231C169.27 211.852 168.731 212.304 168.232 212.772C167.668 212.345 167.281 211.796 166.879 211.231C165.599 210.061 159.914 202.942 160.405 201.618C163.135 196.412 165.47 191.021 167.136 185.379L168.433 183.732C169.31 183.49 169.842 183.975 170.035 185.185C173.079 192.385 175.301 204.895 169.592 211.231H169.584Z" fill="#E62E25"/>
<path d="M169.584 211.23C173.988 202.553 172.539 196.71 169.938 187.832C169.608 186.694 169.205 184.393 168.424 183.731C167.748 184.539 167.595 184.385 167.651 183.344C168.73 184.24 171.347 182.44 171.508 182.569C172.007 182.965 174.64 191.197 174.963 192.472C175.566 194.853 176.943 200.729 176.871 202.925C176.823 204.337 170.904 209.85 169.584 211.23Z" fill="#D11718"/>
<path d="M167.651 183.344C167.861 183.457 168.368 183.683 168.424 183.732C166.629 189.995 164.326 196.081 161.105 201.739C161.105 202.344 166.089 210.125 166.878 211.222C163.875 208.535 160.759 205.96 158.102 202.901C161.693 196.573 163.907 189.583 165.727 182.562C166.266 183.022 167.192 183.086 167.651 183.336V183.344Z" fill="#E83D3E"/>
<path d="M197.114 199.325C198.499 197.969 200.633 199.818 199.369 201.391C197.935 203.167 195.802 200.617 197.114 199.325Z" fill="#8A9CCD"/>
<path d="M132.037 111.818C148.496 110.656 153.609 134.514 138.173 140.051C117.02 147.638 110.442 113.344 132.037 111.818Z" fill="#22213E"/>
<path d="M201.591 109.477C224.177 108.63 224.74 143.021 202.621 143.489C180.817 143.949 179.722 110.301 201.591 109.477Z" fill="#FFFFFE"/>
<path d="M123.349 122.44C121.199 119.784 125.362 116.483 127.504 118.848C129.847 121.439 125.539 125.143 123.349 122.44Z" fill="#FCFCFD"/>
<path d="M201.583 111.801C218.79 110.97 222.751 136.313 205.899 140.559C185.181 145.781 180.784 112.802 201.583 111.801Z" fill="#22213E"/>
<path d="M196.526 118.775C198.853 120.987 195.326 125.232 192.757 122.359C190.189 119.486 194.513 116.854 196.526 118.775Z" fill="#FBFBFC"/>
</g>
<defs>
<clipPath id="clip0_18_4717">
<rect width="332" height="332" fill="white"/>
</clipPath>
</defs>
</svg>
