<svg xmlns="http://www.w3.org/2000/svg" width="437" height="497" fill="none"><g clip-path="url(#a)"><path fill="#FFF1C3" d="M397.984 163.974c1.422 2.073 1.043 2.845-1.483 2.996-17.626-.106-20.622 6.431-17.399 22.713 1.029 11.138 1.044 22.169 0 33.094.817 1.528-.5 5.947-2.179 6.537-.121.59-.287 1.135-.605 1.559-3.646 4.812-27.022 18.643-33.058 20.352-4.267 1.196-4.736 1.287-4.902-3.616.393-17.13-1.725-33.941-5.689-50.042 2.269-3.329 5.099-6.325 8.503-9.019 5.976-6.37 17.217-28.66-.817-23.893l-1.18-1.407c-.182.378-.424.363-.727 0l-.59-1.847c3.647-6.491 11.892-25.437 4.872-31.141-1.649-.515-2.602-1.377-2.844-2.588q-2.383-.522-.727-1.453a202 202 0 0 1 30.305-13.27L223.796 32.083 92.289 82.443l-2.284-.122c-3.117-5.795-7.731-3.964-13.829 5.493-3.616 1.952-4.508 3.375-2.693 4.252l.333 1.68a277.5 277.5 0 0 1-13.208 38.647l-2.39 1.075c-.939 1.346-2.648 2.148-5.115 2.406-2.814 1.437-5.22 1.846-7.216 1.21 15.87-52.508 53.15-99.115 103.547-121.873 51.41-23.213 110.643-19.112 158.453 10.486 48.278 29.886 81.215 82.273 90.066 138.247z"/><path fill="#CC6015" d="M167.15 129.125c.53-2.195 1.922-3.163 3.631-1.453l1.135-1.422c7.444-2.951 15.236-4.949 23.36-5.993-.333-8.595 3.646-17.825 12.951-11.288 3.525-10.744 14.161-10.532 17.172.196 8.382-6.688 15.962.984 12.981 10.169a1774 1774 0 0 1 22.029 5.024l1.105 1.846c1.028-2.088 5.991 0 5.809 2.179 1.574-1.68 3.48-.802 3.632 1.453l.65-.772c2.769 1.196 5.659 2.3 8.669 3.299 13.511-8.913 24.707-19.46 35.162-31.248 3.979-5.417 8.26-7.218 12.86-5.402 1.059-1.559 1.725-1.135 1.452.726 7.005 3.36 5.492 22.32 2.618 27.541l-1.891 1.498c2.072 1.331.469 3.828-1.453 4.358q.544.636 1.453 0c-.152-2.376 4.342-3.965 5.809-2.179q2.52-1.158 3.631 0c14.298 2.103 3.057 28.388-1.452 35.575q-.09.728.726 0c3.51.106 9.017-2.784 11.453 1.967 3.616 7.037-4.175 19.612-8.911 24.908-1.695 1.891-7.474 5.992-7.64 7.642-.137 1.452 2.92 11.833 3.404 14.723 2.148 12.711 2.027 25.74 2.405 38.617 5.507-2.36 11.257-4.888 16.446-7.853 7.247-4.131 13.632-9.367 20.561-13.922 2.285.167 3.374 7.067.727 7.263-.893.318-1.589-.06-2.088-1.119a537 537 0 0 1-26.78 17.008c4.766 15.692 17.626 28.66 32.499 35.621l1.452 2.224c.348 0 .681.031.984.137.696.272 1.649 12.922 1.649 14.693l-1.165 1.135c-3.889.953-7.716 2.814-11.62 3.631-2.511 2.119-5.794 3.133-9.819 3.027-7.292.938-17.006 1.347-23.496-1.513-.908 14.784-4.055 29.87-8.064 44.216-.258.908-.727 1.755-1.211 2.617s-1.089 1.68-1.694 2.482c.333 1.12.151 2.028-.726 2.906-8.065 27.328-25.902 79.261-52.984 91.473q-1.907 4.29-3.632 2.179c-.332 2.133-3.071 1.937-3.631 0l-1.15 1.589-6.838.59c-1.18-.091-2.739-.908-2.905-2.179l-1.997.953c-9.471-2.36-16.839-7.884-23.073-15.071a210 210 0 0 0-26.174-.363c-6.612 7.566-14.116 12.983-23.996 15.434l-1.709-.938q-.75 2.86-2.905 2.179c-1.695-.121-1.211-1.165-.772-.636.953 1.196-7.065 1.014-6.475-1.543-.666 2.058-4.569 1.513-4.358-.726-1.497 2.027-2.239.544-2.905-1.453-29.502-12.242-42.983-61.436-49.367-90.021l-1.574-2.648c-4.69-18.521-7.217-37.815-9.411-56.76-11.589 3.843-25.115 2.663-37.173.514l-2.663-2.103c-19.23-4.767-41.591-19.596-53.286-35.636-7.762-10.653-14.722-27.51 6.097-25.346-3.662-7.808-14.343-21.261-9.335-30.022 3.782-6.628 12.27-3.768 17.323-.454-2.42-7.703-12.24-31.324-1.982-35.757 5.31-2.301 13.239 5.16 16.507 8.897 3.313 1.347 5.96 4.177 7.928 8.474 11.952 23.107 29.2 41.825 51.153 56.08-.318-17.826.983-37.921 5.643-53.674-7.64-6.84-18.064-18.582-16.824-29.553.802-7.142 6.218-7.293 11.816-6.93-4.841-8.126-7.186-16.615-7.05-25.452.666-9.655 13.617-13.392 18.473-5.569q.885.794 0-1.453c-3.419-3.223-5.235-12.559-2.905-16.705-1.936-1.544-2.133-2.921 0-4.359-4.175-7.58 3.314-17.356 11.62-11.53 12.3 13.346 25.856 25.603 40.653 36.756 2.754-.802 5.371-2.013 7.852-3.602l1.559.893z"/><path fill="#FFF1C3" d="M105.437 110.967c.257 6.038 1.362 10.925 2.905 16.706q.635 1.112 0 1.452c-5.023-3.102-12.164-4.479-15.553 1.514-5.235 9.23 2.95 23.303 6.838 31.883-.605.575-12.088-4.827-13.087 4.721-1.104 10.487 9.713 22.789 17.202 29.039-5.96 18.082-5.764 37.421-6.294 56.276-15.75-10.018-30.244-22.335-41.228-37.528-6.566-9.094-11.755-21.003-19.003-29.265-.287-5.372.666-10.683 1.453-15.98.272-.575.711-.923 1.331-.953 1.922 1.059 11.53 3.813 12.906 2.694 1.029-.833 6.808-18.976 7.368-21.685 1.09-5.235 1.074-9.155.893-14.178v-2.966a195.6 195.6 0 0 0 12.058-36.892c.454-1.62 1.452-1.786 2.86-1.862l28.398 14.875.983 2.149zM236.821 475.423l1.483.908c.438 2.951 3.162 4.661 5.991 4.055 9.804-2.981 18.382-3.026 25.236 5.841 1.528 1.982 4.645 6.083 2.86 8.081-36.342.605-72.653 1.377-108.888-.727l-.515-1.694c6.672-11.546 14.313-16.661 27.945-11.758 3.464.363 6.415.151 6.672-3.889l1.452-.802.666-1.453h36.22l.863 1.453zM61.894 304.082c13.314 3.299 27.172 3.253 40.623.742 3.374 20.034 5.764 40.402 10.197 60.24-16.174-12.363-30.229-27.918-41.38-45.018l.5-1.452c-1.332.121-2.345.166-2.678-1.438zM372.564 309.893c-10.605 20.579-26.688 36.907-43.558 52.266q-.885.726-.726-1.453c4.66-16.343 8.125-33.185 10.167-50.087 10.833 2.33 23.285 1.559 34.117-.726"/><path fill="#CC6115" d="M409.588 190.834c.515-2.133 1.165-1.846 2.179 0 1.301-1.831 2.542-1.468 2.905.727 6.142 1.725 10.227 4.796 13.193 10.395 9.562 17.992 13.753 61.361-.484 77.461-2.058 2.331-4.373 4.192-7.626 4.343q-.998 2.769-2.905-.726c-1.316.635-2.027-.076-2.178-1.453l-1.922.091c-8.745-7.808-26.673-31.293-7.262-36.362-2.375-2.86-3.434-5.781-3.162-8.732-2.088-.438-3.056-1.089-1.453-2.905q-2.927-.658-1.452-2.179c-2.633-.424-4.1-7.657-1.452-8.716-2.013-1.468-.485-2.467 1.452-2.905q-1.815-1.566 2.179-2.906c.363-1.725 1.845-2.86 4.448-3.42-4.993-5.719-11.771-18.279-2.028-23 1.74-.848 4.645-1.801 5.568.287"/><path fill="#8196C9" d="M384.91 267.78c2.481 8.307 2.935 16.872 1.453 25.407a4.3 4.3 0 0 1 1.936 1.876c8.896-3.934 18.489-4.313 27.748-1.453.302-3.177.257-6.34-.136-9.472l.938-1.12c.892.06 2.103.772 2.905.726l1.437 18.446c-2.391 11.637-33.028 11.516-37.007 4.056-.772-1.453-1.256-13.074-1.453-15.98-.923-2.164-1.558-4.403-1.861-6.718-1.482-11.894-1.361-25.71-.317-37.558-2.345-1.392.181-6.643 2.905-5.085l.983 1.892.469 24.968z"/><path fill="#FFF1C3" d="M295.631 477.601c6.037.53 41.909 3.057 44.194 6.613.211.318.211 1.695 0 2.012-2.754 4.313-49.096 6.719-56.54 7.339-.741-1.059-.968-2.512-.65-4.358-1.241-2.466-1.513-4.403-.802-5.81-.394-.212-.379-.469 0-.727l.786-.681c5.099 3.254 10.788 5.176 11.756-3.102l1.256-1.301z"/><path fill="#A65C16" d="M58.262 133.468c.984-1.997 3.949.333 2.905 2.179 4.357 4.631-.862 20.202-2.89 25.785-.53 1.453-3.964 10.82-4.463 11.138-2.663 1.71-12.18-1.196-15.145-2.8-4.024-2.179-12.603-10.834-12.088-15.631.06-.545 5.31-5.645 6.278-6.522 2.784-2.542 10.122-8.777 13.072-10.517 1.816-1.074 10.637-4.176 12.346-3.632z"/><path fill="#FFF1C3" d="M140.28 478.328c.59.106 1.21.363 1.361.893 2.179 7.142 5.19 7.082 11 2.648l1.437.802q.681.318 0 .726c.847 1.241.62 2.966-.681 5.191.121 1.77-.136 3.177-.771 4.237-12.059-.348-24.631-1.075-36.538-3.027-4.63-.756-10.909-1.225-14.268-4.6 0-2.164 10.818-4.131 12.906-4.509 8.215-1.468 17.248-1.937 25.554-2.391z"/><path fill="#BA5E17" d="M164.971 456.553c.56.121 1.18.378 1.316.908.56 2.118 1.483 11.092.166 12.378-8.669.893-18.412 2.678-23.269 10.668a84 84 0 0 0 4.236 1.256c3.193-2.361 6.582-4.328 10.167-5.871 5.901-2.255 6.264 5.81 1.559 6.052l-1.256 4.026c-3.026 2.678-2.133 8.352 1.695 5.235l1.74.182c-.681-2.421 3.283-6.991 5.189-9.019 7.777-8.277 14.101-8.035 24.707-4.993 8.17.227.59-6.401-4.025-6.25l-.832-1.513c-.938 2.36-9.38 2.254-10.53 0-2.542-1.347-1.301-8.61.726-10.169.923-1.498 1.437-1.664 2.905-2.179l1.392.908-.378 7.157c4.191-.832 21.998 2.891 19.971 9.095l-1.392.999c0 10.562-12.013 4.448-17.051 4.312-11.438-.318-12.921 6.991-18.519 13.846-3.192 3.919-8.624 4.055-10.893-.726-1.649-3.466-.167-6.341 1.452-9.443q.817-1.407 0-.726c-3.011 1.846-5.083 4.328-8.911 3.495-3.117-.681-5.417-4.827-4.887-7.838.983-5.508 16.764-12.953 22.513-11.606l-.726-11.622c.953.394 1.982 1.181 2.904 1.453zM274.57 455.1c-.726 1.573-2.012 11.076-1.453 11.621 5.22-1.559 21.242 6.28 22.513 10.88.832 3.057-1.21 7.4-4.312 8.383-4.478 1.423-5.991-1.589-9.471-3.299q-.681-.227 0 .727c1.74 3.299 3.374 6.34 1.453 10.168-3.541 3.541-6.899 3.799-10.894.727-3.026-8.05-9.289-14.724-18.503-14.572-3.934.06-8.73 2.844-12.18 2.103-2.617-.575-5.007-3.723-4.886-6.401-3.859-4.116 5.083-8.64 9.108-9.049l9.637-1.195c-.908-3.617-.635-6.25.847-7.899 1.423.393 2.255-.651 2.905 2.179 2.663.499 2.981 9.018.727 10.169-.939 2.36-9.381 2.254-10.531 0l-.438 1.482c-3.42-.121-12.467 5.448-5.583 6.326 10.666-2.331 19.608-3.102 27.415 5.826 1.634 1.861 4.781 6.552 4.387 8.882 5.704.515 5.205-1.226 2.784-6.507l-.605-3.647c-1.347.984-4.282-2.179-4.297-3.223-.136-5.977 8.805-1.664 11.499.242 3.071 3.345 4.372 3.572 8.033 1.529-4.599-8.172-14.509-9.776-23.148-10.562-1.71-1.362-.56-11.228 1.377-12.666.802-.272 2.103-1.498 3.631-2.179z"/><path fill="#8297C9" d="M397.984 163.974c.499-.408.65 1.226 1.271 1.423.968.318 2.526 0 3.858.348 4.009 1.074 10.061 2.451 10.802 7.339.878 5.765.605 12.62.772 18.476-.893-.257-2.043-.635-2.905-.726-.681.045-1.105-.182-1.135-.787l-.923-16.025-1.573-3.526c-1.12 1.483-5.159.545-5.084-1.452l-2.829 1.044c-6.385-.757-13.299-.03-18.443 4.116l1.619 45.003-1.407 1.392c1.104 1.816-1.347 3.45-2.905 2.179-.681-11.001-.999-22.017-1.452-33.034-.212-5.023-2.739-16.085 1.482-19.58 2.633-2.179 9.32-4.101 12.754-4.676 1.816-.303 4.207.317 5.629-.076.711-.197.408-1.407.469-1.453z"/><path fill="#F29836" d="M69.14 317.156c1.18.197 4.72-.545 5.083 1.105s-1.785 1.785-2.905 1.8c-6.354.137-18.866-2.981-25.236-4.887-3.48-1.044-22.059-7.793-22.664-10.729-.197-.908.787-1.891 1.74-1.74.605.091 8.866 5.024 10.848 5.871 11.014 4.706 21.438 6.628 33.149 8.58z"/><path fill="#F09837" d="M68.429 328.051v2.891c-1.816 1.876-31.364-6.189-35.358-8.55-1.044-.62-2.648-2.119-1.664-3.057.877-.832 19.835 7.294 23.223 6.9z"/><path fill="#C8B193" d="M329.022 362.173c-.409.379-.636 1.271-1.453 1.453.242-.817.424-1.846.727-2.905z"/><path fill="#22213F" d="M58.261 133.468c7.928-11.954 8.73-26.875 14.207-39.903.197-1.362-2.693-2.361-1.846-4.343 6.43-.288 9.804-13.65 16.537-11.91 3.767.984 1.74 5.04 5.235 3.572l131.733-50.48 145.941 81.289c1.301.802.862 2.028-.167 2.966-10.212 3.889-20.531 7.611-30.728 11.561q-.25 1.316-2.905 1.452c-1.982.772-3.722 1.196-5.81 2.179-.575.333-1.089.606-1.452 0-.015-.363 1.18-3.298 1.452-4.358.757-.923 1.604-1.8 2.709-2.3 3.676-1.664 23.859-9.624 25.902-9.578.62 0 1.255.121 1.876.257l-.076-1.589-137.044-77.189-2.27-.348.046 1.544L80.199 90.932a488 488 0 0 0 24.722 13.845l.484 1.862a53 53 0 0 0 0 4.358l-30.486-15.98c-4.085 13.71-6.536 28.146-13.798 40.66-.121-.136-2.739-2.118-2.905-2.179z"/><path fill="#B71B18" d="M401.614 216.966c-.59 1.075-1.604 1.831-2.179 2.906l-1.679 1.467c-5.961.409-12.331 1.483-17.187 5.07 1.906 2.602 2.314 7.793 0 10.168l1.119.454c5.371-3.071 13.556-6.158 19.2-3.359.423.984.983 1.937 1.452 2.905-2.3 1.453-5.204 2.225-8.715 2.301q-4.38 1.974-7.988 1.316c-.318 1.952-.877 2.315-2.179.726-2.299 1.589-2.072 2.527-2.905 5.085-4.281 3.662-6.248-7.46-2.904-9.443.499-2.512-.651-4.948-.727-7.263-.09-2.754.318-4.449 2.179-6.537.166-.197 2.617-2.028 2.905-2.179.136-2.194 2.088-3.223 3.631-1.453.227-.681.499-1.468 1.135-1.831 1.906-1.089 12.966-2.088 14.842-.348z"/><path fill="#CDB384" d="M339.9 127.672c-1.12-.166-2.466.121-3.631 0 .847-.332 1.815-1.029 2.904-1.452z"/><path fill="#EBB36D" d="M339.173 163.248c.046.938-1.377 1.12-1.452.363l.726-.363z"/><path fill="#EE7E0B" d="M211.419 204.619c-1.815.408-1.543-.923-1.815-2.149-.59-2.648-.711-5.417-1.453-8.02-11.453-40.312-61.88-52.13-90.021-21.049-.545.121-.484-.741-.348-1.074.787-1.952 8.291-10.986 10.167-13.059 15.16-16.706 38.898-28.872 60.957-33.427 1.483-.302 7.656-1.755 8.397-1.604.59.121 2.648 6.099 4.66 4.162.636-.621-4.554-10.744-1.044-15.919s6.884 5.553 9.381 5.024c1.437-.303 1.725-12.348 6.536-12.363s4.69 11.863 5.462 12.363c2.587 1.725 4.493-7.128 9.622-6.416 7.368 1.029-2.542 15.041-1.634 15.843 2.027 1.846 3.631-2.391 4.857-2.769 3.873-1.226 24.025 4.66 28.912 6.385 49.338 17.508 71.004 55.429 72.971 106.349 1.845 47.787-.394 88.961-15.07 134.554-11.725 36.408-41.697 118.893-89.491 66.944l.544-1.573c38.868-18.885 60.231-81.002 57.523-122.086-2.33-35.485-33.512-45.275-45.389-8.761-1.195 1.815-2.178.862-3.374-.863-4.932-42.158-41.984-38.178-46.311 1.543-.848 1.166-1.816.833-3.072.394-13.692-32.579-41.984-38.072-46.19 5.357-4.252 43.943 19.335 99.765 56.312 124.385l.182 1.619c-1.317 3.239-5.553 6.598-8.367 8.701-7.928 5.917-10.909 7.415-20.44 3.057-4.721-2.164-4.025-3.48-6.763-6.31-3.646-3.768-7.035-4.252-11.181-9.866-25.796-34.864-39.488-98.767-47.386-141.379-3.646-19.702-8.382-42.294-7.519-62.238.317-7.566 1.422-17.705 3.313-24.999.212-.832-.045-2.36 1.059-2.179-2.133 17.796 6.233 36.59 20.818 47.061 22.665 16.297 52.591 13.014 71.019-7.853 2.224-2.512 3.646-5.75 6.158-7.99l1.724.862 2.83 9.473c8.276 23.122 19.593 5.902 22.815-9.109l1.664-.5 2.421.681c14.267 19.854 38.233 29.266 61.472 20.141 26.567-10.441 40.381-40.993 28.444-67.459-22.317-49.436-92.261-35.969-97.617 16.388l-2.693-.242q-2.11 1.816-6.536.863-4.425.953-6.536-.863z"/><path fill="#F49936" d="M202.704 438.394c-2.678-.317-20.107-16.509-22.876-19.596-24.903-27.707-45.041-89.748-30.743-125.142 9.365-23.167 28.186-13.861 39.382 1.786l5.507 11.545c1.574-14.133 8.972-33.381 25.781-33.426 10.546-.031 16.386 8.277 19.79 17.28 1.921 5.085 2.254 10.396 4.176 15.435 11.649-38.541 45.449-29.613 48.263 8.368 2.754 37.316-17.429 97.315-49.549 118.863-2.784 1.861-6.673 4.464-9.971 4.918-6.869.953-19.805.045-27.248-.727-1.014-.106-2.285.757-2.512.727z"/><path fill="#3A4768" d="M328.296 95.728c-1.392-.151-3.026-.09-4.388.333-4.206 1.332-17.096 16.888-21.741 21.094-6.642 6.008-14.056 11.259-21.303 16.509-2.511.954-7.383-2.784-9.925-3.813l-1.376-1.377 1.376-28.07c-.968-7.914-16.597-11.667-22.845-12.771-19.291-3.42-39.08-3.254-58.522-1.332-2.92.288-15.22 2.028-17.217 3.874-.575.53-.832 1.271-1.029 2.013a959 959 0 0 0-2.739 35.696l-1.452 1.226c-2.451.923-7.958 4.963-10.122 4.01-7.625-5.856-15.538-11.561-22.558-18.159-3.934-3.692-16.552-18.854-20.122-19.793-8.337-2.194-8.639 5.554-8.897 11.44L77.87 91.718v-1.437l143.716-55.535 2.119.257 104.515 59.06z"/><path fill="#EE7E0B" d="M98.023 256.326c-.061 15.253 2.435 30.4 3.676 45.487-10.636 2.572-22.029-1.68-32.559-3.541l5.795-2.527c-3.798-4.419-8.972-5.418-14.495-3.995l2.18 3.616c-7.308-2.103-14.283-6.037-20.547-10.289-7.943-5.387-29.956-22.048-29.487-32.126.03-.681 1.89-6.022 2.163-6.219.62-.454 4.418 1.952 5.764 1.438 1.407-1.499-5.946-10.775-7.11-12.848-3.647-6.431-13.542-26.647 2.783-22.38 2.875.757 10.243 7.445 11.59 6.189.892-.832-6.9-19.702-7.626-23.228-4.266-20.625 4.13-20.549 15.599-6.885 7.005 8.353 11.816 19.248 18.307 28.161 11.559 15.858 27.052 29.296 43.997 39.116z"/><path fill="#F49935" d="M207.062 206.071c.363.454.741 1.12.438 1.468-6.884 8.02-7.11 10.986-4.357 21.775l-1.165 1.438c-5.174 7.763-10.575 14.512-18.67 19.445-44.254 27.041-94.938-23.773-68.023-68.034 25.342-41.659 89.704-24.333 91.762 23.893z"/><path fill="#3B4768" d="M194.006 87.739c20.47-1.045 41.213 1.059 60.367 8.065 9.804 3.586 10.379 5.78 9.986 15.949-.152 3.768-.666 10.033-1.377 13.649l-1.453.817c-5.053-1.573-12.088-2.935-17.399-4.01-2.617-.529-5.325-.983-8.003-1.074 4.871-9.912-3.117-18.022-11.257-9.442-1.694-2.21-1.422-5.16-3.586-7.294-5.552-5.463-11.755 1.377-12.028 7.309-.363.393-5.098-5.977-9.38-2.497s-2.194 11.364-3.631 12.333c-8.488 1.513-17.323 3.238-25.448 6.128-.56-.106-1.422-.363-1.407-.772.151-4.433 1.725-33.926 2.693-35.409 1.876-2.89 17.172-5.22 21.015-5.16l.923 1.407z"/><path fill="#EE7E0B" d="M323.212 137.1c1.346 1.271 7.791-4.525 10.167-5.433 3.358-1.271 6.747-2.345 9.032 1.105 4.312 6.522-1.135 18.355-4.312 24.665-.832 1.649-6.99 10.82-6.188 11.591 4.1.439 14.358-7.505 16.37-1.483 2.391 7.158-8.987 22.471-15.296 26.149-2.95-6.22-5.431-12.666-8.941-18.628-4.796-8.156-11.045-12.333-11.771-22.35s2.012-40.282 12.376-45.018c8.457-3.874 4.266 11.455 3.268 15.601-.545 2.255-5.25 13.286-4.721 13.785zM105.436 192.286c-1.982 1.725-9.804-8.761-10.893-10.501-2.33-3.708-5.265-9.337-5.099-13.786.167-4.449 3.54-3.783 7.338-2.966 1.816.394 8.821 5.115 9.396 2.21.181-.954-7.898-14.043-9.063-17.054-3.223-8.368-6.31-26.164 8.367-19.263 2.587 1.21 5.114 4.206 7.217 5.129 4.584 1.998-.772-7.445-1.241-8.943-1.256-3.919-4.176-15.828-2.996-19.278 1.347-3.919 6.415-.287 8.17 1.755 7.792 9.11 10.077 30.855 9.123 42.401-.771 9.397-7.837 14.481-12.451 22.395-3.117 5.357-6.219 11.954-7.868 17.916zM377.648 236.563c.333 3.389-1.573 8.867 2.905 9.442.999 14.724 1.196 29.568 2.179 44.292-13.496-5.645-25.357-16.207-32.06-29.281-.953-1.846-3.54-7.127-3.495-8.882.046-1.756 27.113-15.36 29.382-19.914-.121 1.331.999 3.42 1.089 4.358z"/><path fill="#22213F" d="M270.939 129.851c-1.165-.469-2.481-1.029-3.631-1.453l-1.377-1.15a315 315 0 0 0 1.422-26.194c-.998-6.612-16.143-9.472-21.605-10.395-16.809-2.86-34.889-3.163-51.758-2.921-3.026 0-19.457 2.27-20.697 4.343l-2.527 35.591c-.923.332-2.421.998-3.631 1.452l2.194-33.744c.786-7.218 2.178-7.006 8.82-8.595 19.956-4.767 64.21-4.827 83.122 3.011 4.766 1.967 11.166 5.569 11.151 11.349l-1.483 28.721z"/><path fill="#F8C714" d="m267.323 457.28 1.044 1.286c-.741 1.468.288 10.789.787 11.031 10.288.242 18.14 3.874 23.557 10.91-.151 2.225-2.512 3.178-4.554 2.785-1.922-.363-3.344-2.663-5.114-3.662-1.362-.772-9.35-4.812-8.488-.953 1.09 1.044 2.073 1.997 2.905 3.283.878 3.027 1.997 10.759-2.178 10.169-2.497-2.194-3.858-6.416-6.506-9.11-5.598-5.719-10.803-5.992-18.534-5.402-3.026.227-11.256 3.98-10.545-2.527.317-2.92 7.443-5.478 9.804-5.478h10.53c-.182-2.95-.091-7.384-.726-10.168.06-.409-.121-1.362 0-1.453.317-.242 6.203-.469 7.988-.726zM169.313 457.28c2.467.469 4.675 1.089 7.263.726.03.484-.031.969 0 1.453.211 3.571-.984 6.643-.727 10.169h10.531c2.995 0 10 2.33 9.849 6.189-.257 6.355-10.727 1.013-14.918 1.013-11.559.016-13.949 7.703-19.971 14.573-5.099 1.301-3.979-6.205-2.179-9.443 3.919-6.128 1.09-5.962-4.387-3.299-2.905 1.408-6.264 5.826-9.396 4.389-.575-.258-2.088-1.952-2.193-2.558 5.053-8.171 15.886-10.471 24.615-10.426q-.09-5.357.091-10.94l1.422-1.861z"/><path fill="#4F6085" d="M267.323 128.4c-1.77-.651-4.191-1.68-5.81-2.179-.09-6.114 3.102-18.976.56-24.151-1.468-3.011-10.212-5.614-13.632-6.704-15.75-5.008-38.142-7.702-54.436-7.626 3.359.575 6.627-.606 9.774-.757 13.858-.65 52.878.03 62.833 9.82 3.707 3.648 1.74 6.886 2.194 11.652l-1.483 19.929z"/><path fill="#3B4768" d="M360.961 113.872c-10.015 4.176-19.986 8.761-30.486 11.621 2.391-9.14 5.22-20.837-.726-29.038.197-.288.409-.545.666-.742 1.437-.983 26.915 14.391 30.441 16.555l.09 1.604z"/><path fill="#BB5E17" d="M224.491 204.619q3.971-1.998 4.358 1.453c2.602-1.695 5.582 3.283 6.732 5.523 1.695 3.284 1.982 5.16 1.786 8.837-.152 2.769-.802 9.836-3.435 10.335q1.68 4.313-1.452 4.358c-1.786 6.114-5.054 17.433-10.652 20.928-11.634 7.263-16.37-14.239-18.382-21.654-.318-1.18-1.256-2.754-1.453-3.632-1.543-6.839-3.54-14.36.848-20.564.62-.863 3.495-3.723 4.236-4.116.242-.136 3.903-1.347 4.357-1.453 3.526-.802 9.532-.771 13.072 0z"/><path fill="#4E5F84" d="m221.586 34.731 2.421-.514 140.57 78.566c-.712 1.029-2.769.726-3.632 1.089l-31.212-17.417c-.469-.151-1.089-.68-1.452-.726l-106.71-60.983z"/><path fill="#FED85E" d="M169.314 457.279c.061 4.615.182 9.216-.756 13.755-9.744-.242-18.216 2.981-25.373 9.473-.832-4.615 10.44-10.124 14.343-10.699 1.967-.287 7.036.288 7.837-.862 1.559-2.255-1.18-9.382-.408-12.393 1.271.363 2.996.469 4.357.726M270.94 457.279c.802 2.89-1.891 9.518-.409 11.667.651.938 7.262.741 9.592 1.301 3.995.953 12.921 5.538 12.603 10.275-6.717-6.779-15.931-9.761-25.402-9.428.741-4.645-2.028-9.351 0-13.8.983-.151 3.464.06 3.631 0z"/><path fill="#ECBB78" d="M108.342 127.673c.121.439 1.21.983.711 2.179-.817.121-.681-.696-.711-.726z"/><path fill="#C89558" d="M330.474 129.852c-.091.045-1.377 1.77-1.453 0z"/><path fill="#EE7E0B" d="M413.218 250.363c.953-.908-8.034-14.345-9.093-16.675-2.042-4.494-5.098-11.546.605-14.693 4.781-2.649 7.308-.575 11.65.998 2.406.878 2.481-1.15.742-2.935-4.63-4.722-13.526-10.411-13.39-17.902.166-9.276 15.659-4.312 19.532.878 9.668 12.877 12.164 45.184 9.229 60.513-.983 5.145-6.687 24.242-14.585 19.611-1.21-.711-7.761-7.626-9.017-9.139-7.111-8.61-14.615-25.044 4.327-20.671z"/><path fill="#E7ECF8" d="M402.341 236.563c1.725 3.51 3.631 6.9 5.81 10.153-8.776-.514-11.121 5.448-9.078 13.09 2.042 7.641 10.288 16.13 15.614 21.759 2.087 2.058 2.451 8.762-.908 9.231-8.458-1.483-17.399-1.422-25.131 2.754l-2.284-.363c-.53-8.459-.953-16.948-1.453-25.407l-.378-26.768 1.105-.818c5.431-2.663 10.485-3.646 16.703-3.631M408.134 170.496c.908.938 1.286 2.103 1.559 3.344.317 1.437 1.361 15.813.817 16.418-.227.257-.56.424-.938.56-15.917.787-7.611 17.659 0 23.954-2.966-.878-5.825 1.786-7.989 2.179-4.993.938-10.53.439-15.977 2.179l-1.407-1.831c-.741-8.292-.575-21.033 2.209-28.796 2.602-7.264 9.32-17.009 16.628-19.46 1.815.333 3.404.484 5.083 1.453z"/><path fill="#C7D1E9" d="M416.849 283.034c1.634 3.208.287 9.397.726 13.074-10.288-4.706-21.318-3.45-31.197 1.453-.076-1.438.091-2.921 0-4.359 8.714-5.326 18.549-5.523 28.307-3.631v-7.99c.227.242 1.422-.045 2.179 1.453z"/><path fill="#E62E25" d="M397.983 222.777c-.333 2.012.742 6.734 1.453 8.716l-.848.923c-5.9.197-11.74 1.377-16.824 4.525l-1.195-.364c-.136-3.056.393-6.128-.635-9.124 0-.666.574-.848.635-1.029 4.463-3.496 10.772-4.525 16.31-4.979l1.119 1.362z"/><path fill="#C7D2E9" d="M411.766 190.834c-.681-.06-1.483-.03-2.179 0l-1.452-20.322c1.286.741 2.632 1.725 2.89 3.283z"/><path fill="#E73D3D" d="M399.436 219.873c-.258.484-1.423 2.738-1.453 2.905l-6.929.635-10.5 2.981c1.044-2.723 3.389-3.389 6.157-4.373 4.04-1.437 8.382-2.254 12.725-2.164z"/><path fill="#D11718" d="M399.436 231.494c.121.333 1.059 1.271 1.453 2.179-6.884-.242-14.252.968-19.971 5.084-.696-.166-.333-1.513-.364-2.179 5.432-3.783 12.255-5.538 18.867-5.084z"/><path fill="#C6D1E9" d="M408.861 307.714c-.712.061-.969 0-.727-.726 6.703-3.208-3.268-7.46-7.262-5.811-.499 3.813.484 2.905 3.631 2.905 1.12.727.152.938-1.013 1.09l-6.249-.363c-.756-.167-4.388-.243-3.631-1.801 1.135-2.33 10.076-3.95 12.663-4.04 2.103-.061 11.696.333 11.862 2.557-1.785 4.419-5.205 5.084-9.29 6.174z"/><path fill="#EEF0F9" d="m385.638 240.194-.727 27.586c-.514-8.928-1.407-17.901-1.452-26.859.696-.485 1.604-.439 2.179-.727"/><path fill="#C2CDE7" d="M394.352 297.56q1.792-.317 1.452.727c-8.412 2.708-6.052 8.701 2.179 9.442q.863.636-.726.727c-10.833-1.544-16.703-6.416-2.905-10.896"/><path fill="#A1B1D8" d="M408.861 307.714c-5.477 1.467-6.173 1.498-11.62.726l.726-.726c2.663.242 7.883.363 10.168-.727z"/><path fill="#B7C2E1" d="M404.519 304.082c.68-.076 2.405-.424 2.178.711-3.48 1.347-6.127.757-9.426 0 2.058-.06 4.131.137 6.188-.015 1.165-.091 1.014-.696 1.075-.711z"/><path fill="#97AAD5" d="M394.353 297.56c2.405-.771 4.614-1.755 7.262-1.437l-5.81 2.164z"/><path fill="#EAC589" d="M281.833 482.686v.726c-.121-.227-1.18-.212-.726-1.074l.363-.363c.514.272.333.711.363.726z"/><path fill="#F7C513" d="m46.672 169.013 13.042-28.282c-.575 7.99-3.011 17.16-6.4 24.454-1.695 3.662-2.013 5.826-6.642 3.828M53.905 143.637c-3.208 6.915-5.614 14.421-9.441 21.048-3.42 1.287-5.19-5.402-3.631-7.989 4.418-5.296 7.156-8.958 12.345-13.801 1.014-.968 1.392-.56.727.727z"/><path fill="#F49F23" d="M45.915 142.184q.114 2.95-2.905 5.81c-2.617 4.449-7.247 7.748-9.44 12.348-.62.439-3.662-4.963-3.284-5.826 1.135-2.527 12.71-10.38 15.63-12.332M44.464 164.685c-.424.742-.757 2.149-1.437 2.573-2.028 1.271-6.491-2.8-7.959-4.389 0-.877 4.993-5.22 5.78-6.174 1.27 2.573.908 6.386 3.631 7.99z"/><path fill="#F2BC13" d="M50.273 139.279c1.014-.968 1.392-.56.726.726-2.557 2.754-4.872 5.796-7.988 7.99.877-1.498 1.225-4.328 2.905-5.811 1.679-1.119 2.133-1.74 4.357-2.905"/><path fill="#D89F17" d="m53.906 143.637-.726-.727c.62-.575 1.029-2.042 2.163-2.179.47 1.453-1.059 2.074-1.437 2.906"/><path fill="#DCA716" d="M50.273 139.279c.878-.454 1.453-1.892 2.905-1.438-.136 1.15-1.603 1.544-2.178 2.164z"/><path fill="#EAC88F" d="M154.078 483.413v-.727s-.151-.454.363-.726l.364.363c.453.863-.621.863-.727 1.074z"/><path fill="#FED75C" d="M161.341 491.402c-1.604 1.831-1.937 3.087-4.902 1.649-5.069-2.466 1.225-8.716 2.723-11.076.378 3.238-1.422 7.823 2.179 9.442z"/><path fill="#FED65B" d="M275.297 492.129c2.511-3.133.893-6.885 2.179-10.169 1.679 2.618 6.884 10.804 1.043 11.637-2.42.348-2.163-.53-3.222-1.468"/><path fill="#F5F6FB" d="M403.066 169.043c-6.445 5.826-12.24 11.531-15.251 19.944-3.525 9.836-1.785 19.899-2.163 30.143-.53.167-3.238 1.241-3.631 1.453l-1.695-47.016c6.037-5.462 15.175-5.931 22.74-4.524"/><path fill="#EBDFB9" d="M87.296 83.365c-.212.212-4.947 1.302-5.81 1.453.5-.863 3.495-4.222 4.01-4.343 1.498-.363 2.33 2.33 1.8 2.89"/><path fill="#CC6115" d="M232.479 235.111c.424-1.453 1.15-3.087 1.453-4.358l2.345 1.044c27.732 46.773 99.916 20.776 88.584-33.321-11.302-53.946-89.053-48.135-94.379 5.705l-1.619 1.876c-.212-.121-3.949-1.362-4.357-1.452 1.831.408 1.528-.924 1.815-2.149.606-2.633.696-5.418 1.453-8.02 12.724-44.262 72.607-52.221 95.589-12.106 26.719 46.637-25.599 98.162-71.745 71.03-8.215-4.827-13.238-10.971-19.109-18.279zM187.968 140.232c5.598 6.052-4.629 11.999-9.547 13.603-5.991 1.952-24.162 3.783-22.876-6.128 1.196-9.231 26.356-14.028 32.423-7.46z"/><path fill="#CC6115" d="M258.427 136.57c6.808-.923 25.811 3.511 25.372 12.393-.484 9.836-21.03 5.735-26.885 2.527-9.048-4.948-10.031-13.361 1.513-14.92"/><path fill="#CD6115" d="M218.666 128.398c1.68 4.374 3.51 8.323.878 12.848-1.574 2.708-2.3 1.952-3.404-.515-1.801-4.01-1.468-9.79 2.526-12.333M218.666 182.844c-1.665.348-1.165-.197-1.619-.923-.817-1.286-1.982-4.464-2.028-5.992-.045-1.166 1.801-7.279 2.224-7.597 1.831-1.362 3.541 4.903 3.632 6.174.272 3.662-1.196 5.115-2.209 8.338M290.547 423.883c.515 5.568-3.873 11.092-9.425 11.606-.197-5.523 4.13-10.471 9.425-11.606M277.476 428.24c-.454 5.402-5.522 9.972-10.878 10.154-.045-5.902 5.295-9.791 10.878-10.154M278.201 439.847c-.56 6.128-6.491 9.684-12.331 9.427 2.179-5.992 6.112-8.64 12.331-9.427M201.252 142.91c-5.325-2.557-6.778-9.14-5.068-14.512 4.977 3.254 6.838 8.853 5.068 14.512"/><path fill="#CD6215" d="M170.04 438.394c-5.643-.227-10.954-4.313-11.604-10.154 6.127.106 10 4.51 11.604 10.154"/><path fill="#CD6115" d="M230.286 149.448c1.513 5.008 1.407 11.545-3.616 14.511-.59-2.678-1.543-4.433-1.165-7.278.197-1.453 3.026-8.52 4.781-7.249zM209.241 163.959c-5.219-3.208-4.902-9.155-3.616-14.512 5.523 2.088 5.568 9.851 3.616 14.512"/><path fill="#CC6115" d="M240.454 129.125c.454 5.342.121 11.773-5.795 13.785-.378-5.523-.333-11.757 5.795-13.785M195.442 322.241c.923.847-9.834 20.155-.741 22.925 7.746 2.36 9.925-14.512 11.271-14.966.363-.121 1.876-.272 1.831.439-.121 3.949-.605 13.952 3.631 15.919 6.854 3.178 5.416-13.105 6.521-14.164 2.254-2.133 3.797 4.691 4.221 5.584 3.858 7.914 8.715 10.184 10.848-.303.363-1.77-.499-8.837 2.708-7.445 1.15.5 2.179 12.03 6.521 15.253 7.867 5.857 7.731-10.35 7.671-14.209-.031-1.846-2.36-8.262 1.059-8.322 2.648 7.43 4.69 29.008-8.548 25.982-4.055-.924-4.933-6.235-7.762-8.55.091 3.526-3.828 7.46-7.459 7.112-3.994-.393-4.962-4.403-7.792-6.386.031 6.083-6.036 12.257-11.286 6.568-1.786-1.937-1.559-3.602-2.436-5.554-.378-.862.333-1.301-1.513-1.014-4.297 11.607-16.612 8.822-16.007-4.025.136-2.89 2.663-12.287 4.312-14.406.711-.908 1.982-.348 2.965-.454z"/><path fill="#CC6115" d="M216.503 371.238c.181 1.06 1.876 3.889 2.92 4.359 5.779 2.648 6.823-10.623 6.521-14.164.771.136 1.876-.212 2.496-.03.378.106 2.073 6.068 2.799 7.46 4.1 7.884 8.533 6.022 7.701-2.618-.242-2.603-4.842-12.227-4.282-12.787.621-.62 2.239.394 2.92 1.06 6.642 6.4 5.734 29.507-5.81 20.322-1.755-1.392-2.012-3.586-3.646-4.676-2.224 12.257-12.013 11.304-14.887 0-2.739 5.659-9.532 10.653-14.782 4.615-3.676-4.221-2.088-10.759-.62-15.661.408-1.377 3.389-10.018 5.598-7.824 1.331 1.332-9.108 18.961-1.286 22.699 7.822 3.737 9.198-11.107 11.816-13.967 1.225-1.347 2.527-.167 2.527.348 0 3.087-.485 8.156 0 10.895z"/><path fill="#CD6216" d="M218 384.706c.136-.121 2.527-.151 2.784.045.545.454 1.952 12.076 6.884 11.425 2.012-.378 3.283-5.78 3.389-7.551.121-1.891-2.118-4.903 1.044-5.402 3.752.787 2.27 17.916-6.022 15.51-3.767-1.104-4.19-4.146-5.9-6.355-1.513-1.952-1.453.832-1.922 1.634-7.201 12.03-16.627 3.904-15.538-8.247.091-.953 2.013-9.003 3.51-4.252 1.181 3.738-2.783 9.291 1.513 13.725 7.55 7.763 9.562-9.912 10.243-10.532z"/><path fill="#CD6115" d="M98.174 298.271c-.62.817-6.823 1.634-8.29 1.423-4.948-.742-9.835-4.661-1.438-5.705 2.088-.258 11.544 1.891 9.728 4.297z"/><path fill="#CC6115" d="M86.57 285.953c2.556 3.42-13.315 4.283-14.495-.378 2.21-3.057 12.845-1.846 14.494.378"/><path fill="#CC6116" d="M153.911 175.792c46.554-4.872 48.007 68.7-.181 64.403-36.75-3.269-38.233-60.377.181-64.403"/><path fill="#F49935" d="M233.932 230.767c.878-3.662 2.497-10.502 2.012-13.982-.484-3.481-3.933-9.019-7.095-10.714 2.436-36.317 41.167-58.894 73.545-40.508 36.266 20.595 32.226 74.873-7.096 89.173-24.48 8.898-48.687-2.345-61.351-23.969z"/><path fill="#F8C714" d="M224.491 246.732c-5.34 2.3-10.56-5.781-12.466-10.411-1.725-4.177-4.872-21.533-4.055-25.558l1.271-1.786c5.023-2.512 15.553-2.497 19.956 1.453 4.402 3.949 3.873 8.534 2.92 13.8-1.483 8.111-3.798 15.284-7.626 22.502"/><path fill="#FFD95E" d="M224.49 246.732c-2.042 3.858-4.554 11.258-10.197 6.204-4.584-4.116-11.272-27.843-11.181-34.153.061-4.449 2.27-7.869 6.128-9.791 1.422 12.424.454 33.548 15.25 37.755z"/><path fill="#F49935" d="M172.793 140.217c21.711-2.527 14.011 11.001-2.345 12.166-19.35 1.377-11.907-10.501 2.345-12.166M258.413 139.461c4.039-.681 9.895.438 13.753 1.861 18.473 6.809 4.115 14.859-11.378 8.474-5.87-2.421-12.754-8.58-2.39-10.335z"/><path fill="#FFFEFE" d="M154.653 178.698c39.11-3.647 43.286 55.595 5.583 58.576-38.808 3.072-43.316-55.05-5.583-58.576"/><path fill="#CC6116" d="M272.225 176.504c35.584-4.812 52.499 39.313 24.373 58.5-25.947 17.705-58.612-7.55-48.899-37.3 3.268-10.002 14.01-19.778 24.541-21.2z"/><path fill="#22213E" d="M153.17 183.025c21.62-2.966 37.446 19.324 25.887 38.239-14.282 23.364-51.305 10.244-46.433-18.128 1.649-9.579 10.848-18.764 20.546-20.096z"/><path fill="#FFFEFE" d="M272.952 179.394c32.741-4.464 47.341 36.771 21.454 53.401-24.162 15.526-53.62-8.231-43.407-35.424 3.268-8.701 12.618-16.706 21.953-17.977"/><path fill="#FCFCFD" d="M141.187 194.632c3.904-3.904 11.075 2.618 6.34 6.703-4.736 4.086-9.714-3.329-6.34-6.703"/><path fill="#22213E" d="M276.628 183.04c32.226-1.891 36.311 46.471 5.507 50.572-35.388 4.706-39.548-48.574-5.507-50.572"/><path fill="#FAFAFB" d="M264.207 193.86c6.355-.969 7.263 8.731 1.226 9.306s-7.126-8.398-1.226-9.306"/></g><defs><clipPath id="a"><path fill="#fff" d="M0 0h437v497H0z"/></clipPath></defs></svg>