<svg width="464" height="522" viewBox="0 0 464 522" fill="none" xmlns="http://www.w3.org/2000/svg">
<g clip-path="url(#clip0_204_1972)">
<path d="M410.17 313.37L406.38 313.73C394.04 309.47 358.72 293.41 363.81 276.57C369.3 256.57 372.84 238.24 369.26 217.5C369.2 212.9 369.54 208.12 371.91 204.07L384.27 195.39C393.5 183.83 393.38 176.97 383.91 174.81C381.72 174.1 379.42 173.13 380.28 170.71C385.32 165.55 390.65 157.43 392.48 150.42C395.34 139.47 390.47 138.26 381.5 137.68C380.83 137.64 380.52 136.75 380.44 135.91C379.26 135.78 378.63 135.17 378.52 133.99C377.52 134.13 376.97 133.85 377.26 133.04C382.14 122.26 394.06 90.0705 369.59 105.97L346.63 122.26C329.58 133.72 318.05 140.07 301.24 126.33L284.67 120.14C283.4 119.06 282.76 117.53 282.75 115.87C285.76 107.66 284.63 103.04 274.96 106L272.05 105.4C268.41 96.6605 264.67 92.6605 258.27 102.11L256.22 102.99C250.54 98.4405 247.01 98.6505 245.63 103.61C244.9 107.83 242.84 110.62 239.45 111.97C228.82 112.47 218.23 113.3 207.68 114.49C191.89 101.4 178.83 85.5505 168.48 66.9305C160.86 53.8605 155.41 60.6505 153.24 72.4005L151.21 73.0805C151.95 73.1705 153.07 73.3905 153.13 73.9105C153.35 75.8505 153.16 90.4905 152.49 91.1605C152.18 91.4805 151.72 91.6505 151.21 91.7805L148.85 93.0105C127.28 84.1205 132.23 112.11 136.43 123.71C136.44 125.45 136.01 126.75 134.22 126.99C120.65 124.91 118 133.32 126.27 152.21C127.55 153.35 131.99 157.94 132.99 159.52C135.07 162.81 133.32 167.22 131.89 170.48C121.24 191.74 114.25 214.52 110.93 238.83C110.19 239.68 109.24 240.02 108.2 240.34C104.08 241.6 83.6002 230.9 79.3402 228.44C73.6302 225.15 68.2402 221.38 62.9702 217.43C62.0602 217.69 61.7402 217.38 62.0102 216.47C61.1702 216.21 60.3602 215.9 59.6602 215.43C55.4902 212.6 37.4402 195.63 35.8602 192.24C35.4802 191.43 35.2902 190.54 35.1602 189.62L39.9602 165.64C42.2202 164.23 45.1302 163.9 48.7002 164.63C65.7202 161.23 77.8002 165.31 92.2902 173.34C100.99 179.84 104.38 179.9 102.46 173.53C96.8902 158.42 91.7002 142.17 101.58 127.42C107.18 109.2 98.6802 87.5805 84.5602 75.4105L84.0802 72.6005C116.12 35.1905 157.81 8.49047 207.45 1.79047C348.35 -17.2395 446.78 118.95 428.26 250.42C425.18 272.27 418.14 292.97 410.17 313.38V313.37Z" fill="#FFF1C3"/>
<path d="M226.981 231.85L228.941 233.27C227.421 249.54 236.031 268.92 250.141 248.44L255.211 240.1L257.681 239.52C258.781 239.46 259.711 239.8 260.301 240.71C267.801 252.35 272.981 260.31 285.761 267C312.941 281.21 345.851 270.56 359.421 243.04C366.141 238.33 365.681 255.52 363.251 258.9C358.521 318.5 341.731 376.27 319.041 430.94C318.351 432.61 312.981 443.62 312.361 444.03C310.291 445.38 308.031 443.64 306.541 442.27L304.951 444.46C304.331 449.84 303.191 454.86 301.521 459.52C293.381 459.1 291.431 462.6 287.901 469.31C284.971 472.84 278.531 478.33 273.991 476.44C273.421 479.12 272.051 479 271.111 476.44C268.811 478.32 266.941 477.45 267.271 474.52C262.101 468.93 256.241 462.46 255.821 454.64C247.541 453.94 239.251 453.63 230.961 453.7L230.811 451.51L231.971 449.44C241.451 450.14 250.691 449.99 259.691 448.99C289.731 426.55 307.381 380.37 308.461 343.48C309.591 305.1 284.611 279.28 259.901 318.01C257.791 319.12 256.081 318.57 255.501 316.24L253.251 306.91C244.781 271.32 213.411 284.36 206.801 313.46C205.621 314.63 204.251 314.45 202.821 313.65L194.151 299.23C172.411 271.37 154.711 294.86 150.881 320.82C144.371 364.96 153.481 419.66 193.121 445.72L194.361 448.63C191.621 451.41 185.311 455.79 181.331 457.54C144.481 473.74 127.921 437.18 120.501 407.39C119.261 404.4 116.531 399.02 117.621 395.88C112.941 367.88 110.141 338.08 108.761 308.86C106.661 299.81 105.641 289.58 108.991 280.78C109.501 277.45 109.251 274.52 108.241 272C109.801 246.25 113.491 220.83 120.571 195.9C121.551 192.46 123.151 187.3 124.971 184.29C125.221 183.88 126.511 184.4 127.221 184.87C128.001 184.91 128.981 185.18 128.981 185.73C129.011 191.83 128.981 198.01 128.961 204.12C128.961 204.78 128.011 205.23 127.231 205.5L129.301 206.83C140.541 248.97 191.501 263.25 223.621 232.45L226.981 231.88V231.85Z" fill="#EE7E0B"/>
<path d="M378.52 134.01C378.79 135.27 379.19 135.65 380.44 135.93C381.75 136.31 384.43 135.71 386.43 136.16C404.81 140.33 387.73 163.59 381.41 171.91C398.95 177.41 394.22 185.22 384.28 195.4C383.46 194.38 383.46 194.38 384.28 195.4C384.06 195.63 384.08 197.25 382.91 198.31C380.61 200.39 376.53 201.18 374.25 204.07C368.11 211.87 373.14 229.8 372.76 239.99C372.66 242.8 372.05 247.48 371.69 250.43C370.7 258.55 364.46 276.78 365.28 282.9C366.5 292.06 384.51 300.64 392.27 304.91C398.08 308.11 404.21 310.55 410.18 313.38C422.8 319.36 436.99 323.92 449.2 330.47C456.61 334.45 471.44 345.91 457.19 352.23C447.13 356.69 436.84 352.91 426.49 352.71C440.85 380.88 409.21 372.51 393.88 367.1C399.69 381.04 390.68 385.83 378.02 381.52C375.94 380.81 367.58 376.85 366.07 375.73L363.78 376.3C358.84 371.75 354.57 366.71 350.99 361.17L349.5 360.76L339.5 395.25C338.75 396.68 337.69 397.85 336.34 398.76C329.49 418.95 310.05 469.75 290.3 478.37C289.06 484.04 271.89 482.15 273.99 476.45C277.39 474.62 281.77 472.96 284.57 470.25C290.4 464.62 288.88 456.68 300.7 458.09C303.01 452.69 300.28 447.74 303.88 442.56C307.53 437.31 307.18 442.13 311.38 442.88C312.43 438.19 315.66 433.98 317.61 429.44C328.29 404.52 339.86 369.81 346.8 343.53C354.13 315.78 358.87 287.66 361.28 259.22C361.64 254.95 366.18 245.29 360.32 244.34C347.89 273.85 305.66 282.73 279.82 265.83C269.79 259.27 263.93 249.35 257.68 239.54C253.47 238.21 257.8 231.81 260.56 235.7L262.69 236.73C268.28 253.83 290.32 269.09 308.09 270.1C367.06 273.45 384.53 181.91 323.69 170.85C319.96 169.7 320.77 163.28 322.9 160.88L324.59 159.63L341.96 169.33C327.52 147.41 305.98 127.56 279.61 122.64C277.5 119.69 277.7 115.9 280.21 111.29C280.65 110.11 280.16 107.74 278.71 108.34C271.07 114.31 266.29 112.75 267.28 102.53C266.93 100.16 262.4 101.07 261.63 103.2C259.84 109.11 257.13 110.98 253.51 108.83C249.73 100.7 247.42 103.13 246.58 116.12C245.17 118.51 242.53 118.51 238.65 116.11C214.62 114.6 188.15 122.08 167.35 134.42L164.64 134.03C160.52 136.99 160.1 133.95 161.76 130.19L160.9 127.55C166.73 114.83 170.81 84.3302 160.57 73.5702C155.37 68.1102 156.89 87.8702 157.19 89.8402C159.64 96.3702 162.35 108.04 151.53 101.71C130.66 79.1302 136.02 118.47 142.86 129.01C144.57 134.01 140.57 137.41 135.99 134.68C122.29 123.5 123.67 135.04 127.73 145.04C128.84 148.28 128.36 150.36 126.29 151.28C127.14 151.54 127.13 151.86 126.29 152.24C118.67 141.44 114.83 121.13 134.92 125.37C130.3 109.29 124.4 82.1402 151.23 91.8102V73.1102C151.23 71.2502 154.89 60.2402 156.43 59.1302C158.71 57.4902 162.68 57.9602 165.03 59.3102C167.38 60.6602 181.88 84.4602 185.78 89.3902C190.06 94.8002 199.36 106.09 204.44 110.06C205.98 111.26 207.12 112.77 209.32 112.87L238.35 110.36C245.44 108.2 243.91 99.6502 247.13 98.0102C251.08 96.0002 255.12 101.25 256.26 101.24C258.7 101.23 262.99 88.9802 269.62 97.6302C270.82 99.2002 271.86 103.11 273.03 103.85C274.96 105.06 281.39 101.82 285.03 105.24C288.88 108.86 282.02 115.37 285.93 118.73C287.91 120.44 299.5 123.8 303.13 125.5C310.7 129.05 313.05 134.64 322.48 132.14C342.24 126.89 357.61 109.85 374.03 101.22C377.73 99.2702 383.54 98.4902 385.72 103.34C389.71 112.21 377.97 131.44 378.54 134.02L378.52 134.01Z" fill="#CC6015"/>
<path d="M252.871 500.41L254.901 501.64C255.301 505.51 256.271 509.39 260.911 507.94C269.771 504.79 279.631 501.69 287.531 508.67C289.871 510.74 293.731 514.98 291.231 517.68C287.391 517.88 280.361 520.3 275.441 520.6C241.721 522.65 200.141 521.53 166.011 520.6C145.871 520.05 120.721 519.17 101.121 515.48C86.7907 512.78 82.7707 508.41 100.141 505.48C111.201 503.61 122.931 502.05 133.931 500.42C134.511 497.24 138.811 498.29 138.731 501.38L142.531 500.09C178.091 497.69 213.621 497.31 249.111 498.94L252.871 500.42V500.41Z" fill="#FFF1C3"/>
<path d="M114.76 388.19C111.3 388.77 108.96 386.29 106.59 384.38C87.57 369.04 60.82 329.28 52.24 306.37C51.24 303.69 51.34 300.12 50.5 298.03L53.36 296.46C69.51 300.33 84.47 302.85 100.54 300.82C105.98 301.17 108.81 303.42 108.79 308.96C110.02 334.83 112.5 360.76 115.74 386.35L114.76 388.2V388.19Z" fill="#FFF1C3"/>
<path d="M35.1507 189.64C43.7707 198.97 53.3607 207.18 62.0107 216.5C61.2007 220.02 57.5907 217.88 55.2507 216.2C47.7207 208.77 40.0207 201.62 32.1307 194.75C-0.719263 174.28 21.0407 206.37 29.4707 218.55C36.0807 228.35 28.4107 229.71 20.7607 225.13C-1.31926 223.72 22.3507 245.67 29.3807 250.15C35.5907 257.28 34.2007 258.85 25.7207 261.45C33.9907 287.56 67.1507 294.21 91.9007 290.33C103.331 288.54 106.431 285.36 105.041 273.5L107.091 272.12C107.561 270.83 108.881 270.45 108.941 271.2C109.211 274.44 109.131 277.54 109.011 280.75C108.301 309.07 112.151 345.79 115.861 374.13C116.911 382.15 120.091 388.83 117.641 395.85C115.911 394.38 115.191 390.54 114.761 388.18C112.431 375.2 111.211 358.85 109.971 345.49C108.881 333.72 109.371 320.24 108.061 309.03C106.871 298.83 91.9007 303.95 84.5507 303.76C73.2507 303.47 61.6607 299.21 50.4907 298.02C49.5707 295.73 30.3307 285.24 26.0607 281.69C19.9807 276.64 7.84074 265.26 16.4207 257.73C17.2807 255.84 24.4307 255.45 23.6207 253.44C23.0607 252.06 13.5107 243.08 11.3207 239.84C2.68074 227.05 5.90073 217.45 22.6707 219.37C19.7507 210.86 5.42074 194.79 11.1607 186.28C17.7807 176.46 27.4207 187.27 35.1407 189.65L35.1507 189.64Z" fill="#CC6015"/>
<path d="M273.981 476.43C274.161 476.49 275.031 478.17 276.981 478.68C281.941 479.98 285.621 480.38 290.281 478.35C287.281 493.47 300.301 486.96 308.841 491.92C312.991 494.33 314.631 499.07 316.181 503.28C316.531 507.17 313.631 509.41 307.481 510.03C306.971 512.92 306.031 515.15 304.671 516.71C304.361 516.78 303.221 519.39 299.381 519.64C295.541 519.89 293.291 517.56 291.251 517.67C288.321 509.79 282.281 505.72 273.801 506.4C264.011 507.18 254.061 517.3 252.891 500.4C252.391 497.58 254.481 495.39 259.181 493.84C268.521 491.25 272.951 488.74 269.701 478.54L271.111 476.42C271.781 476.67 273.241 476.18 273.991 476.42L273.981 476.43Z" fill="#F8C714"/>
<path d="M164.63 464.92L166.03 466.66C164.61 470.31 166.23 472.47 169.77 473.6C187.15 474.91 189.92 497.72 170.47 492.53C156.43 484.31 151.68 488.92 142.38 500.15L138.74 501.37C137.82 501.37 136.17 500.08 133.94 500.41C128.73 497.6 129.1 493.05 130.11 487.94C117.23 488.14 115.39 477.77 127.54 472.42C137.15 468.19 148.82 472.91 147.37 458.2C147.64 457.8 147.93 457.44 148.3 457.28C149.04 456.94 162.44 462.13 163.61 462.71L164.63 464.92Z" fill="#F8C714"/>
<path d="M84.0601 72.6305C99.3301 83.9305 108.43 107.1 104.13 125.79C103.24 129.67 100.32 133.13 99.1201 137.08C96.7401 144.91 98.0001 152.07 99.8901 159.91C100.86 163.95 106.11 175.34 104.72 178.12C101.86 183.86 94.5101 176.52 91.4301 175.08C87.7001 173.35 72.7501 166.12 70.1001 165.72C61.4001 164.38 50.7101 168.24 39.9401 165.66C12.5901 159.12 -3.73993 130.29 2.01007 103.27C9.74007 66.9405 54.3501 50.6405 84.0701 72.6305H84.0601Z" fill="#F49A36"/>
<path d="M194.37 448.61L196.19 446.65C207.13 448.12 218.07 449.08 229.01 449.52L230.81 451.49C230.96 451.49 231.89 452.43 233.13 452.49C241.58 452.91 250.17 452.09 258.62 452.46C253.64 462.42 266.32 466.12 267.25 474.51C263.78 477.1 259.04 471.6 257.2 468.53C254.41 457.89 251.84 456.47 241.23 457.04L223.51 457.23C213.19 454.94 203.1 453.95 193.24 454.28C185.86 459.56 175.52 466.2 166.54 463.96L165.58 464.92C165.26 465.8 164.94 465.8 164.62 464.92C160.9 464.22 150.57 460.32 147.36 458.21C132.25 448.29 121.16 425.25 120.5 407.38C130.37 431.15 142.25 470.44 177.08 457.72C183.15 455.5 189.31 448.88 194.36 448.62L194.37 448.61Z" fill="#CC6116"/>
<path d="M336.32 398.74C340.68 385.88 343.39 372.4 348.06 359.63C352.62 356.92 353.15 362.07 355.53 364.67C357.91 367.27 363.82 374.06 366.06 375.72C357.76 384.49 347.97 395.02 336.33 398.74H336.32Z" fill="#FFF1C3"/>
<path d="M304.67 516.71C304.68 514.13 304.14 511.85 305.57 509.45C307.68 505.91 311.35 507.9 313.11 506.92C313.69 506.59 314.08 503.7 316.18 503.28C317.85 502.95 337.36 506.44 339.43 507.37C341.33 508.22 342.98 509.82 341.65 511.95C339.73 515.02 312.87 517.66 307.97 517.68C306.6 517.68 304.84 516.68 304.67 516.71Z" fill="#FFF1C3"/>
<path d="M62.0004 216.5C62.3004 216.83 62.6504 217.12 62.9604 217.46C75.2904 227.31 89.3904 233.96 103.87 240.03C106.3 241.88 109.06 244.39 110.07 247.34C111.3 250.93 109.06 267.15 108.29 271.56C108.25 271.81 107.73 271.99 107.08 272.14C106.56 276.53 107.28 279.83 106.91 282.91C105.88 291.53 89.6404 292.83 82.6604 293.28C67.2404 294.26 52.4404 291.3 39.6204 282.53C34.4304 278.98 22.5704 268.05 23.8404 261.22C24.5404 257.43 32.7504 259.67 31.1604 255.51C29.5704 251.35 17.3504 243.68 14.0304 239.06C7.61037 230.15 7.42037 221.02 21.1804 223.29C22.9304 223.58 29.6204 228.2 30.3504 224.65C30.7304 222.8 15.0804 200.53 13.1804 195.8C11.6604 192.01 11.8004 188.23 15.9804 186.31C20.8704 184.06 33.9804 193.43 38.0304 196.84C43.5104 201.45 48.3204 208.21 53.8704 212.65C56.1604 214.48 58.7004 217.09 61.9904 216.52L62.0004 216.5Z" fill="#EE7E0B"/>
<path d="M215.471 132.1C204.211 131.52 209.811 125.81 217.761 127.58C230.071 130.32 227.751 142.06 218.651 147.11C230.531 156.92 244.891 181.58 241.491 197.3C241.231 198.5 240.341 199.41 239.451 200.19C239.841 202.71 239.401 202.89 237.531 201.15L236.571 202.11C236.291 202.96 235.971 202.95 235.611 202.11L234.101 199.96C238.101 184.5 223.261 151.05 206.231 150.62C196.471 152.63 191.161 151.63 185.991 142.88C141.781 140.92 114.591 192.72 144.251 227.65C164.631 251.66 201.941 250.64 222.791 227.8L226.031 227.04C229.341 226.94 229.961 230.53 226.991 231.84C202.201 256.53 162.971 258.2 139.691 230.42C135.811 225.79 127.241 211.08 127.241 205.46V184.84C125.741 185.6 124.541 189.02 123.901 190.61C115.101 212.26 109.611 257.28 109.021 280.75C108.441 277.77 110.711 271.28 107.101 272.12C108.811 257.58 114.851 247.39 98.5007 238.99C82.7107 230.88 75.7807 231.42 62.9707 217.45C74.0707 222.38 83.6607 230.24 94.9307 234.88C98.2307 236.24 106.661 240.52 109.521 237.62C111.211 235.9 117.481 201.84 119.301 195.62C120.571 191.3 122.201 186.12 123.891 181.98C125.991 176.84 133.331 166.46 131.841 161.55C131.241 159.56 127.101 155.63 126.271 152.23C126.201 151.93 126.351 151.57 126.271 151.27C127.091 148.23 129.481 149.82 130.991 151.93C133.101 156.97 134.251 158 138.161 153.46C141.291 146.76 145.551 143.15 150.961 142.64L159.251 130.75L161.761 130.16C161.501 132.4 162.161 134.1 164.641 134C165.511 135.72 164.621 137.78 161.981 140.16C171.691 136.93 181.401 135.71 191.101 136.48L192.451 138.79L194.121 140.08C192.361 150.53 226.981 139.29 216.071 134.12L215.471 132.07V132.1Z" fill="#CC6115"/>
<path d="M380.441 135.93C378.411 136.15 378.301 136.06 378.521 134.01C378.551 134.14 380.311 135.89 380.441 135.93Z" fill="#CFD2DD"/>
<path d="M194.37 448.61C179.04 440.37 166.13 423.47 159.02 407.71C147.13 381.36 143.54 340.31 150.72 312.4C157.43 286.34 176.37 272.86 195.73 298.11L204.91 313.37C207.26 302.9 216.6 286.38 227.89 284.06C249.55 279.62 254.14 300.99 257.69 317.2C258.49 317.83 267.37 304.96 268.67 303.73C280.48 292.55 294.71 295.7 302.95 308.86C321.97 339.23 301.13 403.2 281.08 430.27C277.68 434.86 264.44 449.57 259.66 451.05C252.49 453.27 238.77 450.29 230.83 451.47C227.82 451.3 224.75 451.66 221.72 451.47C213.38 450.91 202.33 448.2 194.38 448.6L194.37 448.61Z" fill="#F49936"/>
<path d="M256.711 203.07C258.531 202.7 259.541 204.33 259.591 205.95C264.161 205.16 265.921 212.52 266.191 216.35C266.291 217.74 262.971 233.2 262.371 234.6L260.551 235.68C256.611 236.13 258.221 238.44 257.671 239.52C253.331 247.97 241.811 267.89 231.771 255.34C226.381 248.6 227.281 239.87 226.971 231.84C226.911 230.14 227.001 228.55 226.011 227.04C223.981 225.25 224.481 215.94 225.131 213.08C226.271 208.06 229.891 200.37 235.601 202.1C235.831 201.96 236.311 202.24 236.561 202.1L237.521 201.14C238.141 200.85 238.841 200.35 239.441 200.18L240.161 198.05C245.291 199.06 250.381 200.07 255.411 201.08L256.711 203.06V203.07Z" fill="#F8C714"/>
<path d="M142.561 434.22C138.311 434.44 134.561 429.07 134.811 425.11C135.381 416.17 145.991 429.56 142.561 434.22Z" fill="#CD6115"/>
<path d="M296.99 443.82C299.26 447.66 291.04 457.05 288.37 454.36C286.27 452.25 291.87 441.26 296.99 443.82Z" fill="#CD6115"/>
<path d="M156 452.45C150.13 452.25 145.64 447.66 145.46 441.91C151.39 441.26 155.68 446.96 156 452.45Z" fill="#CD6215"/>
<path d="M156.951 440.94C156.431 441.65 144.281 432.55 150.221 429.91C154.461 428.02 158.251 437.43 156.951 440.94Z" fill="#CD6115"/>
<path d="M317.14 154.16C318.45 152.79 318.99 153.38 318.1 155.12C319.41 155.09 320.37 156.05 320.98 158C323.52 157.09 324.64 158.8 322.9 160.88C324.05 164.8 322.62 168.26 322.9 168.54C323.37 169.03 333.26 170.93 336.03 172.21C388.85 196.69 359.8 283.44 300.61 270.93C286.24 267.89 262.67 251.06 260.56 235.68C259.24 226.02 270.25 217.7 259.6 205.95C257.25 200.2 263.61 189.93 267.44 184.76C273.18 177.02 277.8 174.21 286.01 169.82C288.85 168.3 297.85 164.54 299.4 167.58C301.43 163.62 309.54 165.95 313.31 167.58C289.88 161.04 294.19 134.36 317.15 154.15L317.14 154.16Z" fill="#F49935"/>
<path d="M417.851 347.91C415.541 350.28 421.231 353.39 421.951 354.84C426.611 364.22 406.491 364.68 401.081 364.2C397.501 363.88 394.231 361.98 390.541 362.23C386.851 362.48 383.581 366.36 381.151 366.01C375.881 365.24 363.831 350.25 361.551 345.22C355.821 332.61 359.371 310.35 364.171 297.57C365.181 294.89 365.821 293.81 368.941 294.59C373.611 295.76 388.061 306.02 393.861 309.08C412.311 318.8 436.081 326.2 453.061 336.2C459.001 339.7 461.701 345.83 455.561 350.59C449.251 350 442.861 351.2 436.571 350.76C433.661 350.55 418.831 346.9 417.851 347.91Z" fill="#EE7E0B"/>
<path d="M384.281 195.4C384.161 195.52 382.151 195.47 380.901 196.3C378.391 197.96 371.761 204.69 368.891 202.67C368.211 202.19 364.461 189.66 363.351 187.08C356.571 171.4 351.511 169.33 355.211 150.49C358.341 134.53 362.941 128.52 371.051 115.49C371.771 114.33 379.631 95.7796 381.411 105.72C383.301 116.3 378.461 130.98 371.851 139.29C374.931 142.87 379.701 139.25 383.091 139.04C391.951 138.47 393.271 145.16 390.521 152.23C389.921 153.78 385.001 164 384.341 164.99C383.111 166.82 368.391 175.96 376.341 177.99C378.881 178.64 392.711 171.51 388.831 184.07C388.421 185.4 384.731 194.96 384.291 195.4H384.281Z" fill="#EE7E0B"/>
<path d="M161.761 130.18C159.371 134.86 154.991 139.56 152.171 144.09L155.041 145.04C152.331 148.34 151.291 143.2 147.391 145.04C142.951 147.13 138.531 161.59 132.001 157.54C130.321 156.5 130.051 151.01 126.271 151.29C125.961 150.13 126.441 148.03 126.051 146.27C125.111 142.09 120.761 134.04 124.261 129.62C129.661 122.8 139.381 139.92 141.491 131.43C141.761 130.35 135.511 116.63 135.011 112.34C134.111 104.76 134.651 86.8901 146.371 94.2601C147.791 95.1501 156.461 106.1 157.881 99.9001C158.011 99.3301 155.241 91.2201 155.011 88.4901C154.721 85.0801 154.271 73.4401 156.561 71.7501C161.471 68.1501 165.031 76.3301 166.291 80.0801C170.981 94.0501 168.451 117.02 161.761 130.17V130.18Z" fill="#EE7E0B"/>
<path d="M322.891 160.87C322.841 160.7 321.451 158.98 320.971 157.99C320.311 156.2 319.351 155.24 318.091 155.11C317.711 154.82 317.431 154.35 317.131 154.15C309.561 145.3 290.011 142.42 300.591 159.69C301.271 163.26 299.741 164.9 296.501 166.09C275.871 171.16 267.531 182.11 259.091 201.13C258.641 202.15 257.791 202.76 256.711 203.06C256.381 202.85 253.081 203.23 251.681 202.83C247.171 201.56 244.221 198.8 239.451 200.18C240.831 178.55 231.781 159.66 214.531 146.95C229.811 140.95 226.441 125.55 209.721 130.18L215.471 132.09L214.141 133.88C207.661 133.9 199.641 134.53 194.661 139.01L192.451 138.8C181.411 135.59 169.771 141.17 158.881 142.63C157.831 141.62 163.571 134.82 164.631 134C179.061 122.88 211.231 114.41 229.331 113.82C234.171 113.66 240.081 113.07 243.761 116.72C246.201 116.7 244.171 104.83 248.061 102.8C253.641 99.8798 253.541 108.68 256.211 108.11C259.761 107.35 258.191 97.8298 266.771 99.4798C271.691 100.43 267.131 108.94 270.711 109.99C274.291 111.04 278.311 103.18 281.561 107.73C284.401 111.72 277.431 118.98 280.661 121.08C281.751 121.79 287.751 122.41 290.071 123.18C313.141 130.86 336.071 153.88 347.811 174.77L322.891 160.85V160.87Z" fill="#EE7E0B"/>
<path d="M99.4108 174.29C98.3508 175.48 74.0908 162.76 69.9408 162.06C63.5508 160.98 54.5908 163.46 47.1608 162.77C26.4408 160.85 6.56081 141.87 4.47081 121.05C-1.30919 63.4801 78.1308 44.7301 98.2308 97.3101C107.991 122.85 92.3208 131.22 94.7208 152.61C95.5408 159.89 100.181 166.83 99.4108 174.29Z" fill="#FFF1C3"/>
<path d="M165.591 464.92C165.771 464.52 166.131 464.06 166.551 463.96C166.481 464.51 166.121 464.82 165.591 464.92Z" fill="#F8C714"/>
<path d="M50.1506 216.65C53.3406 216.03 61.7506 224.39 57.1806 226.62C53.2306 228.54 43.8106 217.89 50.1506 216.65Z" fill="#CD6115"/>
<path d="M78.3108 243.35C72.9608 243.92 66.9408 241.98 66.8008 235.69C71.8808 234.27 79.1008 237.28 78.3108 243.35Z" fill="#CD6215"/>
<path d="M61.9999 244.31C57.9499 245.44 49.3499 240.77 50.5099 236.22C51.8299 231.08 64.2799 242.12 61.9999 244.31Z" fill="#CD6115"/>
<path d="M226.021 227.05C199.061 258.83 148.811 252.36 133.211 212.91C122.241 185.16 139.561 150.44 168.461 143.12C172.391 142.13 182.341 140.32 186.001 140.94C189.901 141.6 189.511 147.46 194.311 148.93C201.881 151.25 205.631 145.82 214.211 151.09C229.361 160.39 239.721 184.75 235.611 202.11C223.361 209.64 228.431 214.51 226.021 227.05Z" fill="#F49936"/>
<path d="M215.471 132.1C223.181 133.16 221.161 139.09 215.521 142.22C209.571 145.52 189.2 150.95 192.45 138.81C192.62 138.17 194.79 136.16 195.59 135.72C200.48 133.03 209.961 131.34 215.471 132.1Z" fill="#F49935"/>
<path d="M236.57 202.11C236.85 201.96 237.12 201.34 237.53 201.15L236.57 202.11Z" fill="#F49936"/>
<path d="M254.56 353.45C258.07 349.69 256.25 340.22 256 335.64C255.94 334.58 255.52 331.61 257.19 331.62C259.51 331.62 262.35 355.72 253.27 356.49C246.64 357.05 245.97 353.54 242.8 348.87C242.21 348.58 241.55 355.17 235.12 354.71C230.97 354.41 230.59 350.98 227.95 348.87C226.78 360.55 216.3 359.56 214.5 348.87C212.43 350.21 211.1 353.99 208.74 355.08C207.04 355.86 205.47 355.78 203.7 355.38C192.59 352.9 201.39 330.81 203.49 330.66C206.54 330.44 202.17 339.42 201.91 340.57C200.85 345.24 199.71 354.72 207.12 352.53C211.66 351.19 214.2 338.38 215.96 338.34C218.35 338.28 216.45 343.3 216.54 344.45C216.83 348.36 217.5 354.59 222.55 354.57C226.35 353.48 225.35 340.18 227.47 340.26C230.08 342.76 232.01 353.87 236.88 352.62C241.45 351.44 239.96 341.36 242.82 338.34C244.63 338.37 244.85 353.07 251.82 354.15C252.69 354.28 253.98 354.1 254.58 353.46L254.56 353.45Z" fill="#CD6216"/>
<path d="M212.58 358.46C213.94 360.05 204.74 376 210.35 379.62C217.43 384.2 221.34 370.77 222.67 366.11C227.71 366.17 222.32 379.21 227.95 382C234.27 385.13 232.84 369.15 235.14 368.05C236.79 367.26 236.64 369.19 236.99 369.97C237.94 372.11 240.92 381.6 244.25 380.09C249.97 373.92 242.76 366.73 242.81 360.36C253.5 368.07 250.09 393.8 235.62 376.68C235.43 382.73 230.36 388.22 225.02 382.95C223.27 381.22 223.29 377.72 221.24 376.69C216.07 388.41 204.75 384.29 205.98 371.52C206.11 370.17 210.07 355.51 212.59 358.47L212.58 358.46Z" fill="#CD6216"/>
<path d="M215.461 386.27C215.461 389.99 213.291 399.06 217.361 401.15C225.401 405.26 224.811 390.15 228.401 390.09C229.081 390.08 231.581 400.9 235.121 401.59C238.701 399 238.221 396.3 238.501 392.51C238.611 391.02 237.511 388.7 239.901 389.15C243.051 392.56 241.511 402.59 236.831 403.33C231.111 404.24 231.671 401.24 228.961 398.38C226.861 396.17 225.041 402.65 222.151 403.98C213.671 407.87 209.941 395.35 212.591 388.67C213.181 387.19 213.381 385.89 215.451 386.27H215.461Z" fill="#CE6316"/>
<path d="M256.71 203.07C260.77 189.76 268.55 178.03 280.67 170.92C283.86 169.05 297.68 164.06 298.47 162.79C300.86 158.96 291.87 152.24 297.43 147.38C302.99 142.52 314.63 147.93 317.14 154.15C315.21 152.86 306.17 148.58 304.07 148.42C295.79 147.79 299.41 156.28 303.21 159.93L313.3 167.58H299.39C296.58 167.58 289.4 169.8 286.46 170.96C272.65 176.39 262.46 191.82 259.59 205.95C259.45 205.79 258.31 205.93 257.69 205.41C256.74 204.61 256.82 203.14 256.72 203.08L256.71 203.07Z" fill="#CD6115"/>
<path d="M272.05 147.45C273.53 150.95 269.52 161.02 265.81 160.85C261.64 160.66 265.96 145.66 272.05 147.45Z" fill="#CD6215"/>
<path d="M283.11 128.27C288.44 127.11 284.5 140.98 279.25 140.71C275.41 140.51 279.26 129.11 283.11 128.27Z" fill="#CD6215"/>
<path d="M252.14 167.82C255.03 164.65 259.11 170.34 255.93 175.93C250.75 185.03 249.21 171.03 252.14 167.82Z" fill="#CD6115"/>
<path d="M243.27 132.1C239.05 135.65 237.23 122.35 239.45 119.63C243.59 120.31 245.36 130.34 243.27 132.1Z" fill="#CF6315"/>
<path d="M263.42 123.46C264.4 127.77 266 135.15 259.6 134.96C257.96 131.04 258.36 124.2 263.42 123.46Z" fill="#CF6415"/>
<path d="M248.95 155.01C248.54 155.72 244.75 155.72 244.34 155.01C243.76 154.02 243.82 144.96 245.7 144.56C249.33 143.8 249.91 153.35 248.95 155V155.01Z" fill="#CE6215"/>
<path d="M318.101 155.11L318.571 154.18C322.141 155.02 320.441 156.88 320.981 157.99C319.421 157.72 318.791 155.64 318.101 155.11Z" fill="#DA6F16"/>
<path d="M304.44 184.14C333.3 180.19 356.04 208.53 340.95 235.04C320.73 270.57 270.03 251.49 276.33 211.66C278.49 197.99 290.64 186.03 304.44 184.14Z" fill="#22213E"/>
<path d="M377.56 309.53C372.15 309.84 365.72 307.29 367.01 300.9C373.05 299.71 376.85 303.94 377.56 309.53Z" fill="#CD6115"/>
<path d="M373.73 318.17C375.02 316.89 382.82 320 383.81 321.99C388.66 331.72 369.38 322.5 373.73 318.17Z" fill="#CD6215"/>
<path d="M403.46 322.96C398.31 323.36 392.55 322.25 391.95 316.26C397.24 314.13 401.4 318.27 403.46 322.96Z" fill="#CE6215"/>
<path d="M38.7199 96.7599C44.4699 95.8199 46.5699 104.39 46.4699 108.61C46.2899 116.29 32.8199 138.24 24.9999 128.33C19.7599 121.68 29.5099 98.2599 38.7199 96.7499V96.7599Z" fill="#EE8011"/>
<path d="M74.4699 124.44C74.6199 124.61 74.8399 126.24 73.9899 126.35C68.5899 127.05 68.7799 121.04 66.3799 121.58C46.9499 140.02 57.7199 109.44 66.1699 110.24C73.5999 110.94 69.7899 118.53 70.8099 121.85C71.5499 124.25 74.1299 124.06 74.4599 124.45L74.4699 124.44Z" fill="#EF8214"/>
<path d="M58.1603 97.5702C60.5103 99.4102 53.8803 111.21 52.9103 113.89C52.1803 115.92 49.0503 129.19 48.0903 129.2C46.6803 129.2 46.6303 126.24 46.7203 125.02C47.0203 120.97 53.1703 103.97 55.2303 99.9102C55.9303 98.5302 56.1003 97.1802 58.1603 97.5802V97.5702Z" fill="#EF861C"/>
<path d="M82.1407 120.58C78.8107 120.68 79.1207 118.02 79.4707 115.55C79.7307 113.7 88.1407 93.78 89.3407 93.75C91.1107 94.98 90.9307 95.93 90.5907 97.84C89.5207 103.82 80.8307 113.01 82.1407 120.58Z" fill="#EF871E"/>
<path d="M73.0506 100.45C74.2306 100.18 75.6906 101.65 75.4306 102.83C74.4406 103.57 70.6106 108.09 70.1606 108.1C66.5906 108.21 70.7806 100.96 73.0506 100.45Z" fill="#F18F29"/>
<path d="M80.1203 128.17C79.4403 128.67 77.0203 128.06 75.9103 128.26C73.7303 121.33 84.2903 125.09 80.1203 128.17Z" fill="#F0881E"/>
<path d="M214.511 187.73L212.381 187.37L208.601 179.81C221.941 220.62 163.141 235.42 153.231 195.03C153.641 200.08 155.101 205.11 157.601 210.12L156.001 211.71C155.421 213.35 154.141 212.71 152.161 209.79C145.791 200.13 147.271 185.7 153.291 175.91C166.681 154.15 200.781 154.28 213.731 176.52C215.651 179.81 219.161 185.44 214.511 187.73Z" fill="#22213E"/>
<path d="M214.51 187.73C215.21 190.86 215.71 196.3 216.43 200.2C211.41 221.87 190.41 233.56 169.15 224.77C164.63 222.9 157.03 216.18 156 211.71C154.55 204.41 148.96 199.6 152.17 191.57C155.88 191.35 154.77 195.71 155.7 198.1C167.37 227.99 208.24 220.17 208.83 191.08C208.89 187.84 205.34 176.76 205.88 176.23C208.77 173.35 214.13 186.04 214.51 187.73Z" fill="#E5E7F5"/>
<path d="M152.16 209.79C153.33 211.69 155.8 211.58 156 211.71C161.23 215.26 164.04 220.51 170.68 223.4C184.5 229.42 200.49 224.85 209.17 212.6C211.94 208.69 212.51 202.89 216.42 200.19C218.48 211.42 205.49 224.14 195.29 227.5C184.81 230.95 165.16 229.04 158.32 219.45C156.38 216.72 154.07 212.68 152.16 209.79Z" fill="#282440"/>
<path d="M282.6 218.42C289.48 257.72 348.43 241.06 333.23 202.81L324.82 190.61C347.81 201.52 348.1 234.54 325.46 246.41C310.75 254.13 291.51 248.87 283.38 234.43C280.76 229.77 277.94 222.77 282.59 218.42H282.6Z" fill="#E5E7F5"/>
<path d="M295.78 195.56C302.42 194.58 303.76 205.02 297.35 205.7C290.23 206.46 289.79 196.45 295.78 195.56Z" fill="#DDDFEE"/>
<path d="M41.7704 100.53C44.9304 102.67 41.1504 115.51 39.5104 118.72C36.4804 124.68 25.4704 135.15 26.5004 122.03C26.8804 117.21 35.3204 96.1703 41.7704 100.53Z" fill="#FFF0C2"/>
<path d="M58.1807 124.42C57.2407 123.38 63.7707 112.82 66.3307 112.93C71.9207 113.17 59.2907 125.63 58.1807 124.42Z" fill="#FEE9B6"/>
<path d="M169.17 171.58C175.63 170.59 177.36 180.79 170.66 181.81C164.41 182.76 162.58 172.59 169.17 171.58Z" fill="#DDDFED"/>
</g>
<defs>
<clipPath id="clip0_204_1972">
<rect width="462.28" height="521.75" fill="white" transform="translate(0.860352)"/>
</clipPath>
</defs>
</svg>
