<svg width="225" height="224" viewBox="0 0 225 224" fill="none" xmlns="http://www.w3.org/2000/svg">
<g id="Vector">
<path d="M9.46 0H0.5V8.96H9.46V0Z" fill="#FFF1C3"/>
<path d="M18.42 0H9.46V8.96H18.42V0Z" fill="#FFF1C3"/>
<path d="M27.38 0H18.42V8.96H27.38V0Z" fill="#FFF1C3"/>
<path d="M36.34 0H27.38V8.96H36.34V0Z" fill="#FFF1C3"/>
<path d="M45.3 0H36.34V8.96H45.3V0Z" fill="#FFF1C3"/>
<path d="M54.26 0H45.3V8.96H54.26V0Z" fill="#FFF1C3"/>
<path d="M63.22 0H54.26V8.96H63.22V0Z" fill="#FFF1C3"/>
<path d="M81.14 0H72.18V8.96H81.14V0Z" fill="#FFF1C3"/>
<path d="M90.1 0H81.14V8.96H90.1V0Z" fill="#FFF1C3"/>
<path d="M99.06 0H90.1V8.96H99.06V0Z" fill="#FFF1C3"/>
<path d="M125.94 0H116.98V8.96H125.94V0Z" fill="#FFF1C3"/>
<path d="M134.9 0H125.94V8.96H134.9V0Z" fill="#FFF1C3"/>
<path d="M143.86 0H134.9V8.96H143.86V0Z" fill="#FFF1C3"/>
<path d="M152.82 0H143.86V8.96H152.82V0Z" fill="#FFF1C3"/>
<path d="M170.74 0H161.78V8.96H170.74V0Z" fill="#FFF1C3"/>
<path d="M179.7 0H170.74V8.96H179.7V0Z" fill="#FFF1C3"/>
<path d="M188.66 0H179.7V8.96H188.66V0Z" fill="#FFF1C3"/>
<path d="M197.62 0H188.66V8.96H197.62V0Z" fill="#FFF1C3"/>
<path d="M206.58 0H197.62V8.96H206.58V0Z" fill="#FFF1C3"/>
<path d="M215.54 0H206.58V8.96H215.54V0Z" fill="#FFF1C3"/>
<path d="M224.5 0H215.54V8.96H224.5V0Z" fill="#FFF1C3"/>
<path d="M9.46 8.96H0.5V17.92H9.46V8.96Z" fill="#FFF1C3"/>
<path d="M63.22 8.96H54.26L54.26 17.92H63.22V8.96Z" fill="#FFF1C3"/>
<path d="M134.9 8.96H125.94V17.92H134.9V8.96Z" fill="#FFF1C3"/>
<path d="M170.74 8.96H161.78V17.92H170.74V8.96Z" fill="#FFF1C3"/>
<path d="M224.5 8.96H215.54V17.92H224.5V8.96Z" fill="#FFF1C3"/>
<path d="M9.46 17.92H0.5V26.88H9.46V17.92Z" fill="#FFF1C3"/>
<path d="M27.38 17.92H18.42V26.88H27.38V17.92Z" fill="#FFF1C3"/>
<path d="M36.34 17.92H27.38V26.88H36.34V17.92Z" fill="#FFF1C3"/>
<path d="M45.3 17.92H36.34V26.88H45.3V17.92Z" fill="#FFF1C3"/>
<path d="M63.22 17.92H54.26V26.88H63.22V17.92Z" fill="#FFF1C3"/>
<path d="M99.06 17.92H90.1V26.88H99.06V17.92Z" fill="#FFF1C3"/>
<path d="M116.98 17.92H108.02V26.88H116.98V17.92Z" fill="#FFF1C3"/>
<path d="M125.94 17.92H116.98V26.88H125.94V17.92Z" fill="#FFF1C3"/>
<path d="M134.9 17.92H125.94V26.88H134.9V17.92Z" fill="#FFF1C3"/>
<path d="M152.82 17.92H143.86V26.88H152.82V17.92Z" fill="#FFF1C3"/>
<path d="M170.74 17.92H161.78V26.88H170.74V17.92Z" fill="#FFF1C3"/>
<path d="M188.66 17.92H179.7V26.88H188.66V17.92Z" fill="#FFF1C3"/>
<path d="M197.62 17.92H188.66V26.88H197.62V17.92Z" fill="#FFF1C3"/>
<path d="M206.58 17.92H197.62V26.88H206.58V17.92Z" fill="#FFF1C3"/>
<path d="M224.5 17.92H215.54V26.88H224.5V17.92Z" fill="#FFF1C3"/>
<path d="M9.46 26.88H0.5V35.84H9.46V26.88Z" fill="#FFF1C3"/>
<path d="M27.38 26.88H18.42V35.84H27.38V26.88Z" fill="#FFF1C3"/>
<path d="M36.34 26.88H27.38V35.84H36.34V26.88Z" fill="#FFF1C3"/>
<path d="M45.3 26.88H36.34V35.84H45.3V26.88Z" fill="#FFF1C3"/>
<path d="M63.22 26.88H54.26V35.84H63.22V26.88Z" fill="#FFF1C3"/>
<path d="M81.14 26.88H72.18V35.84H81.14V26.88Z" fill="#FFF1C3"/>
<path d="M90.1 26.88H81.14V35.84H90.1V26.88Z" fill="#FFF1C3"/>
<path d="M99.06 26.88H90.1V35.84H99.06V26.88Z" fill="#FFF1C3"/>
<path d="M108.02 26.88H99.06V35.84H108.02V26.88Z" fill="#FFF1C3"/>
<path d="M116.98 26.88H108.02V35.84H116.98V26.88Z" fill="#FFF1C3"/>
<path d="M125.94 26.88H116.98V35.84H125.94V26.88Z" fill="#FFF1C3"/>
<path d="M134.9 26.88H125.94V35.84H134.9V26.88Z" fill="#FFF1C3"/>
<path d="M143.86 26.88H134.9V35.84H143.86V26.88Z" fill="#FFF1C3"/>
<path d="M170.74 26.88H161.78V35.84H170.74V26.88Z" fill="#FFF1C3"/>
<path d="M188.66 26.88H179.7V35.84H188.66V26.88Z" fill="#FFF1C3"/>
<path d="M197.62 26.88H188.66V35.84H197.62V26.88Z" fill="#FFF1C3"/>
<path d="M206.58 26.88H197.62V35.84H206.58V26.88Z" fill="#FFF1C3"/>
<path d="M224.5 26.88H215.54V35.84H224.5V26.88Z" fill="#FFF1C3"/>
<path d="M9.46 35.84H0.5V44.8H9.46V35.84Z" fill="#FFF1C3"/>
<path d="M27.38 35.84H18.42V44.8H27.38V35.84Z" fill="#FFF1C3"/>
<path d="M36.34 35.84H27.38V44.8H36.34V35.84Z" fill="#FFF1C3"/>
<path d="M45.3 35.84H36.34V44.8H45.3V35.84Z" fill="#FFF1C3"/>
<path d="M63.22 35.84H54.26V44.8H63.22V35.84Z" fill="#FFF1C3"/>
<path d="M81.14 35.84H72.18V44.8H81.14V35.84Z" fill="#FFF1C3"/>
<path d="M108.02 35.84H99.06V44.8H108.02V35.84Z" fill="#FFF1C3"/>
<path d="M116.98 35.84H108.02V44.8H116.98V35.84Z" fill="#FFF1C3"/>
<path d="M170.74 35.84H161.78V44.8H170.74V35.84Z" fill="#FFF1C3"/>
<path d="M188.66 35.84H179.7V44.8H188.66V35.84Z" fill="#FFF1C3"/>
<path d="M197.62 35.84H188.66V44.8H197.62V35.84Z" fill="#FFF1C3"/>
<path d="M206.58 35.84H197.62V44.8H206.58V35.84Z" fill="#FFF1C3"/>
<path d="M224.5 35.84H215.54V44.8H224.5V35.84Z" fill="#FFF1C3"/>
<path d="M9.46 44.8H0.5V53.76H9.46V44.8Z" fill="#FFF1C3"/>
<path d="M63.22 44.8H54.26V53.76H63.22V44.8Z" fill="#FFF1C3"/>
<path d="M81.14 44.8H72.18V53.76H81.14V44.8Z" fill="#FFF1C3"/>
<path d="M90.1 44.8H81.14V53.76H90.1V44.8Z" fill="#FFF1C3"/>
<path d="M134.9 44.8H125.94V53.76H134.9V44.8Z" fill="#FFF1C3"/>
<path d="M152.82 44.8H143.86V53.76H152.82V44.8Z" fill="#FFF1C3"/>
<path d="M170.74 44.8H161.78V53.76H170.74V44.8Z" fill="#FFF1C3"/>
<path d="M224.5 44.8H215.54V53.76H224.5V44.8Z" fill="#FFF1C3"/>
<path d="M9.46 53.76H0.5V62.72H9.46V53.76Z" fill="#FFF1C3"/>
<path d="M18.42 53.76L9.46 53.76V62.72H18.42V53.76Z" fill="#FFF1C3"/>
<path d="M27.38 53.76H18.42V62.72H27.38V53.76Z" fill="#FFF1C3"/>
<path d="M36.34 53.76H27.38V62.72H36.34V53.76Z" fill="#FFF1C3"/>
<path d="M45.3 53.76H36.34V62.72H45.3V53.76Z" fill="#FFF1C3"/>
<path d="M54.26 53.76L45.3 53.76V62.72H54.26L54.26 53.76Z" fill="#FFF1C3"/>
<path d="M63.22 53.76H54.26L54.26 62.72H63.22V53.76Z" fill="#FFF1C3"/>
<path d="M81.14 53.76H72.18V62.72H81.14V53.76Z" fill="#FFF1C3"/>
<path d="M99.06 53.76L90.1 53.76V62.72H99.06V53.76Z" fill="#FFF1C3"/>
<path d="M116.98 53.76H108.02V62.72H116.98V53.76Z" fill="#FFF1C3"/>
<path d="M134.9 53.76H125.94V62.72H134.9V53.76Z" fill="#FFF1C3"/>
<path d="M152.82 53.76H143.86V62.72H152.82V53.76Z" fill="#FFF1C3"/>
<path d="M170.74 53.76H161.78V62.72H170.74V53.76Z" fill="#FFF1C3"/>
<path d="M179.7 53.76L170.74 53.76V62.72H179.7V53.76Z" fill="#FFF1C3"/>
<path d="M188.66 53.76H179.7V62.72H188.66V53.76Z" fill="#FFF1C3"/>
<path d="M197.62 53.76H188.66V62.72H197.62V53.76Z" fill="#FFF1C3"/>
<path d="M206.58 53.76H197.62V62.72H206.58V53.76Z" fill="#FFF1C3"/>
<path d="M215.54 53.76L206.58 53.76V62.72H215.54V53.76Z" fill="#FFF1C3"/>
<path d="M224.5 53.76H215.54V62.72H224.5V53.76Z" fill="#FFF1C3"/>
<path d="M81.14 62.72H72.18V71.68H81.14V62.72Z" fill="#FFF1C3"/>
<path d="M99.06 62.72H90.1V71.68H99.06V62.72Z" fill="#FFF1C3"/>
<path d="M108.02 62.72H99.06V71.68H108.02V62.72Z" fill="#FFF1C3"/>
<path d="M116.98 62.72H108.02V71.68H116.98V62.72Z" fill="#FFF1C3"/>
<path d="M125.94 62.72H116.98V71.68H125.94V62.72Z" fill="#FFF1C3"/>
<path d="M143.86 62.72H134.9L134.9 71.68H143.86V62.72Z" fill="#FFF1C3"/>
<path d="M9.46 71.68H0.5V80.64H9.46V71.68Z" fill="#FFF1C3"/>
<path d="M18.42 71.68H9.46V80.64H18.42V71.68Z" fill="#FFF1C3"/>
<path d="M27.38 71.68H18.42V80.64H27.38V71.68Z" fill="#FFF1C3"/>
<path d="M45.3 71.68H36.34V80.64H45.3V71.68Z" fill="#FFF1C3"/>
<path d="M63.22 71.68H54.26V80.64H63.22V71.68Z" fill="#FFF1C3"/>
<path d="M81.14 71.68H72.18V80.64H81.14V71.68Z" fill="#FFF1C3"/>
<path d="M90.1 71.68H81.14V80.64H90.1V71.68Z" fill="#FFF1C3"/>
<path d="M99.06 71.68H90.1V80.64H99.06V71.68Z" fill="#FFF1C3"/>
<path d="M125.94 71.68H116.98V80.64H125.94V71.68Z" fill="#FFF1C3"/>
<path d="M134.9 71.68H125.94V80.64H134.9L134.9 71.68Z" fill="#FFF1C3"/>
<path d="M152.82 71.68H143.86V80.64H152.82V71.68Z" fill="#FFF1C3"/>
<path d="M161.78 71.68H152.82V80.64H161.78V71.68Z" fill="#FFF1C3"/>
<path d="M170.74 71.68H161.78V80.64H170.74V71.68Z" fill="#FFF1C3"/>
<path d="M179.7 71.68H170.74V80.64H179.7V71.68Z" fill="#FFF1C3"/>
<path d="M188.66 71.68H179.7V80.64H188.66V71.68Z" fill="#FFF1C3"/>
<path d="M197.62 71.68H188.66V80.64H197.62V71.68Z" fill="#FFF1C3"/>
<path d="M224.5 71.68H215.54V80.64H224.5V71.68Z" fill="#FFF1C3"/>
<path d="M9.46 80.64H0.5V89.6H9.46V80.64Z" fill="#FFF1C3"/>
<path d="M18.42 80.64H9.46V89.6H18.42V80.64Z" fill="#FFF1C3"/>
<path d="M27.38 80.64H18.42V89.6H27.38V80.64Z" fill="#FFF1C3"/>
<path d="M36.34 80.64H27.38V89.6H36.34V80.64Z" fill="#FFF1C3"/>
<path d="M45.3 80.64H36.34V89.6H45.3V80.64Z" fill="#FFF1C3"/>
<path d="M81.14 80.64H72.18V89.6H81.14V80.64Z" fill="#FFF1C3"/>
<path d="M108.02 80.64H99.06V89.6H108.02V80.64Z" fill="#FFF1C3"/>
<path d="M116.98 80.64H108.02V89.6H116.98V80.64Z" fill="#FFF1C3"/>
<path d="M143.86 80.64H134.9L134.9 89.6H143.86V80.64Z" fill="#FFF1C3"/>
<path d="M179.7 80.64H170.74V89.6H179.7V80.64Z" fill="#FFF1C3"/>
<path d="M197.62 80.64H188.66V89.6H197.62V80.64Z" fill="#FFF1C3"/>
<path d="M215.54 80.64H206.58V89.6H215.54V80.64Z" fill="#FFF1C3"/>
<path d="M9.46 89.6H0.5V98.56H9.46V89.6Z" fill="#FFF1C3"/>
<path d="M36.34 89.6H27.38V98.56H36.34V89.6Z" fill="#FFF1C3"/>
<path d="M54.26 89.6H45.3V98.56H54.26V89.6Z" fill="#FFF1C3"/>
<path d="M63.22 89.6H54.26V98.56H63.22V89.6Z" fill="#FFF1C3"/>
<path d="M81.14 89.6H72.18V98.56H81.14V89.6Z" fill="#FFF1C3"/>
<path d="M90.1 89.6H81.14V98.56H90.1V89.6Z" fill="#FFF1C3"/>
<path d="M99.06 89.6H90.1V98.56H99.06V89.6Z" fill="#FFF1C3"/>
<path d="M152.82 89.6H143.86V98.56H152.82V89.6Z" fill="#FFF1C3"/>
<path d="M161.78 89.6H152.82V98.56H161.78V89.6Z" fill="#FFF1C3"/>
<path d="M170.74 89.6H161.78V98.56H170.74V89.6Z" fill="#FFF1C3"/>
<path d="M188.66 89.6H179.7V98.56H188.66V89.6Z" fill="#FFF1C3"/>
<path d="M197.62 89.6H188.66V98.56H197.62V89.6Z" fill="#FFF1C3"/>
<path d="M9.46 98.56H0.5V107.52H9.46V98.56Z" fill="#FFF1C3"/>
<path d="M18.42 98.56H9.46V107.52H18.42V98.56Z" fill="#FFF1C3"/>
<path d="M27.38 98.56H18.42V107.52H27.38V98.56Z" fill="#FFF1C3"/>
<path d="M36.34 98.56H27.38V107.52H36.34V98.56Z" fill="#FFF1C3"/>
<path d="M81.14 98.56H72.18V107.52H81.14V98.56Z" fill="#FFF1C3"/>
<path d="M108.02 98.56H99.06V107.52H108.02V98.56Z" fill="#FFF1C3"/>
<path d="M116.98 98.56H108.02V107.52H116.98V98.56Z" fill="#FFF1C3"/>
<path d="M134.9 98.56H125.94V107.52H134.9V98.56Z" fill="#FFF1C3"/>
<path d="M143.86 98.56H134.9V107.52H143.86V98.56Z" fill="#FFF1C3"/>
<path d="M161.78 98.56H152.82V107.52H161.78V98.56Z" fill="#FFF1C3"/>
<path d="M170.74 98.56H161.78V107.52H170.74V98.56Z" fill="#FFF1C3"/>
<path d="M9.46 107.52H0.5V116.48H9.46V107.52Z" fill="#FFF1C3"/>
<path d="M18.42 107.52H9.46V116.48H18.42V107.52Z" fill="#FFF1C3"/>
<path d="M45.3 107.52H36.34V116.48H45.3V107.52Z" fill="#FFF1C3"/>
<path d="M63.22 107.52H54.26V116.48H63.22V107.52Z" fill="#FFF1C3"/>
<path d="M81.14 107.52H72.18V116.48H81.14V107.52Z" fill="#FFF1C3"/>
<path d="M90.1 107.52H81.14V116.48H90.1V107.52Z" fill="#FFF1C3"/>
<path d="M116.98 107.52H108.02V116.48H116.98V107.52Z" fill="#FFF1C3"/>
<path d="M134.9 107.52H125.94V116.48H134.9V107.52Z" fill="#FFF1C3"/>
<path d="M161.78 107.52H152.82V116.48H161.78V107.52Z" fill="#FFF1C3"/>
<path d="M179.7 107.52H170.74V116.48H179.7V107.52Z" fill="#FFF1C3"/>
<path d="M188.66 107.52H179.7V116.48H188.66V107.52Z" fill="#FFF1C3"/>
<path d="M206.58 107.52H197.62V116.48H206.58V107.52Z" fill="#FFF1C3"/>
<path d="M224.5 107.52H215.54V116.48H224.5V107.52Z" fill="#FFF1C3"/>
<path d="M27.38 116.48H18.42V125.44H27.38V116.48Z" fill="#FFF1C3"/>
<path d="M36.34 116.48H27.38V125.44H36.34V116.48Z" fill="#FFF1C3"/>
<path d="M54.26 116.48H45.3V125.44H54.26L54.26 116.48Z" fill="#FFF1C3"/>
<path d="M72.18 116.48H63.22V125.44H72.18V116.48Z" fill="#FFF1C3"/>
<path d="M90.1 116.48H81.14V125.44H90.1V116.48Z" fill="#FFF1C3"/>
<path d="M99.06 116.48H90.1V125.44H99.06V116.48Z" fill="#FFF1C3"/>
<path d="M125.94 116.48H116.98V125.44H125.94V116.48Z" fill="#FFF1C3"/>
<path d="M152.82 116.48H143.86V125.44H152.82V116.48Z" fill="#FFF1C3"/>
<path d="M179.7 116.48H170.74V125.44H179.7V116.48Z" fill="#FFF1C3"/>
<path d="M197.62 116.48H188.66V125.44H197.62V116.48Z" fill="#FFF1C3"/>
<path d="M206.58 116.48H197.62V125.44H206.58V116.48Z" fill="#FFF1C3"/>
<path d="M224.5 116.48H215.54V125.44H224.5V116.48Z" fill="#FFF1C3"/>
<path d="M9.46 125.44H0.5V134.4H9.46V125.44Z" fill="#FFF1C3"/>
<path d="M45.3 125.44H36.34V134.4H45.3V125.44Z" fill="#FFF1C3"/>
<path d="M54.26 125.44H45.3V134.4H54.26V125.44Z" fill="#FFF1C3"/>
<path d="M63.22 125.44H54.26V134.4H63.22V125.44Z" fill="#FFF1C3"/>
<path d="M90.1 125.44H81.14V134.4H90.1V125.44Z" fill="#FFF1C3"/>
<path d="M125.94 125.44H116.98V134.4H125.94V125.44Z" fill="#FFF1C3"/>
<path d="M143.86 125.44H134.9V134.4H143.86V125.44Z" fill="#FFF1C3"/>
<path d="M161.78 125.44H152.82V134.4H161.78V125.44Z" fill="#FFF1C3"/>
<path d="M170.74 125.44H161.78V134.4H170.74V125.44Z" fill="#FFF1C3"/>
<path d="M179.7 125.44H170.74V134.4H179.7V125.44Z" fill="#FFF1C3"/>
<path d="M197.62 125.44H188.66V134.4H197.62V125.44Z" fill="#FFF1C3"/>
<path d="M215.54 125.44H206.58V134.4H215.54V125.44Z" fill="#FFF1C3"/>
<path d="M224.5 125.44H215.54V134.4H224.5V125.44Z" fill="#FFF1C3"/>
<path d="M36.34 134.4L27.38 134.4V143.36H36.34V134.4Z" fill="#FFF1C3"/>
<path d="M72.18 134.4L63.22 134.4V143.36H72.18V134.4Z" fill="#FFF1C3"/>
<path d="M90.1 134.4H81.14V143.36H90.1V134.4Z" fill="#FFF1C3"/>
<path d="M99.06 134.4L90.1 134.4V143.36H99.06V134.4Z" fill="#FFF1C3"/>
<path d="M116.98 134.4L108.02 134.4V143.36H116.98V134.4Z" fill="#FFF1C3"/>
<path d="M125.94 134.4H116.98V143.36H125.94V134.4Z" fill="#FFF1C3"/>
<path d="M134.9 134.4H125.94V143.36H134.9L134.9 134.4Z" fill="#FFF1C3"/>
<path d="M143.86 134.4H134.9L134.9 143.36H143.86V134.4Z" fill="#FFF1C3"/>
<path d="M152.82 134.4H143.86V143.36H152.82V134.4Z" fill="#FFF1C3"/>
<path d="M161.78 134.4H152.82V143.36H161.78V134.4Z" fill="#FFF1C3"/>
<path d="M179.7 134.4H170.74V143.36H179.7V134.4Z" fill="#FFF1C3"/>
<path d="M188.66 134.4H179.7V143.36H188.66V134.4Z" fill="#FFF1C3"/>
<path d="M18.42 143.36H9.46V152.32H18.42V143.36Z" fill="#FFF1C3"/>
<path d="M36.34 143.36H27.38V152.32H36.34V143.36Z" fill="#FFF1C3"/>
<path d="M45.3 143.36H36.34V152.32H45.3V143.36Z" fill="#FFF1C3"/>
<path d="M54.26 143.36H45.3V152.32H54.26V143.36Z" fill="#FFF1C3"/>
<path d="M63.22 143.36H54.26V152.32H63.22V143.36Z" fill="#FFF1C3"/>
<path d="M72.18 143.36H63.22V152.32H72.18V143.36Z" fill="#FFF1C3"/>
<path d="M81.14 143.36H72.18V152.32H81.14V143.36Z" fill="#FFF1C3"/>
<path d="M90.1 143.36H81.14V152.32H90.1V143.36Z" fill="#FFF1C3"/>
<path d="M99.06 143.36H90.1V152.32H99.06V143.36Z" fill="#FFF1C3"/>
<path d="M116.98 143.36H108.02V152.32H116.98V143.36Z" fill="#FFF1C3"/>
<path d="M125.94 143.36H116.98V152.32H125.94V143.36Z" fill="#FFF1C3"/>
<path d="M143.86 143.36H134.9L134.9 152.32H143.86V143.36Z" fill="#FFF1C3"/>
<path d="M152.82 143.36H143.86V152.32H152.82V143.36Z" fill="#FFF1C3"/>
<path d="M161.78 143.36H152.82V152.32H161.78V143.36Z" fill="#FFF1C3"/>
<path d="M170.74 143.36H161.78V152.32H170.74V143.36Z" fill="#FFF1C3"/>
<path d="M179.7 143.36H170.74V152.32H179.7V143.36Z" fill="#FFF1C3"/>
<path d="M188.66 143.36H179.7V152.32H188.66V143.36Z" fill="#FFF1C3"/>
<path d="M206.58 143.36H197.62V152.32H206.58V143.36Z" fill="#FFF1C3"/>
<path d="M224.5 143.36H215.54V152.32H224.5V143.36Z" fill="#FFF1C3"/>
<path d="M81.14 152.32H72.18V161.28H81.14V152.32Z" fill="#FFF1C3"/>
<path d="M125.94 152.32H116.98V161.28H125.94V152.32Z" fill="#FFF1C3"/>
<path d="M152.82 152.32H143.86V161.28H152.82V152.32Z" fill="#FFF1C3"/>
<path d="M188.66 152.32H179.7V161.28H188.66V152.32Z" fill="#FFF1C3"/>
<path d="M197.62 152.32H188.66V161.28H197.62V152.32Z" fill="#FFF1C3"/>
<path d="M206.58 152.32H197.62V161.28H206.58V152.32Z" fill="#FFF1C3"/>
<path d="M9.46 161.28H0.5V170.24H9.46V161.28Z" fill="#FFF1C3"/>
<path d="M18.42 161.28H9.46V170.24H18.42V161.28Z" fill="#FFF1C3"/>
<path d="M27.38 161.28H18.42V170.24H27.38V161.28Z" fill="#FFF1C3"/>
<path d="M36.34 161.28H27.38V170.24H36.34V161.28Z" fill="#FFF1C3"/>
<path d="M45.3 161.28H36.34V170.24H45.3V161.28Z" fill="#FFF1C3"/>
<path d="M54.26 161.28H45.3V170.24H54.26V161.28Z" fill="#FFF1C3"/>
<path d="M63.22 161.28H54.26V170.24H63.22V161.28Z" fill="#FFF1C3"/>
<path d="M99.06 161.28H90.1V170.24H99.06V161.28Z" fill="#FFF1C3"/>
<path d="M108.02 161.28H99.06V170.24H108.02V161.28Z" fill="#FFF1C3"/>
<path d="M116.98 161.28H108.02V170.24H116.98V161.28Z" fill="#FFF1C3"/>
<path d="M134.9 161.28H125.94V170.24H134.9V161.28Z" fill="#FFF1C3"/>
<path d="M143.86 161.28H134.9V170.24H143.86V161.28Z" fill="#FFF1C3"/>
<path d="M152.82 161.28H143.86V170.24H152.82V161.28Z" fill="#FFF1C3"/>
<path d="M170.74 161.28H161.78V170.24H170.74V161.28Z" fill="#FFF1C3"/>
<path d="M188.66 161.28H179.7V170.24H188.66V161.28Z" fill="#FFF1C3"/>
<path d="M197.62 161.28H188.66V170.24H197.62V161.28Z" fill="#FFF1C3"/>
<path d="M215.54 161.28H206.58V170.24H215.54V161.28Z" fill="#FFF1C3"/>
<path d="M224.5 161.28H215.54V170.24H224.5V161.28Z" fill="#FFF1C3"/>
<path d="M9.46 170.24H0.5V179.2H9.46V170.24Z" fill="#FFF1C3"/>
<path d="M63.22 170.24H54.26L54.26 179.2H63.22V170.24Z" fill="#FFF1C3"/>
<path d="M90.1 170.24H81.14V179.2H90.1V170.24Z" fill="#FFF1C3"/>
<path d="M143.86 170.24H134.9L134.9 179.2H143.86V170.24Z" fill="#FFF1C3"/>
<path d="M152.82 170.24H143.86V179.2H152.82V170.24Z" fill="#FFF1C3"/>
<path d="M188.66 170.24H179.7V179.2H188.66V170.24Z" fill="#FFF1C3"/>
<path d="M215.54 170.24H206.58V179.2H215.54V170.24Z" fill="#FFF1C3"/>
<path d="M9.46 179.2H0.5V188.16H9.46V179.2Z" fill="#FFF1C3"/>
<path d="M27.38 179.2H18.42V188.16H27.38V179.2Z" fill="#FFF1C3"/>
<path d="M36.34 179.2H27.38V188.16H36.34V179.2Z" fill="#FFF1C3"/>
<path d="M45.3 179.2H36.34V188.16H45.3V179.2Z" fill="#FFF1C3"/>
<path d="M63.22 179.2H54.26V188.16H63.22V179.2Z" fill="#FFF1C3"/>
<path d="M81.14 179.2H72.18V188.16H81.14V179.2Z" fill="#FFF1C3"/>
<path d="M90.1 179.2H81.14V188.16H90.1V179.2Z" fill="#FFF1C3"/>
<path d="M125.94 179.2H116.98V188.16H125.94V179.2Z" fill="#FFF1C3"/>
<path d="M134.9 179.2H125.94V188.16H134.9L134.9 179.2Z" fill="#FFF1C3"/>
<path d="M152.82 179.2H143.86V188.16H152.82V179.2Z" fill="#FFF1C3"/>
<path d="M161.78 179.2H152.82V188.16H161.78V179.2Z" fill="#FFF1C3"/>
<path d="M170.74 179.2H161.78V188.16H170.74V179.2Z" fill="#FFF1C3"/>
<path d="M179.7 179.2H170.74V188.16H179.7V179.2Z" fill="#FFF1C3"/>
<path d="M188.66 179.2H179.7V188.16H188.66V179.2Z" fill="#FFF1C3"/>
<path d="M206.58 179.2H197.62V188.16H206.58V179.2Z" fill="#FFF1C3"/>
<path d="M215.54 179.2H206.58V188.16H215.54V179.2Z" fill="#FFF1C3"/>
<path d="M9.46 188.16H0.5V197.12H9.46V188.16Z" fill="#FFF1C3"/>
<path d="M27.38 188.16H18.42V197.12H27.38V188.16Z" fill="#FFF1C3"/>
<path d="M36.34 188.16H27.38V197.12H36.34V188.16Z" fill="#FFF1C3"/>
<path d="M45.3 188.16H36.34V197.12H45.3V188.16Z" fill="#FFF1C3"/>
<path d="M63.22 188.16H54.26V197.12H63.22V188.16Z" fill="#FFF1C3"/>
<path d="M90.1 188.16H81.14V197.12H90.1V188.16Z" fill="#FFF1C3"/>
<path d="M99.06 188.16H90.1V197.12H99.06V188.16Z" fill="#FFF1C3"/>
<path d="M108.02 188.16H99.06V197.12H108.02V188.16Z" fill="#FFF1C3"/>
<path d="M134.9 188.16H125.94V197.12H134.9V188.16Z" fill="#FFF1C3"/>
<path d="M143.86 188.16H134.9V197.12H143.86V188.16Z" fill="#FFF1C3"/>
<path d="M206.58 188.16H197.62V197.12H206.58V188.16Z" fill="#FFF1C3"/>
<path d="M224.5 188.16H215.54V197.12H224.5V188.16Z" fill="#FFF1C3"/>
<path d="M9.46 197.12H0.5V206.08H9.46V197.12Z" fill="#FFF1C3"/>
<path d="M27.38 197.12H18.42V206.08H27.38V197.12Z" fill="#FFF1C3"/>
<path d="M36.34 197.12H27.38V206.08H36.34V197.12Z" fill="#FFF1C3"/>
<path d="M45.3 197.12H36.34V206.08H45.3V197.12Z" fill="#FFF1C3"/>
<path d="M63.22 197.12H54.26V206.08H63.22V197.12Z" fill="#FFF1C3"/>
<path d="M81.14 197.12H72.18V206.08H81.14V197.12Z" fill="#FFF1C3"/>
<path d="M90.1 197.12H81.14V206.08H90.1V197.12Z" fill="#FFF1C3"/>
<path d="M108.02 197.12H99.06V206.08H108.02V197.12Z" fill="#FFF1C3"/>
<path d="M134.9 197.12H125.94V206.08H134.9V197.12Z" fill="#FFF1C3"/>
<path d="M143.86 197.12H134.9V206.08H143.86V197.12Z" fill="#FFF1C3"/>
<path d="M152.82 197.12H143.86V206.08H152.82V197.12Z" fill="#FFF1C3"/>
<path d="M161.78 197.12H152.82V206.08H161.78V197.12Z" fill="#FFF1C3"/>
<path d="M206.58 197.12H197.62V206.08H206.58V197.12Z" fill="#FFF1C3"/>
<path d="M215.54 197.12H206.58V206.08H215.54V197.12Z" fill="#FFF1C3"/>
<path d="M9.46 206.08H0.5V215.04H9.46V206.08Z" fill="#FFF1C3"/>
<path d="M63.22 206.08H54.26V215.04H63.22V206.08Z" fill="#FFF1C3"/>
<path d="M81.14 206.08H72.18V215.04H81.14V206.08Z" fill="#FFF1C3"/>
<path d="M90.1 206.08H81.14V215.04H90.1V206.08Z" fill="#FFF1C3"/>
<path d="M108.02 206.08H99.06V215.04H108.02V206.08Z" fill="#FFF1C3"/>
<path d="M125.94 206.08H116.98V215.04H125.94V206.08Z" fill="#FFF1C3"/>
<path d="M134.9 206.08H125.94V215.04H134.9V206.08Z" fill="#FFF1C3"/>
<path d="M152.82 206.08H143.86V215.04H152.82V206.08Z" fill="#FFF1C3"/>
<path d="M161.78 206.08H152.82V215.04H161.78V206.08Z" fill="#FFF1C3"/>
<path d="M179.7 206.08H170.74V215.04H179.7V206.08Z" fill="#FFF1C3"/>
<path d="M188.66 206.08H179.7V215.04H188.66V206.08Z" fill="#FFF1C3"/>
<path d="M197.62 206.08H188.66V215.04H197.62V206.08Z" fill="#FFF1C3"/>
<path d="M206.58 206.08H197.62V215.04H206.58V206.08Z" fill="#FFF1C3"/>
<path d="M215.54 206.08H206.58V215.04H215.54V206.08Z" fill="#FFF1C3"/>
<path d="M9.46 215.04H0.5V224H9.46V215.04Z" fill="#FFF1C3"/>
<path d="M18.42 215.04H9.46V224H18.42V215.04Z" fill="#FFF1C3"/>
<path d="M27.38 215.04H18.42V224H27.38V215.04Z" fill="#FFF1C3"/>
<path d="M36.34 215.04H27.38V224H36.34V215.04Z" fill="#FFF1C3"/>
<path d="M45.3 215.04H36.34V224H45.3V215.04Z" fill="#FFF1C3"/>
<path d="M54.26 215.04H45.3V224H54.26L54.26 215.04Z" fill="#FFF1C3"/>
<path d="M63.22 215.04H54.26L54.26 224H63.22V215.04Z" fill="#FFF1C3"/>
<path d="M81.14 215.04H72.18V224H81.14V215.04Z" fill="#FFF1C3"/>
<path d="M99.06 215.04H90.1V224H99.06V215.04Z" fill="#FFF1C3"/>
<path d="M108.02 215.04H99.06V224H108.02V215.04Z" fill="#FFF1C3"/>
<path d="M116.98 215.04H108.02V224H116.98V215.04Z" fill="#FFF1C3"/>
<path d="M134.9 215.04H125.94V224H134.9V215.04Z" fill="#FFF1C3"/>
<path d="M143.86 215.04H134.9V224H143.86V215.04Z" fill="#FFF1C3"/>
<path d="M170.74 215.04H161.78V224H170.74V215.04Z" fill="#FFF1C3"/>
<path d="M188.66 215.04H179.7V224H188.66V215.04Z" fill="#FFF1C3"/>
<path d="M197.62 215.04H188.66V224H197.62V215.04Z" fill="#FFF1C3"/>
<path d="M206.58 215.04H197.62V224H206.58V215.04Z" fill="#FFF1C3"/>
<path d="M215.54 215.04H206.58V224H215.54V215.04Z" fill="#FFF1C3"/>
<path d="M224.5 215.04H215.54V224H224.5V215.04Z" fill="#FFF1C3"/>
</g>
</svg>
