<svg width="223" height="50" viewBox="0 0 223 50" fill="none" xmlns="http://www.w3.org/2000/svg">
<g clip-path="url(#clip0_18_3689)">
<path d="M0.242529 6.625C2.12893 7.08119 3.97013 7.49217 5.78667 7.97302C12.7405 9.81832 19.4148 12.3952 25.7974 15.7241C26.3111 15.9913 26.7015 15.9954 27.2235 15.7241C35.1061 11.6266 43.3956 8.66347 52.0837 6.81405C52.3015 6.76884 52.5235 6.74007 52.8481 6.69076C52.8481 7.93192 52.844 9.10322 52.8481 10.2745C52.8975 20.0271 52.9386 29.7838 53.0249 39.5364C53.0331 40.3501 52.7577 40.5926 52.0221 40.7488C43.3545 42.5818 35.1225 45.6189 27.2974 49.7698C26.7221 50.074 26.3029 50.0822 25.7234 49.7698C17.8736 45.6107 9.6129 42.5571 0.916538 40.7282C0.246638 40.5885 -0.00406018 40.3748 4.96296e-05 39.6309C0.0863557 28.9002 0.131564 18.1736 0.189101 7.44285C0.189101 7.21681 0.21787 6.99077 0.242529 6.625ZM13.1679 15.0871C7.8087 15.0953 3.47695 19.4353 3.50161 24.7822C3.52216 30.0879 7.8539 34.4073 13.1597 34.4156C18.5107 34.4238 22.8712 30.0838 22.8671 24.7493C22.8671 19.3942 18.5312 15.0789 13.1679 15.083V15.0871ZM39.8159 15.083C34.4732 15.083 30.1291 19.4476 30.1496 24.7863C30.1702 30.0879 34.4978 34.4073 39.8077 34.4197C45.1546 34.432 49.5233 30.0838 49.5151 24.7534C49.5069 19.4024 45.171 15.0789 39.8159 15.083ZM21.4451 36.4746C23.2205 38.4062 24.9179 40.2515 26.6604 42.1461C28.4482 40.1981 30.1455 38.3487 31.8717 36.4705C30.1127 34.5594 28.4112 32.71 26.6563 30.7989C24.8932 32.7182 23.1958 34.5635 21.4451 36.4746Z" fill="#234B64"/>
<path d="M52.8441 2.94238C52.8441 3.85065 52.8359 4.59042 52.8441 5.33018C52.8564 5.97132 52.318 5.85624 51.981 5.92611C46.7533 7.04398 41.6284 8.50707 36.6761 10.5127C33.4663 11.8155 30.3346 13.3156 27.1824 14.7663C26.6851 14.9965 26.3193 15.0088 25.8344 14.7581C17.9888 10.714 9.74446 7.78785 1.10975 5.97132C0.390529 5.81925 0.0740731 5.56444 0.164489 4.80413C0.230246 4.24519 0.176818 3.67393 0.176818 2.96293C1.50018 3.28761 2.69613 3.55064 3.87565 3.8712C11.3391 5.88912 18.3093 9.1071 25.1111 12.7155C26.1426 13.2621 26.8906 13.2539 27.9181 12.7073C34.3335 9.30437 40.9092 6.24667 47.9123 4.22054C49.4987 3.76024 51.1139 3.39035 52.84 2.94649L52.8441 2.94238Z" fill="#234B64"/>
<path d="M52.6548 2.16553C43.6872 4.07249 35.4511 7.85352 27.2603 11.8647C27.7658 11.4907 28.263 11.1003 28.785 10.7468C33.7579 7.36034 39.1047 4.66019 44.5872 2.22307C46.3134 1.45454 48.1093 0.838063 49.856 0.114736C50.4273 -0.123633 50.793 0.0161003 51.204 0.443521C51.6972 0.957248 52.2767 1.38878 52.8192 1.85319C52.7658 1.95593 52.7082 2.05868 52.6548 2.16142V2.16553Z" fill="#234B64"/>
<path d="M0.26709 1.9229C0.900001 1.34342 1.49592 0.726945 2.17815 0.217328C2.40008 0.0488258 2.88915 0.0529356 3.17273 0.17623C6.27564 1.52014 9.43609 2.75719 12.4362 4.30659C16.4844 6.39438 20.4093 8.72053 24.3794 10.9563C24.8232 11.207 25.226 11.5316 25.6082 11.9015C17.5201 7.8287 9.32101 4.07233 0.398604 2.17771C0.353396 2.0914 0.308188 2.00921 0.26709 1.9229Z" fill="#234B64"/>
<path d="M12.0624 19.0979C11.1624 21.5391 11.709 23.257 13.5995 23.931C15.4489 24.5927 17.0024 23.6269 17.8162 21.3131C19.3574 22.9241 19.4642 25.8955 18.0546 28.0038C16.5216 30.3053 13.5666 31.2177 10.998 30.182C8.43348 29.1505 6.96216 26.4914 7.41835 23.7132C7.81289 21.3336 9.94178 19.217 12.0666 19.0938L12.0624 19.0979Z" fill="#234B64"/>
<path d="M38.7392 19.094C37.7816 21.3544 38.2953 23.1134 40.0872 23.8696C41.9366 24.6504 43.5189 23.7298 44.4847 21.3091C46.0259 23.0312 46.0957 26.0108 44.645 28.0903C43.0873 30.3179 40.2392 31.1891 37.7076 30.2069C35.1595 29.2164 33.6512 26.6067 34.054 23.8654C34.4115 21.4078 36.4623 19.283 38.7392 19.0898V19.094Z" fill="#234B64"/>
<path d="M81.181 16.1475C81.5509 16.279 81.7934 16.4229 81.9126 16.5831C82.0318 16.7434 82.0893 16.99 82.0893 17.3311V21.0752C82.0893 21.7081 81.8263 22.0204 81.3002 22.0204C81.1153 22.0204 80.7865 21.9876 80.3139 21.9218C79.8412 21.856 79.3809 21.8232 78.933 21.8232C77.4329 21.8232 76.2903 22.3081 75.5013 23.2821C74.7122 24.2562 74.3176 25.6741 74.3176 27.5399V34.6376C74.3176 35.402 74.1532 35.9404 73.8245 36.2527C73.4957 36.5692 72.9614 36.7253 72.2299 36.7253H70.101C69.3365 36.7253 68.7982 36.561 68.4858 36.2322C68.1694 35.9034 68.0132 35.3732 68.0132 34.6376V17.6435C68.0132 16.6982 68.4201 16.2256 69.2338 16.2256C69.8379 16.2256 70.4996 16.4886 71.2229 17.0147C71.9463 17.5407 72.571 18.2517 73.097 19.1436C74.3834 16.9366 76.3561 15.8311 79.011 15.8311C79.9316 15.8311 80.655 15.9379 81.181 16.1475Z" fill="#234B64"/>
<path d="M104.13 26.599C104.13 27.31 103.986 27.8155 103.699 28.1155C103.407 28.4196 102.885 28.5676 102.121 28.5676H89.898C90.1856 29.5663 90.8309 30.3882 91.8296 31.0335C92.8283 31.6787 94.1311 31.9993 95.7339 31.9993C97.1518 31.9993 98.4669 31.8267 99.6752 31.4855C100.883 31.1444 101.504 30.9718 101.529 30.9718C102.24 30.9718 102.593 31.354 102.593 32.1143V34.3994C102.593 35.2666 102.318 35.8707 101.767 36.2118C100.374 37.079 98.1546 37.5146 95.1051 37.5146C91.8172 37.5146 89.0924 36.5406 86.9225 34.5967C84.7525 32.6527 83.6675 30.0101 83.6675 26.6729C83.6675 23.6522 84.6456 21.0877 86.606 18.9835C88.5623 16.8793 91.0158 15.8271 93.9585 15.8271C97.2175 15.8271 99.7286 16.793 101.488 18.7246C103.247 20.6562 104.13 23.2782 104.13 26.5908V26.599ZM94.0365 21.1165C92.8776 21.1165 91.9405 21.4247 91.2172 22.0412C90.4939 22.6577 90.0418 23.4796 89.8569 24.5071H98.0189C97.8874 23.4837 97.4847 22.6618 96.8148 22.0412C96.1449 21.4247 95.2202 21.1165 94.0365 21.1165Z" fill="#234B64"/>
<path d="M119.899 15.8311C122.974 15.8311 125.485 16.8503 127.429 18.8888C129.373 20.9272 130.347 23.5205 130.347 26.6769C130.347 29.8332 129.34 32.3278 127.33 34.4033C125.32 36.4788 122.817 37.5185 119.817 37.5185C117.635 37.5185 115.744 36.9267 114.142 35.7431V45.1669C114.142 46.1122 113.747 46.5848 112.958 46.5848C111.672 46.5848 110.492 45.8574 109.428 44.3984C108.363 42.9394 107.833 41.0407 107.833 38.7022V17.6476C107.833 16.7023 108.24 16.2297 109.054 16.2297C109.604 16.2297 110.225 16.4599 110.907 16.9202C111.589 17.3805 112.194 18.0051 112.72 18.7942C113.431 17.9517 114.429 17.2489 115.716 16.6859C117.002 16.1229 118.395 15.8393 119.895 15.8393L119.899 15.8311ZM119.032 31.8388C120.425 31.8388 121.597 31.3662 122.542 30.4209C123.487 29.4756 123.96 28.2263 123.96 26.6769C123.96 25.1275 123.487 23.9109 122.542 22.9493C121.597 21.9917 120.425 21.5108 119.032 21.5108C117.639 21.5108 116.476 21.9917 115.543 22.9493C114.61 23.9109 114.142 25.1521 114.142 26.6769C114.142 28.2016 114.614 29.4756 115.559 30.4209C116.505 31.3662 117.664 31.8388 119.028 31.8388H119.032Z" fill="#234B64"/>
<path d="M153.177 26.599C153.177 27.31 153.033 27.8155 152.741 28.1155C152.453 28.4196 151.927 28.5676 151.163 28.5676H138.94C139.228 29.5663 139.873 30.3882 140.872 31.0335C141.871 31.6787 143.173 31.9993 144.776 31.9993C146.194 31.9993 147.509 31.8267 148.717 31.4855C149.926 31.1444 150.542 30.9718 150.571 30.9718C151.282 30.9718 151.635 31.354 151.635 32.1143V34.3994C151.635 35.2666 151.36 35.8707 150.809 36.2118C149.416 37.079 147.197 37.5146 144.147 37.5146C140.86 37.5146 138.135 36.5406 135.965 34.5967C133.795 32.6527 132.714 30.0101 132.714 26.6729C132.714 23.6522 133.692 21.0877 135.652 18.9835C137.613 16.8793 140.062 15.8271 143.005 15.8271C146.264 15.8271 148.775 16.793 150.534 18.7246C152.293 20.6562 153.177 23.2782 153.177 26.5908V26.599ZM143.083 21.1165C141.924 21.1165 140.987 21.4247 140.264 22.0412C139.54 22.6577 139.088 23.4796 138.903 24.5071H147.065C146.934 23.4837 146.535 22.6618 145.861 22.0412C145.191 21.4247 144.262 21.1165 143.083 21.1165Z" fill="#234B64"/>
<path d="M175.768 18.7488C177.371 20.6147 178.173 23.3888 178.173 27.0671V34.6374C178.173 35.4018 178.008 35.9402 177.679 36.2525C177.351 36.569 176.816 36.7251 176.085 36.7251H173.956C173.22 36.7251 172.686 36.569 172.357 36.2525C172.028 35.9361 171.864 35.3977 171.864 34.6374V27.2644C171.864 25.3985 171.535 24.0464 170.878 23.2039C170.167 22.2833 169.102 21.823 167.684 21.823C166.266 21.823 165.161 22.2833 164.372 23.2039C163.583 24.1245 163.188 25.4643 163.188 27.2274V34.6415C163.188 35.3771 163.032 35.9114 162.716 36.2361C162.399 36.5649 161.861 36.7293 161.1 36.7293H158.972C158.207 36.7293 157.669 36.5649 157.356 36.2361C157.04 35.9073 156.884 35.3771 156.884 34.6415V17.6474C156.884 16.7021 157.291 16.2295 158.104 16.2295C158.684 16.2295 159.313 16.4597 159.995 16.92C160.677 17.3803 161.281 18.0296 161.807 18.8721C162.621 17.8981 163.64 17.1501 164.861 16.624C166.082 16.098 167.339 15.835 168.626 15.835C171.675 15.835 174.055 16.809 175.76 18.7529L175.768 18.7488Z" fill="#234B64"/>
<path d="M190.12 37.3995C188.727 37.3995 187.346 37.268 185.981 37.005C184.613 36.7419 183.643 36.4543 183.063 36.1378C182.352 35.7433 181.999 35.1515 181.999 34.3624V32.4308C181.999 31.4567 182.418 30.9718 183.261 30.9718C183.417 30.9718 184.247 31.2019 185.743 31.6622C187.243 32.1225 188.883 32.3527 190.671 32.3527C192.22 32.3527 192.997 31.8389 192.997 30.8156C192.997 30.3183 192.787 29.9608 192.368 29.7512C191.949 29.5416 191.119 29.3196 189.886 29.0813L188.624 28.8429C186.466 28.4483 184.818 27.8031 183.676 26.9113C182.533 26.0194 181.962 24.6509 181.962 22.8097C181.962 20.3643 182.784 18.6094 184.428 17.545C186.072 16.4806 188.18 15.9463 190.757 15.9463C193.621 15.9463 195.882 16.3408 197.538 17.1299C198.249 17.471 198.603 18.0628 198.603 18.9054V20.837C198.603 21.7576 198.183 22.2179 197.341 22.2179C197.053 22.2179 196.165 22.0124 194.678 21.6055C193.194 21.1986 191.858 20.9931 190.675 20.9931C189.125 20.9931 188.349 21.4411 188.349 22.3329C188.349 22.7809 188.546 23.1015 188.94 23.2987C189.335 23.496 190.124 23.7015 191.308 23.9111L192.413 24.1084C194.674 24.5029 196.4 25.1605 197.6 26.0811C198.796 27.0017 199.396 28.5264 199.396 30.6553C199.396 32.9938 198.541 34.7035 196.831 35.7803C195.122 36.857 192.89 37.3954 190.128 37.3954L190.12 37.3995Z" fill="#234B64"/>
<path d="M222.251 26.599C222.251 27.31 222.107 27.8155 221.815 28.1155C221.528 28.4196 221.001 28.5676 220.237 28.5676H208.014C208.302 29.5663 208.947 30.3882 209.946 31.0335C210.945 31.6787 212.248 31.9993 213.85 31.9993C215.268 31.9993 216.583 31.8267 217.792 31.4855C219 31.1444 219.616 30.9718 219.645 30.9718C220.356 30.9718 220.71 31.354 220.71 32.1143V34.3994C220.71 35.2666 220.434 35.8707 219.884 36.2118C218.49 37.079 216.271 37.5146 213.222 37.5146C209.934 37.5146 207.209 36.5406 205.039 34.5967C202.869 32.6527 201.788 30.0101 201.788 26.6729C201.788 23.6522 202.766 21.0877 204.727 18.9835C206.687 16.8793 209.136 15.8271 212.079 15.8271C215.338 15.8271 217.849 16.793 219.608 18.7246C221.367 20.6562 222.251 23.2782 222.251 26.5908V26.599ZM212.161 21.1165C211.002 21.1165 210.065 21.4247 209.342 22.0412C208.619 22.6577 208.167 23.4796 207.982 24.5071H216.144C216.012 23.4837 215.613 22.6618 214.939 22.0412C214.27 21.4247 213.341 21.1165 212.161 21.1165Z" fill="#234B64"/>
</g>
<defs>
<clipPath id="clip0_18_3689">
<rect width="222.251" height="50" fill="white"/>
</clipPath>
</defs>
</svg>
